<svg width="42" height="22" viewBox="0 0 42 22" fill="none" xmlns="http://www.w3.org/2000/svg">
<path d="M19.0786 11.1725C19.0786 12.8295 18.7357 14.3912 18.0501 15.8577C17.3645 17.3242 16.3836 18.5336 15.1076 19.4859C13.4697 20.7048 11.5746 21.3143 9.42248 21.3143C6.66089 21.3143 4.40399 20.3334 2.6518 18.3717C0.899617 16.391 0.0235234 13.9817 0.0235234 11.1439C0.0235234 8.82039 0.613934 6.773 1.79476 5.00177C2.06139 4.62086 2.38517 4.23995 2.76608 3.85904C3.14699 3.47813 3.65169 3.0496 4.2802 2.57346C4.92774 2.09733 5.71813 1.71642 6.65136 1.43073C7.58459 1.12601 8.57496 0.973642 9.62246 0.973642C10.0986 0.973642 10.5938 1.02126 11.108 1.11648C11.6413 1.19267 12.2603 1.35455 12.9649 1.60214C13.6887 1.83069 14.4124 2.2116 15.1361 2.74487C15.8789 3.27815 16.5265 3.93522 17.0788 4.71608C18.412 6.52541 19.0786 8.67755 19.0786 11.1725ZM16.9931 11.0582C16.9931 8.20141 16.1265 6.0207 14.3934 4.51611C13.0221 3.33529 11.4032 2.74487 9.53676 2.74487C8.26071 2.74487 7.05132 3.0496 5.90859 3.65906C4.59445 4.36374 3.62313 5.3922 2.99462 6.74443C2.38517 8.09666 2.08044 9.59174 2.08044 11.2297C2.08044 12.4676 2.24233 13.5532 2.5661 14.4864C3.08033 16.0291 3.95642 17.2576 5.19438 18.1717C6.45138 19.0859 7.88932 19.543 9.50819 19.543C10.5938 19.543 11.5842 19.343 12.4793 18.9431C13.6792 18.4289 14.7267 17.5337 15.6218 16.2577C16.536 14.9816 16.9931 13.2485 16.9931 11.0582ZM36.2195 10.6869C37.5908 10.8202 38.8002 11.3249 39.8477 12.201C40.8952 13.0771 41.4189 14.1912 41.4189 15.5435C41.4189 16.4957 41.1618 17.3623 40.6476 18.1432C39.2763 20.2572 36.5147 21.3143 32.3628 21.3143C29.8869 21.3143 27.8776 20.8857 26.3349 20.0287C25.4588 19.5525 24.7541 18.9336 24.2208 18.1717C23.6876 17.3909 23.4209 16.5243 23.4209 15.572C23.4209 14.2579 23.9447 13.1628 24.9922 12.2867C26.0587 11.3915 27.2681 10.8583 28.6204 10.6869C28.3347 10.6297 28.0585 10.5726 27.7919 10.5154C27.5252 10.4393 27.1634 10.2964 26.7063 10.0869C26.2492 9.87742 25.8588 9.62983 25.535 9.34415C25.2112 9.05846 24.9255 8.65851 24.6779 8.14428C24.4303 7.63005 24.3066 7.04916 24.3066 6.40161C24.3066 5.1827 24.7636 4.14472 25.6778 3.28767C26.592 2.43062 27.649 1.84021 28.8489 1.51644C30.0678 1.17362 31.3343 1.00221 32.6485 1.00221C34.8387 1.00221 36.7147 1.44978 38.2764 2.34492C39.8382 3.24006 40.6286 4.58277 40.6476 6.37305C40.6476 7.42055 40.2857 8.33473 39.562 9.1156C38.8002 9.91551 37.686 10.4393 36.2195 10.6869ZM38.7335 6.25877C38.7335 5.63027 38.5621 5.07795 38.2193 4.60181C37.8765 4.12567 37.467 3.76381 36.9909 3.51622C36.5338 3.26863 35.991 3.07817 35.3625 2.94485C34.753 2.79249 34.2388 2.69726 33.8198 2.65917C33.4008 2.62108 33.0008 2.60203 32.6199 2.60203C31.4962 2.60203 30.5249 2.70678 29.706 2.91628C28.887 3.10674 28.268 3.34481 27.849 3.63049C27.43 3.89713 27.0967 4.2209 26.8491 4.60181C26.6015 4.98272 26.4492 5.29697 26.392 5.54457C26.3539 5.79216 26.3349 6.03975 26.3349 6.28734C26.3349 6.99202 26.5444 7.59196 26.9634 8.08714C27.4014 8.58232 27.9633 8.94419 28.6489 9.17274C29.3536 9.40128 30.0202 9.56317 30.6487 9.6584C31.2963 9.75362 31.9438 9.80124 32.5914 9.80124C33.7912 9.80124 34.8482 9.66792 35.7624 9.40128C36.6957 9.1156 37.3718 8.79183 37.7908 8.42996C38.4193 7.8586 38.7335 7.13487 38.7335 6.25877ZM39.4477 15.572C39.4477 14.7531 39.1811 14.0579 38.6478 13.4865C38.1146 12.9152 37.4194 12.5152 36.5623 12.2867C35.7243 12.0391 34.9816 11.8772 34.334 11.801C33.7055 11.7058 33.1056 11.6582 32.5342 11.6582C30.2107 11.6582 28.4394 12.0105 27.2205 12.7152C26.0016 13.3627 25.3921 14.3055 25.3921 15.5435C25.3921 16.6291 25.973 17.5623 27.1348 18.3432C28.5251 19.2192 30.2773 19.6573 32.3914 19.6573C34.4864 19.6573 36.1624 19.3145 37.4194 18.6288C38.7716 17.867 39.4477 16.8481 39.4477 15.572Z" fill="url(#paint0_radial_284_61)"/>
<path d="M18.0501 15.8577L17.5997 15.6471L17.5997 15.6471L18.0501 15.8577ZM15.1076 19.4859L15.4044 19.8847L15.4049 19.8843L15.1076 19.4859ZM2.6518 18.3717L2.27941 18.7011L2.281 18.7029L2.6518 18.3717ZM1.79476 5.00177L1.38734 4.71658L1.38107 4.72598L1.79476 5.00177ZM2.76608 3.85904L2.41451 3.50747L2.41451 3.50747L2.76608 3.85904ZM4.2802 2.57346L3.98564 2.17287L3.97997 2.17716L4.2802 2.57346ZM6.65136 1.43073L6.79692 1.90622L6.80569 1.90336L6.65136 1.43073ZM11.108 1.11648L11.0175 1.60536L11.0276 1.60722L11.0377 1.60867L11.108 1.11648ZM12.9649 1.60214L12.8001 2.07122L12.8076 2.07386L12.8152 2.07625L12.9649 1.60214ZM15.1361 2.74487L14.8412 3.14517L14.8462 3.14875L15.1361 2.74487ZM17.0788 4.71608L16.6728 5.00325L16.6785 5.01101L17.0788 4.71608ZM14.3934 4.51611L14.7193 4.14066L14.7178 4.13936L14.3934 4.51611ZM5.90859 3.65906L5.67462 3.22036L5.67363 3.22089L5.90859 3.65906ZM2.99462 6.74443L2.54373 6.53486L2.54135 6.54014L2.99462 6.74443ZM2.5661 14.4864L3.03781 14.3292L3.03582 14.3235L2.5661 14.4864ZM5.19438 18.1717L4.89902 18.5717L4.90195 18.5738L5.19438 18.1717ZM12.4793 18.9431L12.2834 18.486L12.2765 18.4891L12.4793 18.9431ZM15.6218 16.2577L15.2176 15.9681L15.2148 15.9721L15.6218 16.2577ZM18.5814 11.1725C18.5814 12.7585 18.2538 14.2481 17.5997 15.6471L18.5005 16.0683C19.2177 14.5343 19.5757 12.9005 19.5757 11.1725H18.5814ZM17.5997 15.6471C16.9482 17.0406 16.0194 18.185 14.8102 19.0874L15.4049 19.8843C16.7478 18.8822 17.7807 17.6078 18.5005 16.0683L17.5997 15.6471ZM14.8107 19.087C13.2634 20.2385 11.4739 20.8171 9.42248 20.8171V21.8114C11.6754 21.8114 13.6759 21.1711 15.4044 19.8847L14.8107 19.087ZM9.42248 20.8171C6.79447 20.8171 4.67526 19.8908 3.02261 18.0405L2.281 18.7029C4.13272 20.776 6.5273 21.8114 9.42248 21.8114V20.8171ZM3.02419 18.0423C1.35858 16.1594 0.520709 13.87 0.520709 11.1439H-0.473662C-0.473662 14.0935 0.440657 16.6225 2.27941 18.7011L3.02419 18.0423ZM0.520709 11.1439C0.520709 8.90918 1.08704 6.95965 2.20844 5.27756L1.38107 4.72598C0.140826 6.58635 -0.473662 8.73161 -0.473662 11.1439H0.520709ZM2.20207 5.28689C2.44973 4.93308 2.75408 4.57417 3.11764 4.2106L2.41451 3.50747C2.01626 3.90573 1.67306 4.30863 1.38745 4.71665L2.20207 5.28689ZM3.11764 4.2106C3.47698 3.85126 3.96255 3.43785 4.58043 2.96977L3.97997 2.17716C3.34084 2.66135 2.81699 3.105 2.41451 3.50747L3.11764 4.2106ZM4.57472 2.97402C5.16869 2.53728 5.9061 2.17884 6.7969 1.90614L6.50583 0.955325C5.53017 1.254 4.6868 1.65737 3.98567 2.17291L4.57472 2.97402ZM6.80569 1.90336C7.68586 1.61596 8.62386 1.47083 9.62246 1.47083V0.476457C8.52606 0.476457 7.48333 0.636051 6.49704 0.958106L6.80569 1.90336ZM9.62246 1.47083C10.0654 1.47083 10.5302 1.51512 11.0175 1.60536L11.1985 0.62761C10.6573 0.527387 10.1318 0.476457 9.62246 0.476457V1.47083ZM11.0377 1.60867C11.5291 1.67888 12.1153 1.8306 12.8001 2.07122L13.1298 1.13307C12.4052 0.878503 11.7534 0.706452 11.1783 0.624295L11.0377 1.60867ZM12.8152 2.07625C13.4782 2.28562 14.1536 2.63847 14.8412 3.14514L15.4311 2.34461C14.6712 1.78473 13.8991 1.37576 13.1147 1.12804L12.8152 2.07625ZM14.8462 3.14875C15.542 3.64835 16.151 4.26533 16.6729 5.00319L17.4847 4.42898C16.902 3.60511 16.2158 2.90795 15.4261 2.341L14.8462 3.14875ZM16.6785 5.01101C17.9418 6.72551 18.5814 8.77141 18.5814 11.1725H19.5757C19.5757 8.5837 18.8821 6.32531 17.479 4.42115L16.6785 5.01101ZM17.4903 11.0582C17.4903 8.09553 16.5871 5.76212 14.7193 4.14066L14.0674 4.89155C15.666 6.27928 16.4959 8.3073 16.4959 11.0582H17.4903ZM14.7178 4.13936C13.2532 2.87821 11.5182 2.24769 9.53676 2.24769V3.24206C11.2882 3.24206 12.7909 3.79236 14.0689 4.89286L14.7178 4.13936ZM9.53676 2.24769C8.17784 2.24769 6.88824 2.5731 5.67462 3.22037L6.14256 4.09775C7.2144 3.5261 8.34358 3.24206 9.53676 3.24206V2.24769ZM5.67363 3.22089C4.26468 3.97642 3.2176 5.08509 2.54376 6.53488L3.44549 6.95399C4.02865 5.69931 4.92421 4.75107 6.14355 4.09722L5.67363 3.22089ZM2.54135 6.54014C1.90006 7.96301 1.58325 9.5287 1.58325 11.2297H2.57762C2.57762 9.65477 2.87028 8.23032 3.4479 6.94873L2.54135 6.54014ZM1.58325 11.2297C1.58325 12.5096 1.75049 13.6524 2.09638 14.6494L3.03582 14.3235C2.73417 13.454 2.57762 12.4256 2.57762 11.2297H1.58325ZM2.09443 14.6437C2.63909 16.2776 3.5739 17.5931 4.89903 18.5717L5.48973 17.7718C4.33895 16.922 3.52157 15.7806 3.03777 14.3292L2.09443 14.6437ZM4.90195 18.5738C6.24763 19.5525 7.78891 20.0402 9.50819 20.0402V19.0458C7.98974 19.0458 6.65514 18.6193 5.48681 17.7696L4.90195 18.5738ZM9.50819 20.0402C10.6561 20.0402 11.7166 19.8284 12.6821 19.397L12.2765 18.4891C11.4517 18.8577 10.5314 19.0458 9.50819 19.0458V20.0402ZM12.6751 19.4001C13.9752 18.8429 15.091 17.8801 16.0288 16.5432L15.2148 15.9721C14.3623 17.1873 13.3831 18.0148 12.2834 18.4861L12.6751 19.4001ZM16.026 16.5472C17.0203 15.1592 17.4903 13.3124 17.4903 11.0582H16.4959C16.4959 13.1845 16.0516 14.804 15.2176 15.9681L16.026 16.5472ZM36.2195 10.6869L36.1368 10.1966L36.1714 11.1817L36.2195 10.6869ZM39.8477 12.201L40.1667 11.8196L40.1667 11.8196L39.8477 12.201ZM40.6476 18.1432L40.2324 17.8697L40.2305 17.8726L40.6476 18.1432ZM26.3349 20.0287L26.5764 19.594L26.5723 19.5918L26.3349 20.0287ZM24.2208 18.1717L23.8102 18.4522L23.8135 18.4569L24.2208 18.1717ZM24.9922 12.2867L25.3112 12.6681L25.3118 12.6675L24.9922 12.2867ZM28.6204 10.6869L28.6829 11.1801L28.7179 10.1993L28.6204 10.6869ZM27.7919 10.5154L27.6553 10.9935L27.6714 10.9981L27.6877 11.0016L27.7919 10.5154ZM26.7063 10.0869L26.9134 9.63495L26.9134 9.63495L26.7063 10.0869ZM25.535 9.34415L25.8639 8.97134L25.8639 8.97134L25.535 9.34415ZM24.6779 8.14428L24.23 8.35996L24.23 8.35996L24.6779 8.14428ZM25.6778 3.28767L26.0179 3.65039L26.0179 3.65039L25.6778 3.28767ZM28.8489 1.51644L28.9784 1.99648L28.9835 1.99505L28.8489 1.51644ZM38.2764 2.34492L38.5237 1.91356L38.5237 1.91356L38.2764 2.34492ZM40.6476 6.37305H41.1448L41.1448 6.36776L40.6476 6.37305ZM39.562 9.1156L39.9221 9.45852L39.9267 9.45357L39.562 9.1156ZM38.2193 4.60181L37.8158 4.89232L37.8158 4.89232L38.2193 4.60181ZM36.9909 3.51622L36.754 3.95345L36.7615 3.95733L36.9909 3.51622ZM35.3625 2.94485L35.2419 3.42719L35.2506 3.42936L35.2593 3.43122L35.3625 2.94485ZM33.8198 2.65917L33.7748 3.15431L33.7748 3.15431L33.8198 2.65917ZM29.706 2.91628L29.8186 3.40066L29.8292 3.39796L29.706 2.91628ZM27.849 3.63049L28.1159 4.04995L28.1226 4.04572L28.1291 4.04128L27.849 3.63049ZM26.8491 4.60181L27.266 4.87277L27.266 4.87277L26.8491 4.60181ZM26.392 5.54457L25.9076 5.43277L25.9034 5.45074L25.9006 5.46897L26.392 5.54457ZM26.9634 8.08714L26.5838 8.40837L26.591 8.41656L26.9634 8.08714ZM28.6489 9.17274L28.4917 9.64442L28.4955 9.64567L28.6489 9.17274ZM30.6487 9.6584L30.5742 10.15L30.5764 10.1503L30.6487 9.6584ZM35.7624 9.40128L35.9017 9.87862L35.908 9.87669L35.7624 9.40128ZM37.7908 8.42996L38.1159 8.80636L38.1252 8.79785L37.7908 8.42996ZM36.5623 12.2867L36.4214 12.7637L36.4342 12.7671L36.5623 12.2867ZM34.334 11.801L34.2595 12.2926L34.2677 12.2938L34.2759 12.2948L34.334 11.801ZM27.2205 12.7152L27.4538 13.1543L27.4616 13.1501L27.4694 13.1456L27.2205 12.7152ZM27.1348 18.3432L26.8575 18.7558L26.8635 18.7599L26.8698 18.7638L27.1348 18.3432ZM37.4194 18.6288L37.6575 19.0654L37.6634 19.062L37.4194 18.6288ZM36.1714 11.1817C37.444 11.3054 38.5587 11.7711 39.5287 12.5824L40.1667 11.8196C39.0416 10.8787 37.7376 10.3349 36.2676 10.192L36.1714 11.1817ZM39.5287 12.5824C40.4646 13.3651 40.9218 14.3401 40.9218 15.5435H41.9161C41.9161 14.0423 41.3258 12.7891 40.1667 11.8196L39.5287 12.5824ZM40.9218 15.5435C40.9218 16.4004 40.6921 17.1716 40.2324 17.8697L41.0628 18.4166C41.6316 17.553 41.9161 16.591 41.9161 15.5435H40.9218ZM40.2305 17.8726C38.9984 19.7721 36.4578 20.8171 32.3628 20.8171V21.8114C36.5717 21.8114 39.5543 20.7423 41.0647 18.4137L40.2305 17.8726ZM32.3628 20.8171C29.9392 20.8171 28.0214 20.3968 26.5764 19.5941L26.0934 20.4633C27.7338 21.3746 29.8346 21.8114 32.3628 21.8114V20.8171ZM26.5723 19.5918C25.7588 19.1497 25.1142 18.5809 24.6282 17.8866L23.8135 18.4569C24.3941 19.2862 25.1588 19.9554 26.0975 20.4655L26.5723 19.5918ZM24.6314 17.8913C24.155 17.1937 23.9181 16.425 23.9181 15.572H22.9238C22.9238 16.6236 23.2201 17.588 23.8103 18.4521L24.6314 17.8913ZM23.9181 15.572C23.9181 14.4116 24.3715 13.4539 25.3112 12.6681L24.6732 11.9053C23.5179 12.8716 22.9238 14.1041 22.9238 15.572H23.9181ZM25.3118 12.6675C26.3069 11.8323 27.4275 11.3392 28.6829 11.1801L28.5578 10.1936C27.1088 10.3773 25.8106 10.9507 24.6726 11.9058L25.3118 12.6675ZM28.7179 10.1993C28.4343 10.1426 28.1603 10.0859 27.8961 10.0293L27.6877 11.0016C27.9567 11.0592 28.2351 11.1168 28.5229 11.1744L28.7179 10.1993ZM27.9285 10.0374C27.698 9.97153 27.3629 9.84094 26.9134 9.63495L26.4991 10.5389C26.9639 10.7519 27.3525 10.907 27.6553 10.9935L27.9285 10.0374ZM26.9134 9.63495C26.4935 9.44248 26.1458 9.22003 25.8639 8.97134L25.206 9.71695C25.5717 10.0396 26.0049 10.3124 26.4991 10.5389L26.9134 9.63495ZM25.8639 8.97134C25.6031 8.74123 25.3535 8.40128 25.1259 7.92859L24.23 8.35996C24.4976 8.91573 24.8193 9.3757 25.206 9.71695L25.8639 8.97134ZM25.1259 7.92859C24.9148 7.49019 24.8037 6.98457 24.8037 6.40161H23.8094C23.8094 7.11375 23.9459 7.76991 24.23 8.35996L25.1259 7.92859ZM24.8037 6.40161C24.8037 5.32443 25.2008 4.41642 26.0179 3.65039L25.3378 2.92496C24.3265 3.87302 23.8094 5.04097 23.8094 6.40161H24.8037ZM26.0179 3.65039C26.8731 2.84863 27.858 2.2988 28.9784 1.99646L28.7194 1.03642C27.4401 1.38162 26.3109 2.01262 25.3378 2.92496L26.0179 3.65039ZM28.9835 1.99505C30.157 1.66502 31.3781 1.4994 32.6485 1.4994V0.505025C31.2906 0.505025 29.9787 0.682222 28.7143 1.03782L28.9835 1.99505ZM32.6485 1.4994C34.7707 1.4994 36.5575 1.93271 38.0292 2.77627L38.5237 1.91356C36.872 0.966845 34.9067 0.505025 32.6485 0.505025V1.4994ZM38.0292 2.77627C39.439 3.58433 40.1333 4.76552 40.1504 6.37833L41.1448 6.36776C41.1238 4.40001 40.2373 2.89578 38.5237 1.91356L38.0292 2.77627ZM40.1504 6.37305C40.1504 7.29295 39.8374 8.08702 39.1974 8.77763L39.9267 9.45357C40.734 8.58245 41.1448 7.54814 41.1448 6.37305H40.1504ZM39.202 8.77271C38.5361 9.47185 37.5336 9.96077 36.1368 10.1966L36.3023 11.1771C37.8384 10.9178 39.0642 10.3592 39.922 9.45849L39.202 8.77271ZM39.2307 6.25877C39.2307 5.53386 39.031 4.87822 38.6228 4.31131L37.8158 4.89232C38.0933 5.27768 38.2363 5.72668 38.2363 6.25877H39.2307ZM38.6228 4.31131C38.2388 3.77803 37.7717 3.36185 37.2202 3.07511L36.7615 3.95733C37.1623 4.16577 37.5141 4.47332 37.8158 4.89232L38.6228 4.31131ZM37.2277 3.07905C36.7201 2.80412 36.1303 2.59948 35.4656 2.45849L35.2593 3.43122C35.8517 3.55687 36.3474 3.73314 36.7541 3.95339L37.2277 3.07905ZM35.4831 2.46251C34.8596 2.30665 34.3184 2.20526 33.8648 2.16403L33.7748 3.15431C34.1592 3.18926 34.6464 3.27833 35.2419 3.42719L35.4831 2.46251ZM33.8648 2.16403C33.4324 2.12471 33.0173 2.10485 32.6199 2.10485V3.09922C32.9843 3.09922 33.3692 3.11744 33.7748 3.15431L33.8648 2.16403ZM32.6199 2.10485C31.4674 2.10485 30.4527 2.21207 29.5827 2.43461L29.8292 3.39796C30.5972 3.2015 31.5251 3.09922 32.6199 3.09922V2.10485ZM29.5933 2.43202C28.7486 2.62846 28.0613 2.88398 27.5689 3.2197L28.1291 4.04128C28.4747 3.80564 29.0254 3.58502 29.8186 3.40055L29.5933 2.43202ZM27.5821 3.21103C27.1087 3.51227 26.7221 3.88491 26.4323 4.33085L27.266 4.87277C27.4713 4.5569 27.7513 4.28198 28.1159 4.04995L27.5821 3.21103ZM26.4323 4.33085C26.1739 4.72836 25.9843 5.1005 25.9076 5.43277L26.8765 5.65636C26.9141 5.49344 27.0292 5.23709 27.266 4.87277L26.4323 4.33085ZM25.9006 5.46897C25.8587 5.74128 25.8377 6.01414 25.8377 6.28734H26.8321C26.8321 6.06536 26.8492 5.84304 26.8834 5.62017L25.9006 5.46897ZM25.8377 6.28734C25.8377 7.09869 26.0821 7.81534 26.5839 8.40829L27.3429 7.76599C27.0067 7.36858 26.8321 6.88535 26.8321 6.28734H25.8377ZM26.591 8.41656C27.0923 8.98328 27.731 9.39085 28.4917 9.64441L28.8062 8.70106C28.1955 8.49753 27.7106 8.18137 27.3358 7.75772L26.591 8.41656ZM28.4955 9.64567C29.2219 9.88124 29.915 10.0501 30.5742 10.15L30.7232 9.16682C30.1254 9.07625 29.4854 8.92133 28.8023 8.6998L28.4955 9.64567ZM30.5764 10.1503C31.2476 10.249 31.9193 10.2984 32.5914 10.2984V9.30405C31.9683 9.30405 31.3449 9.25824 30.721 9.1665L30.5764 10.1503ZM32.5914 10.2984C33.8267 10.2984 34.9323 10.1613 35.9016 9.87858L35.6232 8.92398C34.7642 9.17453 33.7557 9.30405 32.5914 9.30405V10.2984ZM35.908 9.87669C36.8644 9.58389 37.6188 9.23542 38.1157 8.80624L37.4658 8.05368C37.1248 8.34823 36.5269 8.6473 35.6169 8.92587L35.908 9.87669ZM38.1252 8.79785C38.861 8.12894 39.2307 7.26995 39.2307 6.25877H38.2363C38.2363 6.99979 37.9775 7.58825 37.4563 8.06207L38.1252 8.79785ZM39.9449 15.572C39.9449 14.6338 39.6349 13.8155 39.0113 13.1473L38.2844 13.8258C38.7273 14.3003 38.9506 14.8724 38.9506 15.572H39.9449ZM39.0113 13.1473C38.4061 12.4989 37.6252 12.0555 36.6904 11.8063L36.4342 12.7671C37.2136 12.9749 37.823 13.3315 38.2844 13.8258L39.0113 13.1473ZM36.7032 11.8099C35.8466 11.5568 35.0753 11.3876 34.3921 11.3072L34.2759 12.2948C34.8878 12.3668 35.602 12.5214 36.4215 12.7635L36.7032 11.8099ZM34.4085 11.3094C33.7581 11.2109 33.1331 11.161 32.5342 11.161V12.1554C33.0781 12.1554 33.653 12.2007 34.2595 12.2926L34.4085 11.3094ZM32.5342 11.161C30.1739 11.161 28.3005 11.5166 26.9717 12.2848L27.4694 13.1456C28.5784 12.5045 30.2474 12.1554 32.5342 12.1554V11.161ZM26.9873 12.2761C26.32 12.6306 25.7919 13.0809 25.4317 13.638C25.0697 14.198 24.895 14.8389 24.895 15.5435H25.8893C25.8893 15.01 26.0193 14.5606 26.2668 14.1778C26.5161 13.7922 26.9021 13.4473 27.4538 13.1543L26.9873 12.2761ZM24.895 15.5435C24.895 16.8419 25.6028 17.9125 26.8575 18.7558L27.4122 17.9305C26.3433 17.2121 25.8893 16.4162 25.8893 15.5435H24.895ZM26.8698 18.7638C28.3592 19.7024 30.21 20.1545 32.3914 20.1545V19.1601C30.3446 19.1601 28.691 18.7361 27.3999 17.9225L26.8698 18.7638ZM32.3914 20.1545C34.5337 20.1545 36.3014 19.805 37.6575 19.0653L37.1813 18.1924C36.0234 18.8239 34.439 19.1601 32.3914 19.1601V20.1545ZM37.6634 19.062C39.1321 18.2346 39.9449 17.0692 39.9449 15.572H38.9506C38.9506 16.627 38.4111 17.4994 37.1753 18.1957L37.6634 19.062Z" fill="url(#paint1_linear_284_61)"/>
<defs>
<radialGradient id="paint0_radial_284_61" cx="0" cy="0" r="1" gradientUnits="userSpaceOnUse" gradientTransform="translate(21 10.5) rotate(90) scale(18.5 22)">
<stop stop-color="white"/>
<stop offset="1" stop-color="white" stop-opacity="0.64"/>
</radialGradient>
<linearGradient id="paint1_linear_284_61" x1="22.2683" y1="-11.8858" x2="46.8743" y2="-0.312959" gradientUnits="userSpaceOnUse">
<stop stop-color="white"/>
<stop offset="1" stop-color="white" stop-opacity="0.94"/>
</linearGradient>
</defs>
</svg>
