<svg width="41" height="22" viewBox="0 0 41 22" fill="none" xmlns="http://www.w3.org/2000/svg">
<path d="M19.9713 11.1725C19.9713 12.8295 19.6285 14.3912 18.9429 15.8577C18.2572 17.3242 17.2764 18.5336 16.0003 19.4859C14.3624 20.7048 12.4674 21.3143 10.3152 21.3143C7.55364 21.3143 5.29675 20.3334 3.54456 18.3717C1.79238 16.391 0.916283 13.9817 0.916283 11.1439C0.916283 8.82039 1.50669 6.773 2.68752 5.00177C2.95415 4.62086 3.27793 4.23995 3.65884 3.85904C4.03975 3.47813 4.54445 3.0496 5.17296 2.57346C5.8205 2.09733 6.61089 1.71642 7.54412 1.43073C8.47735 1.12601 9.46772 0.973642 10.5152 0.973642C10.9914 0.973642 11.4865 1.02126 12.0008 1.11648C12.534 1.19267 13.153 1.35455 13.8577 1.60214C14.5814 1.83069 15.3052 2.2116 16.0289 2.74487C16.7717 3.27815 17.4192 3.93522 17.9715 4.71608C19.3047 6.52541 19.9713 8.67755 19.9713 11.1725ZM17.8858 11.0582C17.8858 8.20141 17.0193 6.0207 15.2861 4.51611C13.9148 3.33529 12.296 2.74487 10.4295 2.74487C9.15347 2.74487 7.94408 3.0496 6.80135 3.65906C5.48721 4.36374 4.51588 5.3922 3.88738 6.74443C3.27793 8.09666 2.9732 9.59174 2.9732 11.2297C2.9732 12.4676 3.13509 13.5532 3.45886 14.4864C3.97309 16.0291 4.84918 17.2576 6.08714 18.1717C7.34414 19.0859 8.78208 19.543 10.4009 19.543C11.4865 19.543 12.4769 19.343 13.372 18.9431C14.5719 18.4289 15.6194 17.5337 16.5146 16.2577C17.4287 14.9816 17.8858 13.2485 17.8858 11.0582ZM40.3833 1.34503V2.77344C38.6883 3.99236 37.0123 5.8112 35.3553 8.22998C32.3081 12.7247 30.7844 16.9814 30.7844 21H28.6418C28.6418 19.762 28.8132 18.4574 29.156 17.0861C29.5179 15.6958 29.9655 14.4198 30.4987 13.258C31.051 12.0772 31.5177 11.1439 31.8986 10.4583C32.2795 9.75362 32.6318 9.14417 32.9556 8.62994C34.0983 6.91584 35.6315 5.05891 37.5551 3.05913H23.1852V1.34503H40.3833Z" fill="url(#paint0_radial_284_54)"/>
<path d="M18.9429 15.8577L18.4925 15.6471L18.4925 15.6471L18.9429 15.8577ZM16.0003 19.4859L16.2972 19.8847L16.2977 19.8843L16.0003 19.4859ZM3.54456 18.3717L3.17217 18.7011L3.17376 18.7029L3.54456 18.3717ZM2.68752 5.00177L2.2801 4.71658L2.27383 4.72598L2.68752 5.00177ZM3.65884 3.85904L3.30727 3.50747L3.30727 3.50747L3.65884 3.85904ZM5.17296 2.57346L4.8784 2.17287L4.87273 2.17716L5.17296 2.57346ZM7.54412 1.43073L7.68968 1.90622L7.69845 1.90336L7.54412 1.43073ZM12.0008 1.11648L11.9102 1.60536L11.9203 1.60722L11.9305 1.60867L12.0008 1.11648ZM13.8577 1.60214L13.6929 2.07122L13.7004 2.07386L13.708 2.07625L13.8577 1.60214ZM16.0289 2.74487L15.7339 3.14517L15.7389 3.14875L16.0289 2.74487ZM17.9715 4.71608L17.5656 5.00325L17.5713 5.01101L17.9715 4.71608ZM15.2861 4.51611L15.6121 4.14066L15.6105 4.13936L15.2861 4.51611ZM6.80135 3.65906L6.56738 3.22036L6.56639 3.22089L6.80135 3.65906ZM3.88738 6.74443L3.43649 6.53486L3.43411 6.54014L3.88738 6.74443ZM3.45886 14.4864L3.93057 14.3292L3.92858 14.3235L3.45886 14.4864ZM6.08714 18.1717L5.79178 18.5717L5.79471 18.5738L6.08714 18.1717ZM13.372 18.9431L13.1762 18.486L13.1692 18.4891L13.372 18.9431ZM16.5146 16.2577L16.1104 15.9681L16.1075 15.9721L16.5146 16.2577ZM19.4741 11.1725C19.4741 12.7585 19.1465 14.2481 18.4925 15.6471L19.3933 16.0683C20.1105 14.5343 20.4685 12.9005 20.4685 11.1725H19.4741ZM18.4925 15.6471C17.841 17.0406 16.9122 18.185 15.703 19.0874L16.2977 19.8843C17.6406 18.8822 18.6735 17.6078 19.3933 16.0683L18.4925 15.6471ZM15.7035 19.087C14.1562 20.2385 12.3666 20.8171 10.3152 20.8171V21.8114C12.5682 21.8114 14.5686 21.1711 16.2972 19.8847L15.7035 19.087ZM10.3152 20.8171C7.68723 20.8171 5.56802 19.8908 3.91537 18.0405L3.17376 18.7029C5.02548 20.776 7.42006 21.8114 10.3152 21.8114V20.8171ZM3.91695 18.0423C2.25134 16.1594 1.41347 13.87 1.41347 11.1439H0.419097C0.419097 14.0935 1.33342 16.6225 3.17217 18.7011L3.91695 18.0423ZM1.41347 11.1439C1.41347 8.90918 1.9798 6.95965 3.1012 5.27756L2.27383 4.72598C1.03359 6.58635 0.419097 8.73161 0.419097 11.1439H1.41347ZM3.09483 5.28689C3.34249 4.93308 3.64683 4.57417 4.0104 4.2106L3.30727 3.50747C2.90902 3.90573 2.56582 4.30863 2.28021 4.71665L3.09483 5.28689ZM4.0104 4.2106C4.36974 3.85126 4.85531 3.43785 5.47318 2.96977L4.87273 2.17716C4.2336 2.66135 3.70975 3.105 3.30727 3.50747L4.0104 4.2106ZM5.46748 2.97402C6.06145 2.53728 6.79886 2.17884 7.68966 1.90614L7.39859 0.955325C6.42293 1.254 5.57956 1.65737 4.87843 2.17291L5.46748 2.97402ZM7.69845 1.90336C8.57861 1.61596 9.51662 1.47083 10.5152 1.47083V0.476457C9.41882 0.476457 8.37609 0.636051 7.3898 0.958106L7.69845 1.90336ZM10.5152 1.47083C10.9582 1.47083 11.423 1.51512 11.9102 1.60536L12.0913 0.62761C11.5501 0.527387 11.0245 0.476457 10.5152 0.476457V1.47083ZM11.9305 1.60867C12.4219 1.67888 13.0081 1.8306 13.6929 2.07122L14.0225 1.13307C13.298 0.878503 12.6462 0.706452 12.0711 0.624295L11.9305 1.60867ZM13.708 2.07625C14.371 2.28562 15.0463 2.63847 15.734 3.14514L16.3238 2.34461C15.564 1.78473 14.7919 1.37576 14.0074 1.12804L13.708 2.07625ZM15.7389 3.14875C16.4348 3.64835 17.0437 4.26533 17.5656 5.00319L18.3775 4.42898C17.7947 3.60511 17.1085 2.90795 16.3189 2.341L15.7389 3.14875ZM17.5713 5.01101C18.8346 6.72551 19.4741 8.77141 19.4741 11.1725H20.4685C20.4685 8.5837 19.7749 6.32531 18.3718 4.42115L17.5713 5.01101ZM18.383 11.0582C18.383 8.09553 17.4798 5.76212 15.6121 4.14066L14.9602 4.89155C16.5587 6.27928 17.3887 8.3073 17.3887 11.0582H18.383ZM15.6105 4.13936C14.146 2.87821 12.411 2.24769 10.4295 2.24769V3.24206C12.181 3.24206 13.6837 3.79236 14.9617 4.89286L15.6105 4.13936ZM10.4295 2.24769C9.0706 2.24769 7.78099 2.5731 6.56738 3.22037L7.03532 4.09775C8.10716 3.5261 9.23634 3.24206 10.4295 3.24206V2.24769ZM6.56639 3.22089C5.15744 3.97642 4.11036 5.08509 3.43652 6.53488L4.33825 6.95399C4.92141 5.69931 5.81697 4.75107 7.0363 4.09722L6.56639 3.22089ZM3.43411 6.54014C2.79281 7.96301 2.47601 9.5287 2.47601 11.2297H3.47038C3.47038 9.65477 3.76304 8.23032 4.34066 6.94873L3.43411 6.54014ZM2.47601 11.2297C2.47601 12.5096 2.64324 13.6524 2.98914 14.6494L3.92858 14.3235C3.62693 13.454 3.47038 12.4256 3.47038 11.2297H2.47601ZM2.98719 14.6437C3.53185 16.2776 4.46666 17.5931 5.79179 18.5717L6.38249 17.7718C5.23171 16.922 4.41432 15.7806 3.93053 14.3292L2.98719 14.6437ZM5.79471 18.5738C7.14039 19.5525 8.68166 20.0402 10.4009 20.0402V19.0458C8.8825 19.0458 7.5479 18.6193 6.37957 17.7696L5.79471 18.5738ZM10.4009 20.0402C11.5489 20.0402 12.6094 19.8284 13.5749 19.397L13.1692 18.4891C12.3444 18.8577 11.4242 19.0458 10.4009 19.0458V20.0402ZM13.5679 19.4001C14.868 18.8429 15.9838 17.8801 16.9216 16.5432L16.1075 15.9721C15.2551 17.1873 14.2759 18.0148 13.1762 18.4861L13.5679 19.4001ZM16.9187 16.5472C17.9131 15.1592 18.383 13.3124 18.383 11.0582H17.3887C17.3887 13.1845 16.9444 14.804 16.1104 15.9681L16.9187 16.5472ZM40.3833 1.34503H40.8805V0.847844H40.3833V1.34503ZM40.3833 2.77344L40.6736 3.1771L40.8805 3.0283V2.77344H40.3833ZM35.3553 8.22998L34.9452 7.949L34.9438 7.95098L35.3553 8.22998ZM30.7844 21V21.4972H31.2816V21H30.7844ZM28.6418 21H28.1446V21.4972H28.6418V21ZM29.156 17.0861L28.6748 16.9609L28.6737 16.9656L29.156 17.0861ZM30.4987 13.258L30.0484 13.0473L30.0469 13.0506L30.4987 13.258ZM31.8986 10.4583L32.3332 10.6998L32.3359 10.6947L31.8986 10.4583ZM32.9556 8.62994L32.5418 8.35406L32.5349 8.36503L32.9556 8.62994ZM37.5551 3.05913L37.9134 3.4038L38.7232 2.56194H37.5551V3.05913ZM23.1852 3.05913H22.6881V3.55631H23.1852V3.05913ZM23.1852 1.34503V0.847844H22.6881V1.34503H23.1852ZM39.8862 1.34503V2.77344H40.8805V1.34503H39.8862ZM40.0931 2.36979C38.3365 3.63293 36.6225 5.50041 34.9452 7.949L35.7655 8.51097C37.402 6.122 39.0401 4.35178 40.6736 3.1771L40.0931 2.36979ZM34.9438 7.95098C31.8599 12.4998 30.2872 16.8525 30.2872 21H31.2816C31.2816 17.1103 32.7562 12.9497 35.7669 8.50898L34.9438 7.95098ZM30.7844 20.5028H28.6418V21.4972H30.7844V20.5028ZM29.139 21C29.139 19.808 29.304 18.544 29.6384 17.2067L28.6737 16.9656C28.3224 18.3708 28.1446 19.7161 28.1446 21H29.139ZM29.6372 17.2114C29.9926 15.8459 30.4308 14.5977 30.9506 13.4654L30.0469 13.0506C29.5001 14.2419 29.0432 15.5458 28.6749 16.9609L29.6372 17.2114ZM30.9491 13.4686C31.4993 12.2924 31.9603 11.3709 32.3332 10.6998L31.464 10.2169C31.075 10.917 30.6028 11.8619 30.0484 13.0473L30.9491 13.4686ZM32.3359 10.6947C32.7132 9.99688 33.0599 9.39738 33.3763 8.89485L32.5349 8.36503C32.2037 8.89095 31.8458 9.51037 31.4612 10.2219L32.3359 10.6947ZM33.3693 8.90573C34.4911 7.22295 36.0037 5.3891 37.9134 3.4038L37.1968 2.71445C35.2592 4.72871 33.7055 6.60873 32.5419 8.35415L33.3693 8.90573ZM37.5551 2.56194H23.1852V3.55631H37.5551V2.56194ZM23.6824 3.05913V1.34503H22.6881V3.05913H23.6824ZM23.1852 1.84222H40.3833V0.847844H23.1852V1.84222Z" fill="url(#paint1_linear_284_54)"/>
<defs>
<radialGradient id="paint0_radial_284_54" cx="0" cy="0" r="1" gradientUnits="userSpaceOnUse" gradientTransform="translate(21 10.5) rotate(90) scale(18.5 21)">
<stop stop-color="white"/>
<stop offset="1" stop-color="white" stop-opacity="0.64"/>
</radialGradient>
<linearGradient id="paint1_linear_284_54" x1="22.2106" y1="-11.8858" x2="46.0824" y2="-1.16865" gradientUnits="userSpaceOnUse">
<stop stop-color="white"/>
<stop offset="1" stop-color="white" stop-opacity="0.94"/>
</linearGradient>
</defs>
</svg>
