<svg width="41" height="22" viewBox="0 0 41 22" fill="none" xmlns="http://www.w3.org/2000/svg">
<path d="M19.3854 11.1725C19.3854 12.8295 19.0426 14.3912 18.357 15.8577C17.6713 17.3242 16.6905 18.5336 15.4145 19.4859C13.7765 20.7048 11.8815 21.3143 9.72937 21.3143C6.96777 21.3143 4.71088 20.3334 2.95869 18.3717C1.2065 16.391 0.33041 13.9817 0.33041 11.1439C0.33041 8.82039 0.920821 6.773 2.10164 5.00177C2.36828 4.62086 2.69205 4.23995 3.07296 3.85904C3.45387 3.47813 3.95858 3.0496 4.58708 2.57346C5.23463 2.09733 6.02502 1.71642 6.95825 1.43073C7.89148 1.12601 8.88185 0.973642 9.92935 0.973642C10.4055 0.973642 10.9007 1.02126 11.4149 1.11648C11.9482 1.19267 12.5672 1.35455 13.2718 1.60214C13.9956 1.83069 14.7193 2.2116 15.443 2.74487C16.1858 3.27815 16.8333 3.93522 17.3857 4.71608C18.7189 6.52541 19.3854 8.67755 19.3854 11.1725ZM17.3 11.0582C17.3 8.20141 16.4334 6.0207 14.7003 4.51611C13.329 3.33529 11.7101 2.74487 9.84364 2.74487C8.56759 2.74487 7.3582 3.0496 6.21547 3.65906C4.90133 4.36374 3.93001 5.3922 3.30151 6.74443C2.69205 8.09666 2.38733 9.59174 2.38733 11.2297C2.38733 12.4676 2.54921 13.5532 2.87299 14.4864C3.38722 16.0291 4.26331 17.2576 5.50127 18.1717C6.75827 19.0859 8.19621 19.543 9.81508 19.543C10.9007 19.543 11.891 19.343 12.7862 18.9431C13.986 18.4289 15.0335 17.5337 15.9287 16.2577C16.8429 14.9816 17.3 13.2485 17.3 11.0582ZM39.5408 2.94485H26.1709L25.7709 9.62983C27.3326 7.99191 29.5705 7.17296 32.4844 7.17296C34.37 7.17296 35.9126 7.50625 37.1125 8.17285C38.3314 8.83944 39.2456 9.62983 39.8551 10.544C40.5597 11.5534 40.9121 12.7438 40.9121 14.115C40.9121 15.334 40.5883 16.4767 39.9408 17.5432C39.3313 18.5527 38.3695 19.4383 37.0554 20.2001C35.7412 20.9429 34.0557 21.3143 31.9988 21.3143C29.5229 21.3143 27.4564 20.7524 25.7995 19.6287C24.5044 18.7336 23.5807 17.5432 23.0283 16.0577L24.971 15.5149C25.3519 16.829 26.1232 17.848 27.285 18.5717C28.4658 19.2954 29.9704 19.6573 31.7988 19.6573C32.9225 19.6573 33.9986 19.4859 35.027 19.1431C36.0745 18.8002 36.9982 18.1908 37.7981 17.3147C38.5981 16.4386 38.998 15.3625 38.998 14.0865C38.998 13.1532 38.7695 12.3343 38.3124 11.6296C37.8743 10.9059 37.2934 10.3536 36.5697 9.97265C35.865 9.59174 35.1318 9.30605 34.37 9.1156C33.6272 8.92514 32.8844 8.82992 32.1416 8.82992C29.9704 8.82992 28.1897 9.45842 26.7994 10.7154C26.4946 10.9821 26.1042 11.4201 25.6281 12.0296H23.8283L24.4568 1.34503H39.5408V2.94485Z" fill="url(#paint0_radial_284_40)"/>
<path d="M18.357 15.8577L17.9066 15.6471L17.9066 15.6471L18.357 15.8577ZM15.4145 19.4859L15.7113 19.8847L15.7118 19.8843L15.4145 19.4859ZM2.95869 18.3717L2.5863 18.7011L2.58789 18.7029L2.95869 18.3717ZM2.10164 5.00177L1.69423 4.71658L1.68796 4.72598L2.10164 5.00177ZM3.07296 3.85904L2.7214 3.50747L2.7214 3.50747L3.07296 3.85904ZM4.58708 2.57346L4.29252 2.17287L4.28685 2.17716L4.58708 2.57346ZM6.95825 1.43073L7.10381 1.90622L7.11258 1.90336L6.95825 1.43073ZM11.4149 1.11648L11.3244 1.60536L11.3344 1.60722L11.3446 1.60867L11.4149 1.11648ZM13.2718 1.60214L13.107 2.07122L13.1145 2.07386L13.1221 2.07625L13.2718 1.60214ZM15.443 2.74487L15.1481 3.14517L15.1531 3.14875L15.443 2.74487ZM17.3857 4.71608L16.9797 5.00325L16.9854 5.01101L17.3857 4.71608ZM14.7003 4.51611L15.0262 4.14066L15.0247 4.13936L14.7003 4.51611ZM6.21547 3.65906L5.9815 3.22036L5.98052 3.22089L6.21547 3.65906ZM3.30151 6.74443L2.85061 6.53486L2.84824 6.54014L3.30151 6.74443ZM2.87299 14.4864L3.34469 14.3292L3.34271 14.3235L2.87299 14.4864ZM5.50127 18.1717L5.20591 18.5717L5.20884 18.5738L5.50127 18.1717ZM12.7862 18.9431L12.5903 18.486L12.5834 18.4891L12.7862 18.9431ZM15.9287 16.2577L15.5245 15.9681L15.5217 15.9721L15.9287 16.2577ZM18.8883 11.1725C18.8883 12.7585 18.5607 14.2481 17.9066 15.6471L18.8074 16.0683C19.5246 14.5343 19.8826 12.9005 19.8826 11.1725H18.8883ZM17.9066 15.6471C17.2551 17.0406 16.3263 18.185 15.1171 19.0874L15.7118 19.8843C17.0547 18.8822 18.0876 17.6078 18.8074 16.0683L17.9066 15.6471ZM15.1176 19.087C13.5703 20.2385 11.7807 20.8171 9.72937 20.8171V21.8114C11.9823 21.8114 13.9828 21.1711 15.7113 19.8847L15.1176 19.087ZM9.72937 20.8171C7.10136 20.8171 4.98215 19.8908 3.3295 18.0405L2.58789 18.7029C4.43961 20.776 6.83419 21.8114 9.72937 21.8114V20.8171ZM3.33108 18.0423C1.66546 16.1594 0.827595 13.87 0.827595 11.1439H-0.166775C-0.166775 14.0935 0.747544 16.6225 2.5863 18.7011L3.33108 18.0423ZM0.827595 11.1439C0.827595 8.90918 1.39393 6.95965 2.51533 5.27756L1.68796 4.72598C0.447713 6.58635 -0.166775 8.73161 -0.166775 11.1439H0.827595ZM2.50895 5.28689C2.75661 4.93308 3.06096 4.57417 3.42453 4.2106L2.7214 3.50747C2.32315 3.90573 1.97995 4.30863 1.69433 4.71665L2.50895 5.28689ZM3.42453 4.2106C3.78387 3.85126 4.26944 3.43785 4.88731 2.96977L4.28685 2.17716C3.64772 2.66135 3.12388 3.105 2.7214 3.50747L3.42453 4.2106ZM4.88161 2.97402C5.47558 2.53728 6.21298 2.17884 7.10378 1.90614L6.81272 0.955325C5.83705 1.254 4.99368 1.65737 4.29255 2.17291L4.88161 2.97402ZM7.11258 1.90336C7.99274 1.61596 8.93074 1.47083 9.92935 1.47083V0.476457C8.83295 0.476457 7.79022 0.636051 6.80392 0.958106L7.11258 1.90336ZM9.92935 1.47083C10.3723 1.47083 10.8371 1.51512 11.3244 1.60536L11.5054 0.62761C10.9642 0.527387 10.4387 0.476457 9.92935 0.476457V1.47083ZM11.3446 1.60867C11.836 1.67888 12.4222 1.8306 13.107 2.07122L13.4366 1.13307C12.7121 0.878503 12.0603 0.706452 11.4852 0.624295L11.3446 1.60867ZM13.1221 2.07625C13.7851 2.28562 14.4605 2.63847 15.1481 3.14514L15.738 2.34461C14.9781 1.78473 14.206 1.37576 13.4216 1.12804L13.1221 2.07625ZM15.1531 3.14875C15.8489 3.64835 16.4579 4.26533 16.9798 5.00319L17.7916 4.42898C17.2088 3.60511 16.5227 2.90795 15.733 2.341L15.1531 3.14875ZM16.9854 5.01101C18.2487 6.72551 18.8883 8.77141 18.8883 11.1725H19.8826C19.8826 8.5837 19.189 6.32531 17.7859 4.42115L16.9854 5.01101ZM17.7971 11.0582C17.7971 8.09553 16.8939 5.76212 15.0262 4.14066L14.3743 4.89155C15.9728 6.27928 16.8028 8.3073 16.8028 11.0582H17.7971ZM15.0247 4.13936C13.5601 2.87821 11.8251 2.24769 9.84364 2.24769V3.24206C11.5951 3.24206 13.0978 3.79236 14.3758 4.89286L15.0247 4.13936ZM9.84364 2.24769C8.48473 2.24769 7.19512 2.5731 5.9815 3.22037L6.44944 4.09775C7.52129 3.5261 8.65046 3.24206 9.84364 3.24206V2.24769ZM5.98052 3.22089C4.57157 3.97642 3.52449 5.08509 2.85065 6.53488L3.75238 6.95399C4.33554 5.69931 5.2311 4.75107 6.45043 4.09722L5.98052 3.22089ZM2.84824 6.54014C2.20694 7.96301 1.89014 9.5287 1.89014 11.2297H2.88451C2.88451 9.65477 3.17717 8.23032 3.75478 6.94873L2.84824 6.54014ZM1.89014 11.2297C1.89014 12.5096 2.05737 13.6524 2.40327 14.6494L3.34271 14.3235C3.04105 13.454 2.88451 12.4256 2.88451 11.2297H1.89014ZM2.40131 14.6437C2.94598 16.2776 3.88078 17.5931 5.20592 18.5717L5.79662 17.7718C4.64583 16.922 3.82845 15.7806 3.34466 14.3292L2.40131 14.6437ZM5.20884 18.5738C6.55451 19.5525 8.09579 20.0402 9.81508 20.0402V19.0458C8.29662 19.0458 6.96203 18.6193 5.7937 17.7696L5.20884 18.5738ZM9.81508 20.0402C10.963 20.0402 12.0235 19.8284 12.989 19.397L12.5834 18.4891C11.7586 18.8577 10.8383 19.0458 9.81508 19.0458V20.0402ZM12.982 19.4001C14.2821 18.8429 15.3979 17.8801 16.3357 16.5432L15.5217 15.9721C14.6692 17.1873 13.69 18.0148 12.5903 18.4861L12.982 19.4001ZM16.3329 16.5472C17.3272 15.1592 17.7971 13.3124 17.7971 11.0582H16.8028C16.8028 13.1845 16.3585 14.804 15.5245 15.9681L16.3329 16.5472ZM39.5408 2.94485V3.44204H40.038V2.94485H39.5408ZM26.1709 2.94485V2.44767H25.7025L25.6746 2.91516L26.1709 2.94485ZM25.7709 9.62983L25.2746 9.60013L25.1935 10.9559L26.1307 9.97292L25.7709 9.62983ZM37.1125 8.17285L36.871 8.60747L36.8739 8.60906L37.1125 8.17285ZM39.8551 10.544L39.4413 10.8199L39.4474 10.8286L39.8551 10.544ZM39.9408 17.5432L39.5158 17.2852L39.5151 17.2863L39.9408 17.5432ZM37.0554 20.2001L37.3 20.6329L37.3047 20.6302L37.0554 20.2001ZM25.7995 19.6287L25.5168 20.0377L25.5204 20.0402L25.7995 19.6287ZM23.0283 16.0577L22.8946 15.5788L22.374 15.7243L22.5623 16.231L23.0283 16.0577ZM24.971 15.5149L25.4485 15.3765L25.3114 14.9035L24.8372 15.036L24.971 15.5149ZM27.285 18.5717L27.0221 18.9937L27.0252 18.9956L27.285 18.5717ZM35.027 19.1431L34.8724 18.6705L34.8698 18.6714L35.027 19.1431ZM38.3124 11.6296L37.887 11.8871L37.891 11.8937L37.8953 11.9002L38.3124 11.6296ZM36.5697 9.97265L36.3333 10.4101L36.3381 10.4126L36.5697 9.97265ZM34.37 9.1156L34.2465 9.59721L34.2494 9.59794L34.37 9.1156ZM26.7994 10.7154L27.1268 11.0896L27.1328 11.0842L26.7994 10.7154ZM25.6281 12.0296V12.5267H25.8706L26.0199 12.3357L25.6281 12.0296ZM23.8283 12.0296L23.3319 12.0004L23.301 12.5267H23.8283V12.0296ZM24.4568 1.34503V0.847844H23.988L23.9604 1.31583L24.4568 1.34503ZM39.5408 1.34503H40.038V0.847844H39.5408V1.34503ZM39.5408 2.44767H26.1709V3.44204H39.5408V2.44767ZM25.6746 2.91516L25.2746 9.60013L26.2672 9.65952L26.6672 2.97455L25.6746 2.91516ZM26.1307 9.97292C27.5736 8.45971 29.6652 7.67014 32.4844 7.67014V6.67577C29.4757 6.67577 27.0917 7.52412 25.4111 9.28673L26.1307 9.97292ZM32.4844 7.67014C34.3156 7.67014 35.7675 7.99439 36.8711 8.60746L37.354 7.73823C36.0578 7.01811 34.4243 6.67577 32.4844 6.67577V7.67014ZM36.8739 8.60906C38.0406 9.24707 38.8867 9.98781 39.4414 10.8198L40.2687 10.2682C39.6045 9.27184 38.6223 8.43181 37.3511 7.73663L36.8739 8.60906ZM39.4474 10.8286C40.0872 11.7452 40.4149 12.8335 40.4149 14.115H41.4093C41.4093 12.6541 41.0322 11.3617 40.2627 10.2594L39.4474 10.8286ZM40.4149 14.115C40.4149 15.2407 40.1173 16.2945 39.5158 17.2852L40.3658 17.8013C41.0593 16.6589 41.4093 15.4272 41.4093 14.115H40.4149ZM39.5151 17.2863C38.9596 18.2063 38.0681 19.0383 36.806 19.77L37.3047 20.6302C38.6709 19.8382 39.703 18.899 40.3664 17.8002L39.5151 17.2863ZM36.8107 19.7673C35.5934 20.4553 33.9997 20.8171 31.9988 20.8171V21.8114C34.1117 21.8114 35.889 21.4304 37.3 20.6329L36.8107 19.7673ZM31.9988 20.8171C29.5986 20.8171 27.6355 20.2731 26.0785 19.2172L25.5204 20.0402C27.2774 21.2317 29.4471 21.8114 31.9988 21.8114V20.8171ZM26.0822 19.2197C24.8715 18.3829 24.0114 17.2752 23.4944 15.8844L22.5623 16.231C23.1499 17.8113 24.1373 19.0842 25.5168 20.0377L26.0822 19.2197ZM23.1621 16.5365L25.1048 15.9937L24.8372 15.036L22.8946 15.5788L23.1621 16.5365ZM24.4935 15.6533C24.9085 17.0853 25.7563 18.2052 27.0221 18.9937L27.5479 18.1497C26.4902 17.4908 25.7953 16.5728 25.4485 15.3765L24.4935 15.6533ZM27.0252 18.9956C28.3055 19.7803 29.9074 20.1545 31.7988 20.1545V19.1601C30.0335 19.1601 28.6262 18.8106 27.5448 18.1478L27.0252 18.9956ZM31.7988 20.1545C32.974 20.1545 34.1033 19.9751 35.1842 19.6147L34.8698 18.6714C33.8939 18.9967 32.871 19.1601 31.7988 19.1601V20.1545ZM35.1817 19.6156C36.3168 19.2441 37.3121 18.5844 38.1653 17.6499L37.431 16.9795C36.6843 17.7972 35.8322 18.3564 34.8724 18.6705L35.1817 19.6156ZM38.1653 17.6499C39.0555 16.6749 39.4952 15.4764 39.4952 14.0865H38.5008C38.5008 15.2487 38.1406 16.2023 37.431 16.9795L38.1653 17.6499ZM39.4952 14.0865C39.4952 13.0683 39.2445 12.1531 38.7295 11.359L37.8953 11.9002C38.2944 12.5155 38.5008 13.2382 38.5008 14.0865H39.4952ZM38.7377 11.3722C38.2546 10.5739 37.6078 9.95718 36.8013 9.53268L36.3381 10.4126C36.9791 10.7499 37.4941 11.2379 37.887 11.8871L38.7377 11.3722ZM36.8061 9.53527C36.0656 9.13499 35.2935 8.834 34.4905 8.63326L34.2494 9.59794C34.97 9.77811 35.6644 10.0485 36.3333 10.41L36.8061 9.53527ZM34.4934 8.63399C33.7116 8.43353 32.9274 8.33273 32.1416 8.33273V9.3271C32.8414 9.3271 33.5427 9.41676 34.2465 9.5972L34.4934 8.63399ZM32.1416 8.33273C29.868 8.33273 27.962 8.99402 26.4659 10.3466L27.1328 11.0842C28.4174 9.92281 30.0729 9.3271 32.1416 9.3271V8.33273ZM26.472 10.3413C26.1312 10.6395 25.7177 11.1073 25.2363 11.7235L26.0199 12.3357C26.4907 11.7329 26.8581 11.3247 27.1268 11.0896L26.472 10.3413ZM25.6281 11.5324H23.8283V12.5267H25.6281V11.5324ZM24.3246 12.0588L24.9531 1.37423L23.9604 1.31583L23.3319 12.0004L24.3246 12.0588ZM24.4568 1.84222H39.5408V0.847844H24.4568V1.84222ZM39.0436 1.34503V2.94485H40.038V1.34503H39.0436Z" fill="url(#paint1_linear_284_40)"/>
<defs>
<radialGradient id="paint0_radial_284_40" cx="0" cy="0" r="1" gradientUnits="userSpaceOnUse" gradientTransform="translate(21 10.5) rotate(90) scale(18.5 22)">
<stop stop-color="white"/>
<stop offset="1" stop-color="white" stop-opacity="0.64"/>
</radialGradient>
<linearGradient id="paint1_linear_284_40" x1="22.2683" y1="-11.8858" x2="46.8743" y2="-0.312959" gradientUnits="userSpaceOnUse">
<stop stop-color="white"/>
<stop offset="1" stop-color="white" stop-opacity="0.94"/>
</linearGradient>
</defs>
</svg>
