<svg width="42" height="22" viewBox="0 0 42 22" fill="none" xmlns="http://www.w3.org/2000/svg">
<path d="M19.0786 11.1725C19.0786 12.8295 18.7357 14.3912 18.0501 15.8577C17.3645 17.3242 16.3836 18.5336 15.1076 19.4859C13.4697 20.7048 11.5746 21.3143 9.42248 21.3143C6.66089 21.3143 4.40399 20.3334 2.6518 18.3717C0.899617 16.391 0.0235234 13.9817 0.0235234 11.1439C0.0235234 8.82039 0.613934 6.773 1.79476 5.00177C2.06139 4.62086 2.38517 4.23995 2.76608 3.85904C3.14699 3.47813 3.65169 3.0496 4.2802 2.57346C4.92774 2.09733 5.71813 1.71642 6.65136 1.43073C7.58459 1.12601 8.57496 0.973642 9.62246 0.973642C10.0986 0.973642 10.5938 1.02126 11.108 1.11648C11.6413 1.19267 12.2603 1.35455 12.9649 1.60214C13.6887 1.83069 14.4124 2.2116 15.1361 2.74487C15.8789 3.27815 16.5265 3.93522 17.0788 4.71608C18.412 6.52541 19.0786 8.67755 19.0786 11.1725ZM16.9931 11.0582C16.9931 8.20141 16.1265 6.0207 14.3934 4.51611C13.0221 3.33529 11.4032 2.74487 9.53676 2.74487C8.26071 2.74487 7.05132 3.0496 5.90859 3.65906C4.59445 4.36374 3.62313 5.3922 2.99462 6.74443C2.38517 8.09666 2.08044 9.59174 2.08044 11.2297C2.08044 12.4676 2.24233 13.5532 2.5661 14.4864C3.08033 16.0291 3.95642 17.2576 5.19438 18.1717C6.45138 19.0859 7.88932 19.543 9.50819 19.543C10.5938 19.543 11.5842 19.343 12.4793 18.9431C13.6792 18.4289 14.7267 17.5337 15.6218 16.2577C16.536 14.9816 16.9931 13.2485 16.9931 11.0582ZM41.5904 15.7149H37.3337V21H35.4196V15.7149H22.9924V14.0293L35.2196 1.14505H37.3337V14.0293H41.5904V15.7149ZM35.4196 14.0293V3.28767L25.2779 14.0293H35.4196Z" fill="url(#paint0_radial_284_33)"/>
<path d="M18.0501 15.8577L17.5997 15.6471L17.5997 15.6471L18.0501 15.8577ZM15.1076 19.4859L15.4044 19.8847L15.4049 19.8843L15.1076 19.4859ZM2.6518 18.3717L2.27941 18.7011L2.281 18.7029L2.6518 18.3717ZM1.79476 5.00177L1.38734 4.71658L1.38107 4.72598L1.79476 5.00177ZM2.76608 3.85904L2.41451 3.50747L2.41451 3.50747L2.76608 3.85904ZM4.2802 2.57346L3.98564 2.17287L3.97997 2.17716L4.2802 2.57346ZM6.65136 1.43073L6.79692 1.90622L6.80569 1.90336L6.65136 1.43073ZM11.108 1.11648L11.0175 1.60536L11.0276 1.60722L11.0377 1.60867L11.108 1.11648ZM12.9649 1.60214L12.8001 2.07122L12.8076 2.07386L12.8152 2.07625L12.9649 1.60214ZM15.1361 2.74487L14.8412 3.14517L14.8462 3.14875L15.1361 2.74487ZM17.0788 4.71608L16.6728 5.00325L16.6785 5.01101L17.0788 4.71608ZM14.3934 4.51611L14.7193 4.14066L14.7178 4.13936L14.3934 4.51611ZM5.90859 3.65906L5.67462 3.22036L5.67363 3.22089L5.90859 3.65906ZM2.99462 6.74443L2.54373 6.53486L2.54135 6.54014L2.99462 6.74443ZM2.5661 14.4864L3.03781 14.3292L3.03582 14.3235L2.5661 14.4864ZM5.19438 18.1717L4.89902 18.5717L4.90195 18.5738L5.19438 18.1717ZM12.4793 18.9431L12.2834 18.486L12.2765 18.4891L12.4793 18.9431ZM15.6218 16.2577L15.2176 15.9681L15.2148 15.9721L15.6218 16.2577ZM18.5814 11.1725C18.5814 12.7585 18.2538 14.2481 17.5997 15.6471L18.5005 16.0683C19.2177 14.5343 19.5757 12.9005 19.5757 11.1725H18.5814ZM17.5997 15.6471C16.9482 17.0406 16.0194 18.185 14.8102 19.0874L15.4049 19.8843C16.7478 18.8822 17.7807 17.6078 18.5005 16.0683L17.5997 15.6471ZM14.8107 19.087C13.2634 20.2385 11.4739 20.8171 9.42248 20.8171V21.8114C11.6754 21.8114 13.6759 21.1711 15.4044 19.8847L14.8107 19.087ZM9.42248 20.8171C6.79447 20.8171 4.67526 19.8908 3.02261 18.0405L2.281 18.7029C4.13272 20.776 6.5273 21.8114 9.42248 21.8114V20.8171ZM3.02419 18.0423C1.35858 16.1594 0.520709 13.87 0.520709 11.1439H-0.473662C-0.473662 14.0935 0.440657 16.6225 2.27941 18.7011L3.02419 18.0423ZM0.520709 11.1439C0.520709 8.90918 1.08704 6.95965 2.20844 5.27756L1.38107 4.72598C0.140826 6.58635 -0.473662 8.73161 -0.473662 11.1439H0.520709ZM2.20207 5.28689C2.44973 4.93308 2.75408 4.57417 3.11764 4.2106L2.41451 3.50747C2.01626 3.90573 1.67306 4.30863 1.38745 4.71665L2.20207 5.28689ZM3.11764 4.2106C3.47698 3.85126 3.96255 3.43785 4.58043 2.96977L3.97997 2.17716C3.34084 2.66135 2.81699 3.105 2.41451 3.50747L3.11764 4.2106ZM4.57472 2.97402C5.16869 2.53728 5.9061 2.17884 6.7969 1.90614L6.50583 0.955325C5.53017 1.254 4.6868 1.65737 3.98567 2.17291L4.57472 2.97402ZM6.80569 1.90336C7.68586 1.61596 8.62386 1.47083 9.62246 1.47083V0.476457C8.52606 0.476457 7.48333 0.636051 6.49704 0.958106L6.80569 1.90336ZM9.62246 1.47083C10.0654 1.47083 10.5302 1.51512 11.0175 1.60536L11.1985 0.62761C10.6573 0.527387 10.1318 0.476457 9.62246 0.476457V1.47083ZM11.0377 1.60867C11.5291 1.67888 12.1153 1.8306 12.8001 2.07122L13.1298 1.13307C12.4052 0.878503 11.7534 0.706452 11.1783 0.624295L11.0377 1.60867ZM12.8152 2.07625C13.4782 2.28562 14.1536 2.63847 14.8412 3.14514L15.4311 2.34461C14.6712 1.78473 13.8991 1.37576 13.1147 1.12804L12.8152 2.07625ZM14.8462 3.14875C15.542 3.64835 16.151 4.26533 16.6729 5.00319L17.4847 4.42898C16.902 3.60511 16.2158 2.90795 15.4261 2.341L14.8462 3.14875ZM16.6785 5.01101C17.9418 6.72551 18.5814 8.77141 18.5814 11.1725H19.5757C19.5757 8.5837 18.8821 6.32531 17.479 4.42115L16.6785 5.01101ZM17.4903 11.0582C17.4903 8.09553 16.5871 5.76212 14.7193 4.14066L14.0674 4.89155C15.666 6.27928 16.4959 8.3073 16.4959 11.0582H17.4903ZM14.7178 4.13936C13.2532 2.87821 11.5182 2.24769 9.53676 2.24769V3.24206C11.2882 3.24206 12.7909 3.79236 14.0689 4.89286L14.7178 4.13936ZM9.53676 2.24769C8.17784 2.24769 6.88824 2.5731 5.67462 3.22037L6.14256 4.09775C7.2144 3.5261 8.34358 3.24206 9.53676 3.24206V2.24769ZM5.67363 3.22089C4.26468 3.97642 3.2176 5.08509 2.54376 6.53488L3.44549 6.95399C4.02865 5.69931 4.92421 4.75107 6.14355 4.09722L5.67363 3.22089ZM2.54135 6.54014C1.90006 7.96301 1.58325 9.5287 1.58325 11.2297H2.57762C2.57762 9.65477 2.87028 8.23032 3.4479 6.94873L2.54135 6.54014ZM1.58325 11.2297C1.58325 12.5096 1.75049 13.6524 2.09638 14.6494L3.03582 14.3235C2.73417 13.454 2.57762 12.4256 2.57762 11.2297H1.58325ZM2.09443 14.6437C2.63909 16.2776 3.5739 17.5931 4.89903 18.5717L5.48973 17.7718C4.33895 16.922 3.52157 15.7806 3.03777 14.3292L2.09443 14.6437ZM4.90195 18.5738C6.24763 19.5525 7.78891 20.0402 9.50819 20.0402V19.0458C7.98974 19.0458 6.65514 18.6193 5.48681 17.7696L4.90195 18.5738ZM9.50819 20.0402C10.6561 20.0402 11.7166 19.8284 12.6821 19.397L12.2765 18.4891C11.4517 18.8577 10.5314 19.0458 9.50819 19.0458V20.0402ZM12.6751 19.4001C13.9752 18.8429 15.091 17.8801 16.0288 16.5432L15.2148 15.9721C14.3623 17.1873 13.3831 18.0148 12.2834 18.4861L12.6751 19.4001ZM16.026 16.5472C17.0203 15.1592 17.4903 13.3124 17.4903 11.0582H16.4959C16.4959 13.1845 16.0516 14.804 15.2176 15.9681L16.026 16.5472ZM41.5904 15.7149V16.2121H42.0875V15.7149H41.5904ZM37.3337 15.7149V15.2177H36.8365V15.7149H37.3337ZM37.3337 21V21.4972H37.8309V21H37.3337ZM35.4196 21H34.9224V21.4972H35.4196V21ZM35.4196 15.7149H35.9168V15.2177H35.4196V15.7149ZM22.9924 15.7149H22.4952V16.2121H22.9924V15.7149ZM22.9924 14.0293L22.6318 13.6871L22.4952 13.831V14.0293H22.9924ZM35.2196 1.14505V0.647866H35.006L34.859 0.802804L35.2196 1.14505ZM37.3337 1.14505H37.8309V0.647866H37.3337V1.14505ZM37.3337 14.0293H36.8365V14.5265H37.3337V14.0293ZM41.5904 14.0293H42.0875V13.5322H41.5904V14.0293ZM35.4196 14.0293V14.5265H35.9168V14.0293H35.4196ZM35.4196 3.28767H35.9168V2.03685L35.0581 2.94635L35.4196 3.28767ZM25.2779 14.0293L24.9164 13.688L24.1247 14.5265H25.2779V14.0293ZM41.5904 15.2177H37.3337V16.2121H41.5904V15.2177ZM36.8365 15.7149V21H37.8309V15.7149H36.8365ZM37.3337 20.5028H35.4196V21.4972H37.3337V20.5028ZM35.9168 21V15.7149H34.9224V21H35.9168ZM35.4196 15.2177H22.9924V16.2121H35.4196V15.2177ZM23.4896 15.7149V14.0293H22.4952V15.7149H23.4896ZM23.3531 14.3716L35.5803 1.4873L34.859 0.802804L22.6318 13.6871L23.3531 14.3716ZM35.2196 1.64224H37.3337V0.647866H35.2196V1.64224ZM36.8365 1.14505V14.0293H37.8309V1.14505H36.8365ZM37.3337 14.5265H41.5904V13.5322H37.3337V14.5265ZM41.0932 14.0293V15.7149H42.0875V14.0293H41.0932ZM35.9168 14.0293V3.28767H34.9224V14.0293H35.9168ZM35.0581 2.94635L24.9164 13.688L25.6394 14.3707L35.7811 3.629L35.0581 2.94635ZM25.2779 14.5265H35.4196V13.5322H25.2779V14.5265Z" fill="url(#paint1_linear_284_33)"/>
<defs>
<radialGradient id="paint0_radial_284_33" cx="0" cy="0" r="1" gradientUnits="userSpaceOnUse" gradientTransform="translate(21 10.5) rotate(90) scale(18.5 22)">
<stop stop-color="white"/>
<stop offset="1" stop-color="white" stop-opacity="0.64"/>
</radialGradient>
<linearGradient id="paint1_linear_284_33" x1="22.2683" y1="-11.8858" x2="46.8743" y2="-0.312959" gradientUnits="userSpaceOnUse">
<stop stop-color="white"/>
<stop offset="1" stop-color="white" stop-opacity="0.94"/>
</linearGradient>
</defs>
</svg>
