<svg width="42" height="22" viewBox="0 0 42 22" fill="none" xmlns="http://www.w3.org/2000/svg">
<path d="M19.0786 11.1725C19.0786 12.8295 18.7357 14.3912 18.0501 15.8577C17.3645 17.3242 16.3836 18.5336 15.1076 19.4859C13.4697 20.7048 11.5746 21.3143 9.42248 21.3143C6.66089 21.3143 4.40399 20.3334 2.6518 18.3717C0.899617 16.391 0.0235234 13.9817 0.0235234 11.1439C0.0235234 8.82039 0.613934 6.773 1.79476 5.00177C2.06139 4.62086 2.38517 4.23995 2.76608 3.85904C3.14699 3.47813 3.65169 3.0496 4.2802 2.57346C4.92774 2.09733 5.71813 1.71642 6.65136 1.43073C7.58459 1.12601 8.57496 0.973642 9.62246 0.973642C10.0986 0.973642 10.5938 1.02126 11.108 1.11648C11.6413 1.19267 12.2603 1.35455 12.9649 1.60214C13.6887 1.83069 14.4124 2.2116 15.1361 2.74487C15.8789 3.27815 16.5265 3.93522 17.0788 4.71608C18.412 6.52541 19.0786 8.67755 19.0786 11.1725ZM16.9931 11.0582C16.9931 8.20141 16.1265 6.0207 14.3934 4.51611C13.0221 3.33529 11.4032 2.74487 9.53676 2.74487C8.26071 2.74487 7.05132 3.0496 5.90859 3.65906C4.59445 4.36374 3.62313 5.3922 2.99462 6.74443C2.38517 8.09666 2.08044 9.59174 2.08044 11.2297C2.08044 12.4676 2.24233 13.5532 2.5661 14.4864C3.08033 16.0291 3.95642 17.2576 5.19438 18.1717C6.45138 19.0859 7.88932 19.543 9.50819 19.543C10.5938 19.543 11.5842 19.343 12.4793 18.9431C13.6792 18.4289 14.7267 17.5337 15.6218 16.2577C16.536 14.9816 16.9931 13.2485 16.9931 11.0582ZM41.3047 5.34459L39.5049 6.17307C37.9622 3.9257 35.7624 2.80201 32.9056 2.80201C31.7819 2.80201 30.7725 2.99247 29.8774 3.37338C28.9822 3.75429 28.2585 4.24947 27.7062 4.85893C27.1729 5.44934 26.7253 6.15402 26.3635 6.97298C26.0016 7.77289 25.7445 8.55376 25.5921 9.31558C25.4588 10.0774 25.3826 10.8487 25.3636 11.6296C25.8397 10.3726 26.8301 9.43937 28.3347 8.82992C29.8583 8.22046 31.4296 7.91573 33.0484 7.91573C33.4484 7.91573 33.8674 7.9443 34.3054 8.00144C34.7625 8.03953 35.4006 8.14428 36.2195 8.31569C37.0385 8.46805 37.8384 8.7823 38.6193 9.25844C39.4001 9.71553 40.0572 10.2869 40.5905 10.9725C41.3904 12.001 41.7903 13.1437 41.7903 14.4007C41.7903 15.6196 41.438 16.7529 40.7333 17.8004C39.9334 18.9812 38.8192 19.8668 37.3908 20.4572C35.9815 21.0286 34.4864 21.3143 32.9056 21.3143C31.5915 21.3143 30.3345 21.1048 29.1346 20.6857C28.2966 20.381 27.5443 19.9906 26.8777 19.5144C26.2302 19.0383 25.7064 18.5146 25.3064 17.9432C24.9255 17.3718 24.6018 16.81 24.3351 16.2577C24.0875 15.7053 23.9066 15.1245 23.7923 14.515C23.6971 13.9055 23.6304 13.4104 23.5923 13.0295C23.5543 12.6485 23.5352 12.2676 23.5352 11.8867C23.5352 10.4583 23.6876 9.16321 23.9923 8.00144C24.3161 6.83966 24.7351 5.88738 25.2493 5.14461C25.7635 4.38279 26.2682 3.78286 26.7634 3.34481C27.2586 2.88772 27.7824 2.50681 28.3347 2.20208C29.725 1.44026 31.3153 1.05935 33.1056 1.05935C35.6196 1.05935 37.6955 1.74499 39.3335 3.11626C39.9239 3.61145 40.5809 4.35422 41.3047 5.34459ZM26.1635 14.4293C26.1635 15.1149 26.3063 15.7625 26.592 16.3719C26.8777 16.9624 27.1539 17.4004 27.4205 17.6861C27.7062 17.9527 27.9919 18.1813 28.2775 18.3717C29.4012 19.1526 30.9153 19.543 32.8199 19.543C35.5815 19.543 37.5908 18.7717 38.8478 17.229C39.5144 16.391 39.8477 15.4768 39.8477 14.4864C39.8477 13.1913 39.2668 12.0677 38.105 11.1154C36.9623 10.1631 35.2292 9.68696 32.9056 9.68696C31.0391 9.68696 29.4488 10.0964 28.1347 10.9154C26.8206 11.7153 26.1635 12.8866 26.1635 14.4293Z" fill="url(#paint0_radial_284_47)"/>
<path d="M18.0501 15.8577L17.5997 15.6471L17.5997 15.6471L18.0501 15.8577ZM15.1076 19.4859L15.4044 19.8847L15.4049 19.8843L15.1076 19.4859ZM2.6518 18.3717L2.27941 18.7011L2.281 18.7029L2.6518 18.3717ZM1.79476 5.00177L1.38734 4.71658L1.38107 4.72598L1.79476 5.00177ZM2.76608 3.85904L2.41451 3.50747L2.41451 3.50747L2.76608 3.85904ZM4.2802 2.57346L3.98564 2.17287L3.97997 2.17716L4.2802 2.57346ZM6.65136 1.43073L6.79692 1.90622L6.80569 1.90336L6.65136 1.43073ZM11.108 1.11648L11.0175 1.60536L11.0276 1.60722L11.0377 1.60867L11.108 1.11648ZM12.9649 1.60214L12.8001 2.07122L12.8076 2.07386L12.8152 2.07625L12.9649 1.60214ZM15.1361 2.74487L14.8412 3.14517L14.8462 3.14875L15.1361 2.74487ZM17.0788 4.71608L16.6728 5.00325L16.6785 5.01101L17.0788 4.71608ZM14.3934 4.51611L14.7193 4.14066L14.7178 4.13936L14.3934 4.51611ZM5.90859 3.65906L5.67462 3.22036L5.67363 3.22089L5.90859 3.65906ZM2.99462 6.74443L2.54373 6.53486L2.54135 6.54014L2.99462 6.74443ZM2.5661 14.4864L3.03781 14.3292L3.03582 14.3235L2.5661 14.4864ZM5.19438 18.1717L4.89902 18.5717L4.90195 18.5738L5.19438 18.1717ZM12.4793 18.9431L12.2834 18.486L12.2765 18.4891L12.4793 18.9431ZM15.6218 16.2577L15.2176 15.9681L15.2148 15.9721L15.6218 16.2577ZM18.5814 11.1725C18.5814 12.7585 18.2538 14.2481 17.5997 15.6471L18.5005 16.0683C19.2177 14.5343 19.5757 12.9005 19.5757 11.1725H18.5814ZM17.5997 15.6471C16.9482 17.0406 16.0194 18.185 14.8102 19.0874L15.4049 19.8843C16.7478 18.8822 17.7807 17.6078 18.5005 16.0683L17.5997 15.6471ZM14.8107 19.087C13.2634 20.2385 11.4739 20.8171 9.42248 20.8171V21.8114C11.6754 21.8114 13.6759 21.1711 15.4044 19.8847L14.8107 19.087ZM9.42248 20.8171C6.79447 20.8171 4.67526 19.8908 3.02261 18.0405L2.281 18.7029C4.13272 20.776 6.5273 21.8114 9.42248 21.8114V20.8171ZM3.02419 18.0423C1.35858 16.1594 0.520709 13.87 0.520709 11.1439H-0.473662C-0.473662 14.0935 0.440657 16.6225 2.27941 18.7011L3.02419 18.0423ZM0.520709 11.1439C0.520709 8.90918 1.08704 6.95965 2.20844 5.27756L1.38107 4.72598C0.140826 6.58635 -0.473662 8.73161 -0.473662 11.1439H0.520709ZM2.20207 5.28689C2.44973 4.93308 2.75408 4.57417 3.11764 4.2106L2.41451 3.50747C2.01626 3.90573 1.67306 4.30863 1.38745 4.71665L2.20207 5.28689ZM3.11764 4.2106C3.47698 3.85126 3.96255 3.43785 4.58043 2.96977L3.97997 2.17716C3.34084 2.66135 2.81699 3.105 2.41451 3.50747L3.11764 4.2106ZM4.57472 2.97402C5.16869 2.53728 5.9061 2.17884 6.7969 1.90614L6.50583 0.955325C5.53017 1.254 4.6868 1.65737 3.98567 2.17291L4.57472 2.97402ZM6.80569 1.90336C7.68586 1.61596 8.62386 1.47083 9.62246 1.47083V0.476457C8.52606 0.476457 7.48333 0.636051 6.49704 0.958106L6.80569 1.90336ZM9.62246 1.47083C10.0654 1.47083 10.5302 1.51512 11.0175 1.60536L11.1985 0.62761C10.6573 0.527387 10.1318 0.476457 9.62246 0.476457V1.47083ZM11.0377 1.60867C11.5291 1.67888 12.1153 1.8306 12.8001 2.07122L13.1298 1.13307C12.4052 0.878503 11.7534 0.706452 11.1783 0.624295L11.0377 1.60867ZM12.8152 2.07625C13.4782 2.28562 14.1536 2.63847 14.8412 3.14514L15.4311 2.34461C14.6712 1.78473 13.8991 1.37576 13.1147 1.12804L12.8152 2.07625ZM14.8462 3.14875C15.542 3.64835 16.151 4.26533 16.6729 5.00319L17.4847 4.42898C16.902 3.60511 16.2158 2.90795 15.4261 2.341L14.8462 3.14875ZM16.6785 5.01101C17.9418 6.72551 18.5814 8.77141 18.5814 11.1725H19.5757C19.5757 8.5837 18.8821 6.32531 17.479 4.42115L16.6785 5.01101ZM17.4903 11.0582C17.4903 8.09553 16.5871 5.76212 14.7193 4.14066L14.0674 4.89155C15.666 6.27928 16.4959 8.3073 16.4959 11.0582H17.4903ZM14.7178 4.13936C13.2532 2.87821 11.5182 2.24769 9.53676 2.24769V3.24206C11.2882 3.24206 12.7909 3.79236 14.0689 4.89286L14.7178 4.13936ZM9.53676 2.24769C8.17784 2.24769 6.88824 2.5731 5.67462 3.22037L6.14256 4.09775C7.2144 3.5261 8.34358 3.24206 9.53676 3.24206V2.24769ZM5.67363 3.22089C4.26468 3.97642 3.2176 5.08509 2.54376 6.53488L3.44549 6.95399C4.02865 5.69931 4.92421 4.75107 6.14355 4.09722L5.67363 3.22089ZM2.54135 6.54014C1.90006 7.96301 1.58325 9.5287 1.58325 11.2297H2.57762C2.57762 9.65477 2.87028 8.23032 3.4479 6.94873L2.54135 6.54014ZM1.58325 11.2297C1.58325 12.5096 1.75049 13.6524 2.09638 14.6494L3.03582 14.3235C2.73417 13.454 2.57762 12.4256 2.57762 11.2297H1.58325ZM2.09443 14.6437C2.63909 16.2776 3.5739 17.5931 4.89903 18.5717L5.48973 17.7718C4.33895 16.922 3.52157 15.7806 3.03777 14.3292L2.09443 14.6437ZM4.90195 18.5738C6.24763 19.5525 7.78891 20.0402 9.50819 20.0402V19.0458C7.98974 19.0458 6.65514 18.6193 5.48681 17.7696L4.90195 18.5738ZM9.50819 20.0402C10.6561 20.0402 11.7166 19.8284 12.6821 19.397L12.2765 18.4891C11.4517 18.8577 10.5314 19.0458 9.50819 19.0458V20.0402ZM12.6751 19.4001C13.9752 18.8429 15.091 17.8801 16.0288 16.5432L15.2148 15.9721C14.3623 17.1873 13.3831 18.0148 12.2834 18.4861L12.6751 19.4001ZM16.026 16.5472C17.0203 15.1592 17.4903 13.3124 17.4903 11.0582H16.4959C16.4959 13.1845 16.0516 14.804 15.2176 15.9681L16.026 16.5472ZM41.3047 5.34459L41.5126 5.79622L42.0648 5.54204L41.7061 5.05124L41.3047 5.34459ZM39.5049 6.17307L39.095 6.45444L39.3321 6.79992L39.7128 6.6247L39.5049 6.17307ZM29.8774 3.37338L29.6827 2.91589L29.6827 2.91589L29.8774 3.37338ZM27.7062 4.85893L27.3378 4.52506L27.3372 4.52567L27.7062 4.85893ZM26.3635 6.97298L26.8165 7.17791L26.8182 7.17392L26.3635 6.97298ZM25.5921 9.31558L25.1045 9.21804L25.1024 9.22987L25.5921 9.31558ZM25.3636 11.6296L24.8665 11.6175L25.8285 11.8057L25.3636 11.6296ZM28.3347 8.82992L28.15 8.36829L28.148 8.3691L28.3347 8.82992ZM34.3054 8.00144L34.2411 8.49445L34.2526 8.49594L34.2642 8.4969L34.3054 8.00144ZM36.2195 8.31569L36.1176 8.80245L36.1286 8.80448L36.2195 8.31569ZM38.6193 9.25844L38.3604 9.683L38.3681 9.68752L38.6193 9.25844ZM40.5905 10.9725L40.198 11.2778L40.198 11.2778L40.5905 10.9725ZM40.7333 17.8004L41.1449 18.0792L41.1458 18.0779L40.7333 17.8004ZM37.3908 20.4572L37.5776 20.918L37.5807 20.9167L37.3908 20.4572ZM29.1346 20.6857L28.9647 21.153L28.9707 21.1551L29.1346 20.6857ZM26.8777 19.5144L26.5831 19.915L26.5887 19.919L26.8777 19.5144ZM25.3064 17.9432L24.8927 18.2191L24.8991 18.2283L25.3064 17.9432ZM24.3351 16.2577L23.8813 16.4611L23.8874 16.4738L24.3351 16.2577ZM23.7923 14.515L23.3011 14.5918L23.3023 14.5992L23.3037 14.6066L23.7923 14.515ZM23.5923 13.0295L23.0976 13.0789L23.5923 13.0295ZM23.9923 8.00144L23.5133 7.86795L23.5114 7.87529L23.9923 8.00144ZM25.2493 5.14461L25.6581 5.42763L25.6614 5.42277L25.2493 5.14461ZM26.7634 3.34481L27.0929 3.71728L27.1007 3.71014L26.7634 3.34481ZM28.3347 2.20208L28.0958 1.76606L28.0945 1.76675L28.3347 2.20208ZM39.3335 3.11626L39.653 2.73532L39.6526 2.73504L39.3335 3.11626ZM26.592 16.3719L26.1418 16.583L26.1445 16.5885L26.592 16.3719ZM27.4205 17.6861L27.057 18.0253L27.0687 18.0379L27.0813 18.0496L27.4205 17.6861ZM28.2775 18.3717L28.5613 17.9634L28.5533 17.958L28.2775 18.3717ZM38.8478 17.229L39.2333 17.5431L39.2369 17.5385L38.8478 17.229ZM38.105 11.1154L37.7867 11.4973L37.7898 11.4999L38.105 11.1154ZM28.1347 10.9154L28.3932 11.3401L28.3977 11.3374L28.1347 10.9154ZM41.0968 4.89295L39.297 5.72143L39.7128 6.6247L41.5126 5.79622L41.0968 4.89295ZM39.9148 5.89169C38.2742 3.5017 35.9169 2.30483 32.9056 2.30483V3.2992C35.6079 3.2992 37.6502 4.34969 39.095 6.45444L39.9148 5.89169ZM32.9056 2.30483C31.7253 2.30483 30.6482 2.50504 29.6827 2.91589L30.072 3.83086C30.8968 3.4799 31.8385 3.2992 32.9056 3.2992V2.30483ZM29.6827 2.91589C28.7333 3.31987 27.9464 3.85346 27.3378 4.52506L28.0746 5.1928C28.5706 4.64548 29.2311 4.18871 30.072 3.83086L29.6827 2.91589ZM27.3372 4.52567C26.7643 5.15992 26.2893 5.91068 25.9087 6.77203L26.8182 7.17392C27.1614 6.39736 27.5815 5.73875 28.0751 5.19218L27.3372 4.52567ZM25.9105 6.76805C25.535 7.59798 25.2652 8.41483 25.1046 9.21807L26.0797 9.41308C26.2237 8.69269 26.4682 7.9478 26.8165 7.1779L25.9105 6.76805ZM25.1024 9.22987C24.9648 10.0162 24.8862 10.8122 24.8665 11.6175L25.8606 11.6417C25.8791 10.8853 25.9528 10.1385 26.0819 9.40128L25.1024 9.22987ZM25.8285 11.8057C26.2456 10.7047 27.1163 9.85987 28.5213 9.29073L28.148 8.3691C26.5439 9.01887 25.4339 10.0405 24.8986 11.4535L25.8285 11.8057ZM28.5193 9.29154C29.9851 8.70525 31.4937 8.41292 33.0484 8.41292V7.41855C31.3654 7.41855 29.7316 7.73567 28.15 8.36829L28.5193 9.29154ZM33.0484 8.41292C33.4248 8.41292 33.8222 8.43981 34.2411 8.49445L34.3698 7.50843C33.9126 7.44879 33.472 7.41855 33.0484 7.41855V8.41292ZM34.2642 8.4969C34.6907 8.53245 35.3053 8.6323 36.1177 8.80233L36.3214 7.82905C35.4958 7.65626 34.8344 7.5466 34.3467 7.50597L34.2642 8.4969ZM36.1286 8.80448C36.8826 8.94476 37.6261 9.23518 38.3604 9.68294L38.8781 8.83395C38.0507 8.32943 37.1944 7.99134 36.3105 7.82689L36.1286 8.80448ZM38.3681 9.68752C39.0967 10.114 39.7051 10.6441 40.198 11.2778L40.9829 10.6673C40.4092 9.9297 39.7035 9.31703 38.8704 8.82936L38.3681 9.68752ZM40.198 11.2778C40.9327 12.2224 41.2931 13.2586 41.2931 14.4007H42.2875C42.2875 13.0289 41.848 11.7796 40.9829 10.6673L40.198 11.2778ZM41.2931 14.4007C41.2931 15.5171 40.9724 16.5543 40.3208 17.5228L41.1458 18.0779C41.9036 16.9514 42.2875 15.7222 42.2875 14.4007H41.2931ZM40.3217 17.5215C39.581 18.6149 38.5472 19.4413 37.2009 19.9977L37.5807 20.9167C39.0913 20.2923 40.2858 19.3474 41.1449 18.0792L40.3217 17.5215ZM37.204 19.9964C35.8563 20.5428 34.4249 20.8171 32.9056 20.8171V21.8114C34.5478 21.8114 36.1066 21.5143 37.5776 20.918L37.204 19.9964ZM32.9056 20.8171C31.6454 20.8171 30.4439 20.6163 29.2985 20.2164L28.9707 21.1551C30.225 21.5932 31.5376 21.8114 32.9056 21.8114V20.8171ZM29.3045 20.2185C28.5051 19.9278 27.7935 19.5576 27.1667 19.1099L26.5887 19.919C27.2951 20.4236 28.088 20.8342 28.9647 21.153L29.3045 20.2185ZM27.1722 19.1139C26.5618 18.665 26.0783 18.1789 25.7138 17.6581L24.8991 18.2283C25.3345 18.8502 25.8985 19.4116 26.5832 19.915L27.1722 19.1139ZM25.7201 17.6674C25.3504 17.1129 25.0384 16.5709 24.7829 16.0415L23.8874 16.4738C24.1651 17.0491 24.5006 17.6308 24.8928 18.219L25.7201 17.6674ZM24.7888 16.0543C24.5576 15.5386 24.3882 14.9953 24.281 14.4234L23.3037 14.6066C23.425 15.2536 23.6174 15.8721 23.8814 16.461L24.7888 16.0543ZM24.2835 14.4382C24.189 13.8331 24.1239 13.348 24.0871 12.98L23.0976 13.0789C23.137 13.4727 23.2052 13.978 23.3011 14.5918L24.2835 14.4382ZM24.0871 12.98C24.0506 12.6154 24.0324 12.251 24.0324 11.8867H23.038C23.038 12.2842 23.0579 12.6817 23.0976 13.0789L24.0871 12.98ZM24.0324 11.8867C24.0324 10.4931 24.1811 9.24128 24.4732 8.12758L23.5114 7.87529C23.194 9.08515 23.038 10.4235 23.038 11.8867H24.0324ZM24.4712 8.13491C24.7848 7.00977 25.184 6.11241 25.6581 5.42761L24.8405 4.86161C24.2862 5.66236 23.8474 6.66955 23.5134 7.86796L24.4712 8.13491ZM25.6614 5.42277C26.1605 4.6833 26.6386 4.11901 27.0928 3.7172L26.434 2.97242C25.8979 3.4467 25.3665 4.08228 24.8372 4.86645L25.6614 5.42277ZM27.1007 3.71014C27.5684 3.27836 28.0599 2.92152 28.5749 2.6374L28.0945 1.76675C27.5048 2.09209 26.9488 2.49707 26.4262 2.97947L27.1007 3.71014ZM28.5736 2.6381C29.8816 1.92136 31.3879 1.55653 33.1056 1.55653V0.562162C31.2427 0.562162 29.5684 0.959153 28.0958 1.76606L28.5736 2.6381ZM33.1056 1.55653C35.5245 1.55653 37.4812 2.21394 39.0143 3.49748L39.6526 2.73504C37.9099 1.27603 35.7146 0.562162 33.1056 0.562162V1.55653ZM39.014 3.4972C39.5611 3.95606 40.191 4.6633 40.9033 5.63793L41.7061 5.05124C40.9709 4.04514 40.2867 3.26683 39.653 2.73532L39.014 3.4972ZM25.6663 14.4293C25.6663 15.1865 25.8246 15.9062 26.1418 16.583L27.0422 16.1609C26.7881 15.6188 26.6607 15.0434 26.6607 14.4293H25.6663ZM26.1445 16.5885C26.4393 17.1978 26.7411 17.6868 27.057 18.0253L27.784 17.3468C27.5666 17.114 27.3161 16.727 27.0396 16.1554L26.1445 16.5885ZM27.0813 18.0496C27.384 18.3322 27.6908 18.5781 28.0018 18.7854L28.5533 17.958C28.293 17.7845 28.0283 17.5733 27.7597 17.3226L27.0813 18.0496ZM27.9938 18.78C29.2277 19.6374 30.8524 20.0402 32.8199 20.0402V19.0458C30.9782 19.0458 29.5748 18.6678 28.5613 17.9634L27.9938 18.78ZM32.8199 20.0402C35.6699 20.0402 37.849 19.2418 39.2332 17.543L38.4624 16.9149C37.3326 18.3015 35.4931 19.0458 32.8199 19.0458V20.0402ZM39.2369 17.5385C39.9674 16.6201 40.3449 15.5986 40.3449 14.4864H39.3505C39.3505 15.355 39.0614 16.1618 38.4587 16.9195L39.2369 17.5385ZM40.3449 14.4864C40.3449 13.0176 39.6766 11.7607 38.4202 10.7309L37.7898 11.4999C38.857 12.3746 39.3505 13.365 39.3505 14.4864H40.3449ZM38.4233 10.7334C37.153 9.67487 35.2835 9.18978 32.9056 9.18978V10.1841C35.1748 10.1841 36.7715 10.6513 37.7867 11.4973L38.4233 10.7334ZM32.9056 9.18978C30.9654 9.18978 29.2796 9.61606 27.8717 10.4934L28.3977 11.3374C29.618 10.5768 31.1129 10.1841 32.9056 10.1841V9.18978ZM27.8762 10.4907C26.4133 11.3811 25.6663 12.7137 25.6663 14.4293H26.6607C26.6607 13.0595 27.2278 12.0495 28.3932 11.3401L27.8762 10.4907Z" fill="url(#paint1_linear_284_47)"/>
<defs>
<radialGradient id="paint0_radial_284_47" cx="0" cy="0" r="1" gradientUnits="userSpaceOnUse" gradientTransform="translate(21 10.5) rotate(90) scale(18.5 22)">
<stop stop-color="white"/>
<stop offset="1" stop-color="white" stop-opacity="0.64"/>
</radialGradient>
<linearGradient id="paint1_linear_284_47" x1="22.2683" y1="-11.8858" x2="46.8743" y2="-0.312959" gradientUnits="userSpaceOnUse">
<stop stop-color="white"/>
<stop offset="1" stop-color="white" stop-opacity="0.94"/>
</linearGradient>
</defs>
</svg>
