<svg width="42" height="22" viewBox="0 0 42 22" fill="none" xmlns="http://www.w3.org/2000/svg">
<path d="M19.3854 11.1725C19.3854 12.8295 19.0426 14.3912 18.357 15.8577C17.6713 17.3242 16.6905 18.5336 15.4145 19.4859C13.7765 20.7048 11.8815 21.3143 9.72937 21.3143C6.96777 21.3143 4.71088 20.3334 2.95869 18.3717C1.2065 16.391 0.33041 13.9817 0.33041 11.1439C0.33041 8.82039 0.920821 6.773 2.10164 5.00177C2.36828 4.62086 2.69205 4.23995 3.07296 3.85904C3.45387 3.47813 3.95858 3.0496 4.58708 2.57346C5.23463 2.09733 6.02502 1.71642 6.95825 1.43073C7.89148 1.12601 8.88185 0.973642 9.92935 0.973642C10.4055 0.973642 10.9007 1.02126 11.4149 1.11648C11.9482 1.19267 12.5672 1.35455 13.2718 1.60214C13.9956 1.83069 14.7193 2.2116 15.443 2.74487C16.1858 3.27815 16.8333 3.93522 17.3857 4.71608C18.7189 6.52541 19.3854 8.67755 19.3854 11.1725ZM17.3 11.0582C17.3 8.20141 16.4334 6.0207 14.7003 4.51611C13.329 3.33529 11.7101 2.74487 9.84364 2.74487C8.56759 2.74487 7.3582 3.0496 6.21547 3.65906C4.90133 4.36374 3.93001 5.3922 3.30151 6.74443C2.69205 8.09666 2.38733 9.59174 2.38733 11.2297C2.38733 12.4676 2.54921 13.5532 2.87299 14.4864C3.38722 16.0291 4.26331 17.2576 5.50127 18.1717C6.75827 19.0859 8.19621 19.543 9.81508 19.543C10.9007 19.543 11.891 19.343 12.7862 18.9431C13.986 18.4289 15.0335 17.5337 15.9287 16.2577C16.8429 14.9816 17.3 13.2485 17.3 11.0582ZM30.2276 11.5725V9.88694H33.6843C34.5223 9.88694 35.2365 9.78219 35.8269 9.57269C36.0364 9.49651 36.2459 9.40128 36.4554 9.28701C36.684 9.17274 36.9506 8.9918 37.2553 8.74421C37.5791 8.49662 37.8362 8.17285 38.0267 7.77289C38.2171 7.37293 38.3124 6.92536 38.3124 6.43018C38.3124 5.76359 38.1314 5.1827 37.7696 4.68752C37.4268 4.19233 37.0268 3.82095 36.5697 3.57336C36.1126 3.32576 35.5698 3.13531 34.9413 3.00199C34.3128 2.86867 33.8176 2.79249 33.4558 2.77344C33.0939 2.73535 32.7416 2.71631 32.3987 2.71631C32.0369 2.71631 31.7036 2.72583 31.3989 2.74487C31.0941 2.76392 30.618 2.85915 29.9704 3.03056C29.3229 3.18292 28.7515 3.40194 28.2563 3.68763C27.7612 3.97331 27.2755 4.42088 26.7994 5.03034C26.3232 5.62075 25.9899 6.33495 25.7995 7.17296L23.914 6.54445C25.1138 2.84962 27.9421 1.00221 32.3987 1.00221C33.8462 1.00221 35.1032 1.18314 36.1698 1.54501C37.2553 1.90687 38.0743 2.38301 38.6266 2.97342C39.198 3.54479 39.6075 4.12567 39.8551 4.71608C40.1217 5.3065 40.255 5.89691 40.255 6.48732C40.255 7.49673 39.9408 8.35378 39.3123 9.05846C38.6838 9.76315 37.8077 10.2393 36.684 10.4869C37.2553 10.544 37.8458 10.7249 38.4552 11.0297C39.0837 11.3344 39.6646 11.8582 40.1979 12.6009C40.7502 13.3247 41.0264 14.1817 41.0264 15.1721C41.0264 17.0766 40.1979 18.6003 38.5409 19.743C36.9982 20.8095 34.9223 21.3428 32.313 21.3428C29.9895 21.3428 28.0564 20.8572 26.5137 19.8858C25.0662 18.9717 23.9901 17.7051 23.2855 16.0863L25.3138 15.4006C25.828 16.5624 26.4661 17.4385 27.2279 18.0289C28.5992 19.1335 30.3513 19.6859 32.4844 19.6859C34.3509 19.6859 35.9126 19.2954 37.1696 18.5146C38.4457 17.7146 39.0837 16.6005 39.0837 15.1721C39.0837 14.4293 38.8456 13.7627 38.3695 13.1723C37.8362 12.5057 37.1601 12.0772 36.3412 11.8867C35.5222 11.6772 34.5604 11.5725 33.4558 11.5725H30.2276Z" fill="url(#paint0_radial_313_309)"/>
<path d="M18.357 15.8577L17.9066 15.6471L17.9066 15.6471L18.357 15.8577ZM15.4145 19.4859L15.7113 19.8847L15.7118 19.8843L15.4145 19.4859ZM2.95869 18.3717L2.5863 18.7011L2.58789 18.7029L2.95869 18.3717ZM2.10164 5.00177L1.69423 4.71658L1.68796 4.72598L2.10164 5.00177ZM3.07296 3.85904L2.7214 3.50747L2.7214 3.50747L3.07296 3.85904ZM4.58708 2.57346L4.29252 2.17287L4.28685 2.17716L4.58708 2.57346ZM6.95825 1.43073L7.10381 1.90622L7.11258 1.90336L6.95825 1.43073ZM11.4149 1.11648L11.3244 1.60536L11.3344 1.60722L11.3446 1.60867L11.4149 1.11648ZM13.2718 1.60214L13.107 2.07122L13.1145 2.07386L13.1221 2.07625L13.2718 1.60214ZM15.443 2.74487L15.1481 3.14517L15.1531 3.14875L15.443 2.74487ZM17.3857 4.71608L16.9797 5.00325L16.9854 5.01101L17.3857 4.71608ZM14.7003 4.51611L15.0262 4.14066L15.0247 4.13936L14.7003 4.51611ZM6.21547 3.65906L5.9815 3.22036L5.98052 3.22089L6.21547 3.65906ZM3.30151 6.74443L2.85061 6.53486L2.84824 6.54014L3.30151 6.74443ZM2.87299 14.4864L3.34469 14.3292L3.34271 14.3235L2.87299 14.4864ZM5.50127 18.1717L5.20591 18.5717L5.20884 18.5738L5.50127 18.1717ZM12.7862 18.9431L12.5903 18.486L12.5834 18.4891L12.7862 18.9431ZM15.9287 16.2577L15.5245 15.9681L15.5217 15.9721L15.9287 16.2577ZM18.8883 11.1725C18.8883 12.7585 18.5607 14.2481 17.9066 15.6471L18.8074 16.0683C19.5246 14.5343 19.8826 12.9005 19.8826 11.1725H18.8883ZM17.9066 15.6471C17.2551 17.0406 16.3263 18.185 15.1171 19.0874L15.7118 19.8843C17.0547 18.8822 18.0876 17.6078 18.8074 16.0683L17.9066 15.6471ZM15.1176 19.087C13.5703 20.2385 11.7807 20.8171 9.72937 20.8171V21.8114C11.9823 21.8114 13.9828 21.1711 15.7113 19.8847L15.1176 19.087ZM9.72937 20.8171C7.10136 20.8171 4.98215 19.8908 3.3295 18.0405L2.58789 18.7029C4.43961 20.776 6.83419 21.8114 9.72937 21.8114V20.8171ZM3.33108 18.0423C1.66546 16.1594 0.827595 13.87 0.827595 11.1439H-0.166775C-0.166775 14.0935 0.747544 16.6225 2.5863 18.7011L3.33108 18.0423ZM0.827595 11.1439C0.827595 8.90918 1.39393 6.95965 2.51533 5.27756L1.68796 4.72598C0.447713 6.58635 -0.166775 8.73161 -0.166775 11.1439H0.827595ZM2.50895 5.28689C2.75661 4.93308 3.06096 4.57417 3.42453 4.2106L2.7214 3.50747C2.32315 3.90573 1.97995 4.30863 1.69433 4.71665L2.50895 5.28689ZM3.42453 4.2106C3.78387 3.85126 4.26944 3.43785 4.88731 2.96977L4.28685 2.17716C3.64772 2.66135 3.12388 3.105 2.7214 3.50747L3.42453 4.2106ZM4.88161 2.97402C5.47558 2.53728 6.21298 2.17884 7.10378 1.90614L6.81272 0.955325C5.83705 1.254 4.99368 1.65737 4.29255 2.17291L4.88161 2.97402ZM7.11258 1.90336C7.99274 1.61596 8.93074 1.47083 9.92935 1.47083V0.476457C8.83295 0.476457 7.79022 0.636051 6.80392 0.958106L7.11258 1.90336ZM9.92935 1.47083C10.3723 1.47083 10.8371 1.51512 11.3244 1.60536L11.5054 0.62761C10.9642 0.527387 10.4387 0.476457 9.92935 0.476457V1.47083ZM11.3446 1.60867C11.836 1.67888 12.4222 1.8306 13.107 2.07122L13.4366 1.13307C12.7121 0.878503 12.0603 0.706452 11.4852 0.624295L11.3446 1.60867ZM13.1221 2.07625C13.7851 2.28562 14.4605 2.63847 15.1481 3.14514L15.738 2.34461C14.9781 1.78473 14.206 1.37576 13.4216 1.12804L13.1221 2.07625ZM15.1531 3.14875C15.8489 3.64835 16.4579 4.26533 16.9798 5.00319L17.7916 4.42898C17.2088 3.60511 16.5227 2.90795 15.733 2.341L15.1531 3.14875ZM16.9854 5.01101C18.2487 6.72551 18.8883 8.77141 18.8883 11.1725H19.8826C19.8826 8.5837 19.189 6.32531 17.7859 4.42115L16.9854 5.01101ZM17.7971 11.0582C17.7971 8.09553 16.8939 5.76212 15.0262 4.14066L14.3743 4.89155C15.9728 6.27928 16.8028 8.3073 16.8028 11.0582H17.7971ZM15.0247 4.13936C13.5601 2.87821 11.8251 2.24769 9.84364 2.24769V3.24206C11.5951 3.24206 13.0978 3.79236 14.3758 4.89286L15.0247 4.13936ZM9.84364 2.24769C8.48473 2.24769 7.19512 2.5731 5.9815 3.22037L6.44944 4.09775C7.52129 3.5261 8.65046 3.24206 9.84364 3.24206V2.24769ZM5.98052 3.22089C4.57157 3.97642 3.52449 5.08509 2.85065 6.53488L3.75238 6.95399C4.33554 5.69931 5.2311 4.75107 6.45043 4.09722L5.98052 3.22089ZM2.84824 6.54014C2.20694 7.96301 1.89014 9.5287 1.89014 11.2297H2.88451C2.88451 9.65477 3.17717 8.23032 3.75478 6.94873L2.84824 6.54014ZM1.89014 11.2297C1.89014 12.5096 2.05737 13.6524 2.40327 14.6494L3.34271 14.3235C3.04105 13.454 2.88451 12.4256 2.88451 11.2297H1.89014ZM2.40131 14.6437C2.94598 16.2776 3.88078 17.5931 5.20592 18.5717L5.79662 17.7718C4.64583 16.922 3.82845 15.7806 3.34466 14.3292L2.40131 14.6437ZM5.20884 18.5738C6.55451 19.5525 8.09579 20.0402 9.81508 20.0402V19.0458C8.29662 19.0458 6.96203 18.6193 5.7937 17.7696L5.20884 18.5738ZM9.81508 20.0402C10.963 20.0402 12.0235 19.8284 12.989 19.397L12.5834 18.4891C11.7586 18.8577 10.8383 19.0458 9.81508 19.0458V20.0402ZM12.982 19.4001C14.2821 18.8429 15.3979 17.8801 16.3357 16.5432L15.5217 15.9721C14.6692 17.1873 13.69 18.0148 12.5903 18.4861L12.982 19.4001ZM16.3329 16.5472C17.3272 15.1592 17.7971 13.3124 17.7971 11.0582H16.8028C16.8028 13.1845 16.3585 14.804 15.5245 15.9681L16.3329 16.5472ZM30.2276 11.5725H29.7304V12.0697H30.2276V11.5725ZM30.2276 9.88694V9.38976H29.7304V9.88694H30.2276ZM35.8269 9.57269L35.9932 10.0413L35.9968 10.0399L35.8269 9.57269ZM36.4554 9.28701L36.2331 8.84231L36.2251 8.84628L36.2174 8.85053L36.4554 9.28701ZM37.2553 8.74421L36.9533 8.34927L36.9475 8.35372L36.9418 8.35834L37.2553 8.74421ZM37.7696 4.68752L37.3607 4.97061L37.3682 4.98086L37.7696 4.68752ZM36.5697 3.57336L36.8065 3.13618L36.8065 3.13618L36.5697 3.57336ZM34.9413 3.00199L35.0445 2.51562L35.0445 2.51562L34.9413 3.00199ZM33.4558 2.77344L33.4037 3.2679L33.4166 3.26926L33.4296 3.26994L33.4558 2.77344ZM31.3989 2.74487L31.3678 2.24866L31.3678 2.24866L31.3989 2.74487ZM29.9704 3.03056L30.0844 3.51471L30.0977 3.51119L29.9704 3.03056ZM28.2563 3.68763L28.5048 4.11828L28.5048 4.11828L28.2563 3.68763ZM26.7994 5.03034L27.1864 5.34248L27.1912 5.33643L26.7994 5.03034ZM25.7995 7.17296L25.6422 7.64463L26.1627 7.81812L26.2843 7.28314L25.7995 7.17296ZM23.914 6.54445L23.4411 6.39089L23.2887 6.86012L23.7567 7.01613L23.914 6.54445ZM36.1698 1.54501L36.01 2.01584L36.0125 2.01668L36.1698 1.54501ZM38.6266 2.97342L38.2635 3.31308L38.2692 3.31913L38.2751 3.32498L38.6266 2.97342ZM39.8551 4.71608L39.3964 4.90843L39.4019 4.92072L39.8551 4.71608ZM39.3123 9.05846L39.6833 9.3894L39.6833 9.3894L39.3123 9.05846ZM36.684 10.4869L36.577 10.0013L36.6345 10.9816L36.684 10.4869ZM38.4552 11.0297L38.2328 11.4744L38.2383 11.477L38.4552 11.0297ZM40.1979 12.6009L39.794 12.8909L39.7982 12.8968L39.8026 12.9026L40.1979 12.6009ZM38.5409 19.743L38.2587 19.3337L38.2582 19.334L38.5409 19.743ZM26.5137 19.8858L26.2482 20.3062L26.2488 20.3066L26.5137 19.8858ZM23.2855 16.0863L23.1262 15.6153L22.6136 15.7885L22.8296 16.2847L23.2855 16.0863ZM25.3138 15.4006L25.7684 15.1994L25.5847 14.7842L25.1546 14.9296L25.3138 15.4006ZM27.2279 18.0289L27.5398 17.6416L27.5324 17.6359L27.2279 18.0289ZM37.1696 18.5146L37.432 18.9369L37.4337 18.9358L37.1696 18.5146ZM38.3695 13.1723L37.9813 13.4829L37.9825 13.4844L38.3695 13.1723ZM36.3412 11.8867L36.2179 12.3685L36.2285 12.371L36.3412 11.8867ZM30.7247 11.5725V9.88694H29.7304V11.5725H30.7247ZM30.2276 10.3841H33.6843V9.38976H30.2276V10.3841ZM33.6843 10.3841C34.561 10.3841 35.3348 10.2749 35.9932 10.0413L35.6607 9.10413C35.1383 9.2895 34.4836 9.38976 33.6843 9.38976V10.3841ZM35.9968 10.0399C36.2314 9.95466 36.4636 9.84888 36.6935 9.72349L36.2174 8.85053C36.0282 8.95368 35.8415 9.03836 35.657 9.10544L35.9968 10.0399ZM36.6778 9.7317C36.9512 9.59502 37.2493 9.38976 37.5689 9.13008L36.9418 8.35834C36.652 8.59385 36.4168 8.75045 36.2331 8.84231L36.6778 9.7317ZM37.5574 9.13915C37.9491 8.8396 38.2542 8.45148 38.4756 7.98665L37.5778 7.55913C37.4182 7.89421 37.2091 8.15364 36.9533 8.34927L37.5574 9.13915ZM38.4756 7.98665C38.7014 7.51242 38.8096 6.99054 38.8096 6.43018H37.8152C37.8152 6.86019 37.7329 7.23345 37.5778 7.55913L38.4756 7.98665ZM38.8096 6.43018C38.8096 5.6678 38.6006 4.982 38.171 4.39417L37.3682 4.98086C37.6623 5.38341 37.8152 5.85938 37.8152 6.43018H38.8096ZM38.1784 4.40451C37.7982 3.85534 37.3424 3.42644 36.8065 3.13618L36.3329 4.01053C36.7112 4.21546 37.0554 4.52932 37.3608 4.97052L38.1784 4.40451ZM36.8065 3.13618C36.2989 2.86125 35.7091 2.65661 35.0445 2.51562L34.8381 3.48835C35.4305 3.614 35.9263 3.79027 36.3329 4.01053L36.8065 3.13618ZM35.0445 2.51562C34.4068 2.38036 33.8821 2.29801 33.4819 2.27695L33.4296 3.26994C33.7531 3.28697 34.2188 3.35698 34.8381 3.48835L35.0445 2.51562ZM33.5078 2.27899C33.1297 2.23919 32.76 2.21912 32.3987 2.21912V3.21349C32.7232 3.21349 33.0581 3.23152 33.4037 3.2679L33.5078 2.27899ZM32.3987 2.21912C32.0284 2.21912 31.6846 2.22886 31.3678 2.24866L31.4299 3.24109C31.7226 3.2228 32.0454 3.21349 32.3987 3.21349V2.21912ZM31.3678 2.24866C31.0107 2.27098 30.4941 2.37763 29.8432 2.54993L30.0977 3.51119C30.7418 3.34067 31.1775 3.25686 31.4299 3.24109L31.3678 2.24866ZM29.8566 2.54659C29.1693 2.70829 28.5513 2.94346 28.0079 3.25697L28.5048 4.11828C28.9517 3.86043 29.4765 3.65755 30.0843 3.51453L29.8566 2.54659ZM28.0079 3.25697C27.4416 3.58369 26.91 4.08113 26.4076 4.72425L27.1912 5.33643C27.641 4.76063 28.0807 4.36293 28.5048 4.11828L28.0079 3.25697ZM26.4123 4.71823C25.8827 5.37503 25.5196 6.16077 25.3146 7.06277L26.2843 7.28314C26.4602 6.50914 26.7638 5.86647 27.1864 5.34245L26.4123 4.71823ZM25.9567 6.70129L24.0712 6.07278L23.7567 7.01613L25.6422 7.64463L25.9567 6.70129ZM24.3868 6.69802C24.9572 4.94152 25.9018 3.65655 27.207 2.80402C28.5182 1.94755 30.2367 1.4994 32.3987 1.4994V0.505025C30.1041 0.505025 28.1802 0.980581 26.6632 1.97152C25.1401 2.96641 24.0705 4.45256 23.4411 6.39089L24.3868 6.69802ZM32.3987 1.4994C33.8066 1.4994 35.0072 1.67559 36.01 2.01583L36.3295 1.07418C35.1992 0.690695 33.8858 0.505025 32.3987 0.505025V1.4994ZM36.0125 2.01668C37.0503 2.3626 37.7864 2.80302 38.2635 3.31308L38.9897 2.63377C38.3622 1.96299 37.4604 1.45114 36.327 1.07334L36.0125 2.01668ZM38.2751 3.32498C38.8123 3.86221 39.1795 4.39085 39.3966 4.90836L40.3136 4.52381C40.0354 3.86049 39.5837 3.22736 38.9782 2.62186L38.2751 3.32498ZM39.4019 4.92072C39.6424 5.45313 39.7578 5.97409 39.7578 6.48732H40.7522C40.7522 5.81973 40.601 5.15986 40.3082 4.51145L39.4019 4.92072ZM39.7578 6.48732C39.7578 7.38385 39.4826 8.12055 38.9412 8.72753L39.6833 9.3894C40.399 8.587 40.7522 7.60962 40.7522 6.48732H39.7578ZM38.9412 8.72753C38.3963 9.33846 37.6213 9.77123 36.577 10.0013L36.791 10.9724C37.994 10.7073 38.9712 10.1878 39.6833 9.3894L38.9412 8.72753ZM36.6345 10.9816C37.1356 11.0317 37.6676 11.1918 38.2329 11.4744L38.6776 10.585C38.0239 10.2581 37.3751 10.0563 36.7335 9.99216L36.6345 10.9816ZM38.2383 11.477C38.7729 11.7362 39.2945 12.1952 39.794 12.8909L40.6018 12.311C40.0347 11.5211 39.3946 10.9326 38.6721 10.5823L38.2383 11.477ZM39.8026 12.9026C40.2829 13.5319 40.5292 14.2805 40.5292 15.1721H41.5235C41.5235 14.0829 41.2175 13.1174 40.5931 12.2993L39.8026 12.9026ZM40.5292 15.1721C40.5292 16.9024 39.7901 18.2775 38.2587 19.3337L38.8232 20.1523C40.6056 18.923 41.5235 17.2508 41.5235 15.1721H40.5292ZM38.2582 19.334C36.8253 20.3246 34.8596 20.8456 32.313 20.8456V21.84C34.985 21.84 37.1711 21.2944 38.8237 20.152L38.2582 19.334ZM32.313 20.8456C30.0578 20.8456 28.2228 20.3744 26.7786 19.4651L26.2488 20.3066C27.8899 21.3399 29.9212 21.84 32.313 21.84V20.8456ZM26.7792 19.4655C25.4187 18.6063 24.4076 17.4183 23.7413 15.8878L22.8296 16.2847C23.5727 17.9919 24.7137 19.3371 26.2482 20.3062L26.7792 19.4655ZM23.4447 16.5573L25.473 15.8716L25.1546 14.9296L23.1262 15.6153L23.4447 16.5573ZM24.8592 15.6019C25.3965 16.8159 26.0789 17.7675 26.9233 18.4219L27.5324 17.6359C26.8532 17.1095 26.2596 16.3089 25.7684 15.1994L24.8592 15.6019ZM26.916 18.4161C28.3932 19.6061 30.2627 20.183 32.4844 20.183V19.1887C30.44 19.1887 28.8051 18.661 27.5398 17.6417L26.916 18.4161ZM32.4844 20.183C34.4196 20.183 36.0781 19.778 37.432 18.9369L36.9073 18.0922C35.7472 18.8129 34.2822 19.1887 32.4844 19.1887V20.183ZM37.4337 18.9358C38.8453 18.051 39.5809 16.7826 39.5809 15.1721H38.5865C38.5865 16.4184 38.0461 17.3783 36.9056 18.0933L37.4337 18.9358ZM39.5809 15.1721C39.5809 14.3131 39.3023 13.537 38.7565 12.8602L37.9825 13.4844C38.389 13.9884 38.5865 14.5454 38.5865 15.1721H39.5809ZM38.7577 12.8617C38.1559 12.1094 37.3833 11.6186 36.4538 11.4025L36.2285 12.371C36.9369 12.5357 37.5166 12.902 37.9813 13.4829L38.7577 12.8617ZM36.4644 11.405C35.595 11.1827 34.59 11.0753 33.4558 11.0753V12.0697C34.5308 12.0697 35.4494 12.1718 36.2179 12.3684L36.4644 11.405ZM33.4558 11.0753H30.2276V12.0697H33.4558V11.0753Z" fill="url(#paint1_linear_313_309)"/>
<defs>
<radialGradient id="paint0_radial_313_309" cx="0" cy="0" r="1" gradientUnits="userSpaceOnUse" gradientTransform="translate(21 10.5) rotate(90) scale(18.5 22)">
<stop stop-color="white"/>
<stop offset="1" stop-color="white" stop-opacity="0.64"/>
</radialGradient>
<linearGradient id="paint1_linear_313_309" x1="22.2683" y1="-11.8858" x2="46.8743" y2="-0.312959" gradientUnits="userSpaceOnUse">
<stop stop-color="white"/>
<stop offset="1" stop-color="white" stop-opacity="0.94"/>
</linearGradient>
</defs>
</svg>
