<svg width="41" height="22" viewBox="0 0 41 22" fill="none" xmlns="http://www.w3.org/2000/svg">
<path d="M19.3854 11.1725C19.3854 12.8295 19.0426 14.3912 18.357 15.8577C17.6713 17.3242 16.6905 18.5336 15.4145 19.4859C13.7765 20.7048 11.8815 21.3143 9.72937 21.3143C6.96777 21.3143 4.71088 20.3334 2.95869 18.3717C1.2065 16.391 0.33041 13.9817 0.33041 11.1439C0.33041 8.82039 0.920821 6.773 2.10164 5.00177C2.36828 4.62086 2.69205 4.23995 3.07296 3.85904C3.45387 3.47813 3.95858 3.0496 4.58708 2.57346C5.23463 2.09733 6.02502 1.71642 6.95825 1.43073C7.89148 1.12601 8.88185 0.973642 9.92935 0.973642C10.4055 0.973642 10.9007 1.02126 11.4149 1.11648C11.9482 1.19267 12.5672 1.35455 13.2718 1.60214C13.9956 1.83069 14.7193 2.2116 15.443 2.74487C16.1858 3.27815 16.8333 3.93522 17.3857 4.71608C18.7189 6.52541 19.3854 8.67755 19.3854 11.1725ZM17.3 11.0582C17.3 8.20141 16.4334 6.0207 14.7003 4.51611C13.329 3.33529 11.7101 2.74487 9.84364 2.74487C8.56759 2.74487 7.3582 3.0496 6.21547 3.65906C4.90133 4.36374 3.93001 5.3922 3.30151 6.74443C2.69205 8.09666 2.38733 9.59174 2.38733 11.2297C2.38733 12.4676 2.54921 13.5532 2.87299 14.4864C3.38722 16.0291 4.26331 17.2576 5.50127 18.1717C6.75827 19.0859 8.19621 19.543 9.81508 19.543C10.9007 19.543 11.891 19.343 12.7862 18.9431C13.986 18.4289 15.0335 17.5337 15.9287 16.2577C16.8429 14.9816 17.3 13.2485 17.3 11.0582ZM40.8549 21H23.7997V19.1716C28.4278 17.0385 31.5322 15.4958 33.1129 14.5436C36.1983 12.6771 37.9696 10.763 38.4266 8.80135C38.5219 8.40139 38.5695 8.00144 38.5695 7.60148C38.5695 7.33484 38.5314 7.03964 38.4552 6.71587C38.3981 6.37305 38.2362 5.95404 37.9696 5.45886C37.722 4.94463 37.3887 4.49706 36.9697 4.11615C36.5507 3.7162 35.9412 3.37338 35.1413 3.08769C34.3604 2.80201 33.4462 2.65917 32.3987 2.65917C31.0656 2.65917 29.8371 2.92581 28.7134 3.45908C27.5897 3.99236 26.7803 4.80179 26.2851 5.88738C25.9423 6.63016 25.7709 7.51578 25.7709 8.54423L23.7997 8.22998C24.0282 5.90643 24.9043 4.11615 26.428 2.85915C27.9707 1.5831 29.9895 0.945074 32.4844 0.945074C34.7699 0.945074 36.6649 1.54501 38.1695 2.74487C39.7884 4.02092 40.5978 5.63979 40.5978 7.60148C40.5978 8.51567 40.3979 9.43937 39.9979 10.3726C39.5789 11.3439 38.9028 12.2676 37.9696 13.1437C37.0363 14.0008 35.6746 14.953 33.8843 16.0006C32.2273 16.9719 29.8847 18.0765 26.8565 19.3145H40.8549V21Z" fill="url(#paint0_radial_284_26)"/>
<path d="M18.357 15.8577L17.9066 15.6471L17.9066 15.6471L18.357 15.8577ZM15.4145 19.4859L15.7113 19.8847L15.7118 19.8843L15.4145 19.4859ZM2.95869 18.3717L2.5863 18.7011L2.58789 18.7029L2.95869 18.3717ZM2.10164 5.00177L1.69423 4.71658L1.68796 4.72598L2.10164 5.00177ZM3.07296 3.85904L2.7214 3.50747L2.7214 3.50747L3.07296 3.85904ZM4.58708 2.57346L4.29252 2.17287L4.28685 2.17716L4.58708 2.57346ZM6.95825 1.43073L7.10381 1.90622L7.11258 1.90336L6.95825 1.43073ZM11.4149 1.11648L11.3244 1.60536L11.3344 1.60722L11.3446 1.60867L11.4149 1.11648ZM13.2718 1.60214L13.107 2.07122L13.1145 2.07386L13.1221 2.07625L13.2718 1.60214ZM15.443 2.74487L15.1481 3.14517L15.1531 3.14875L15.443 2.74487ZM17.3857 4.71608L16.9797 5.00325L16.9854 5.01101L17.3857 4.71608ZM14.7003 4.51611L15.0262 4.14066L15.0247 4.13936L14.7003 4.51611ZM6.21547 3.65906L5.9815 3.22036L5.98052 3.22089L6.21547 3.65906ZM3.30151 6.74443L2.85061 6.53486L2.84824 6.54014L3.30151 6.74443ZM2.87299 14.4864L3.34469 14.3292L3.34271 14.3235L2.87299 14.4864ZM5.50127 18.1717L5.20591 18.5717L5.20884 18.5738L5.50127 18.1717ZM12.7862 18.9431L12.5903 18.486L12.5834 18.4891L12.7862 18.9431ZM15.9287 16.2577L15.5245 15.9681L15.5217 15.9721L15.9287 16.2577ZM18.8883 11.1725C18.8883 12.7585 18.5607 14.2481 17.9066 15.6471L18.8074 16.0683C19.5246 14.5343 19.8826 12.9005 19.8826 11.1725H18.8883ZM17.9066 15.6471C17.2551 17.0406 16.3263 18.185 15.1171 19.0874L15.7118 19.8843C17.0547 18.8822 18.0876 17.6078 18.8074 16.0683L17.9066 15.6471ZM15.1176 19.087C13.5703 20.2385 11.7807 20.8171 9.72937 20.8171V21.8114C11.9823 21.8114 13.9828 21.1711 15.7113 19.8847L15.1176 19.087ZM9.72937 20.8171C7.10136 20.8171 4.98215 19.8908 3.3295 18.0405L2.58789 18.7029C4.43961 20.776 6.83419 21.8114 9.72937 21.8114V20.8171ZM3.33108 18.0423C1.66546 16.1594 0.827595 13.87 0.827595 11.1439H-0.166775C-0.166775 14.0935 0.747544 16.6225 2.5863 18.7011L3.33108 18.0423ZM0.827595 11.1439C0.827595 8.90918 1.39393 6.95965 2.51533 5.27756L1.68796 4.72598C0.447713 6.58635 -0.166775 8.73161 -0.166775 11.1439H0.827595ZM2.50895 5.28689C2.75661 4.93308 3.06096 4.57417 3.42453 4.2106L2.7214 3.50747C2.32315 3.90573 1.97995 4.30863 1.69433 4.71665L2.50895 5.28689ZM3.42453 4.2106C3.78387 3.85126 4.26944 3.43785 4.88731 2.96977L4.28685 2.17716C3.64772 2.66135 3.12388 3.105 2.7214 3.50747L3.42453 4.2106ZM4.88161 2.97402C5.47558 2.53728 6.21298 2.17884 7.10378 1.90614L6.81272 0.955325C5.83705 1.254 4.99368 1.65737 4.29255 2.17291L4.88161 2.97402ZM7.11258 1.90336C7.99274 1.61596 8.93074 1.47083 9.92935 1.47083V0.476457C8.83295 0.476457 7.79022 0.636051 6.80392 0.958106L7.11258 1.90336ZM9.92935 1.47083C10.3723 1.47083 10.8371 1.51512 11.3244 1.60536L11.5054 0.62761C10.9642 0.527387 10.4387 0.476457 9.92935 0.476457V1.47083ZM11.3446 1.60867C11.836 1.67888 12.4222 1.8306 13.107 2.07122L13.4366 1.13307C12.7121 0.878503 12.0603 0.706452 11.4852 0.624295L11.3446 1.60867ZM13.1221 2.07625C13.7851 2.28562 14.4605 2.63847 15.1481 3.14514L15.738 2.34461C14.9781 1.78473 14.206 1.37576 13.4216 1.12804L13.1221 2.07625ZM15.1531 3.14875C15.8489 3.64835 16.4579 4.26533 16.9798 5.00319L17.7916 4.42898C17.2088 3.60511 16.5227 2.90795 15.733 2.341L15.1531 3.14875ZM16.9854 5.01101C18.2487 6.72551 18.8883 8.77141 18.8883 11.1725H19.8826C19.8826 8.5837 19.189 6.32531 17.7859 4.42115L16.9854 5.01101ZM17.7971 11.0582C17.7971 8.09553 16.8939 5.76212 15.0262 4.14066L14.3743 4.89155C15.9728 6.27928 16.8028 8.3073 16.8028 11.0582H17.7971ZM15.0247 4.13936C13.5601 2.87821 11.8251 2.24769 9.84364 2.24769V3.24206C11.5951 3.24206 13.0978 3.79236 14.3758 4.89286L15.0247 4.13936ZM9.84364 2.24769C8.48473 2.24769 7.19512 2.5731 5.9815 3.22037L6.44944 4.09775C7.52129 3.5261 8.65046 3.24206 9.84364 3.24206V2.24769ZM5.98052 3.22089C4.57157 3.97642 3.52449 5.08509 2.85065 6.53488L3.75238 6.95399C4.33554 5.69931 5.2311 4.75107 6.45043 4.09722L5.98052 3.22089ZM2.84824 6.54014C2.20694 7.96301 1.89014 9.5287 1.89014 11.2297H2.88451C2.88451 9.65477 3.17717 8.23032 3.75478 6.94873L2.84824 6.54014ZM1.89014 11.2297C1.89014 12.5096 2.05737 13.6524 2.40327 14.6494L3.34271 14.3235C3.04105 13.454 2.88451 12.4256 2.88451 11.2297H1.89014ZM2.40131 14.6437C2.94598 16.2776 3.88078 17.5931 5.20592 18.5717L5.79662 17.7718C4.64583 16.922 3.82845 15.7806 3.34466 14.3292L2.40131 14.6437ZM5.20884 18.5738C6.55451 19.5525 8.09579 20.0402 9.81508 20.0402V19.0458C8.29662 19.0458 6.96203 18.6193 5.7937 17.7696L5.20884 18.5738ZM9.81508 20.0402C10.963 20.0402 12.0235 19.8284 12.989 19.397L12.5834 18.4891C11.7586 18.8577 10.8383 19.0458 9.81508 19.0458V20.0402ZM12.982 19.4001C14.2821 18.8429 15.3979 17.8801 16.3357 16.5432L15.5217 15.9721C14.6692 17.1873 13.69 18.0148 12.5903 18.4861L12.982 19.4001ZM16.3329 16.5472C17.3272 15.1592 17.7971 13.3124 17.7971 11.0582H16.8028C16.8028 13.1845 16.3585 14.804 15.5245 15.9681L16.3329 16.5472ZM40.8549 21V21.4972H41.3521V21H40.8549ZM23.7997 21H23.3025V21.4972H23.7997V21ZM23.7997 19.1716L23.5916 18.7201L23.3025 18.8533V19.1716H23.7997ZM33.1129 14.5436L33.3695 14.9695L33.3703 14.969L33.1129 14.5436ZM38.4266 8.80135L37.943 8.68619L37.9424 8.68852L38.4266 8.80135ZM38.4552 6.71587L37.9648 6.7976L37.9675 6.81378L37.9712 6.82974L38.4552 6.71587ZM37.9696 5.45886L37.5216 5.67455L37.5265 5.68468L37.5318 5.69458L37.9696 5.45886ZM36.9697 4.11615L36.6263 4.4759L36.6352 4.48404L36.9697 4.11615ZM35.1413 3.08769L34.9705 3.55463L34.9741 3.55591L35.1413 3.08769ZM28.7134 3.45908L28.5003 3.00991L28.5003 3.00991L28.7134 3.45908ZM26.2851 5.88738L26.7366 6.09574L26.7375 6.09372L26.2851 5.88738ZM25.7709 8.54423L25.6926 9.03522L26.2681 9.12696V8.54423H25.7709ZM23.7997 8.22998L23.3049 8.18131L23.2591 8.64726L23.7214 8.72097L23.7997 8.22998ZM26.428 2.85915L26.7444 3.24266L26.7449 3.24226L26.428 2.85915ZM38.1695 2.74487L37.8595 3.1336L37.8618 3.13534L38.1695 2.74487ZM39.9979 10.3726L40.4544 10.5695L40.4549 10.5685L39.9979 10.3726ZM37.9696 13.1437L38.3059 13.5099L38.3098 13.5062L37.9696 13.1437ZM33.8843 16.0006L33.6332 15.5714L33.6329 15.5716L33.8843 16.0006ZM26.8565 19.3145L26.6684 18.8543L26.8565 19.8117V19.3145ZM40.8549 19.3145H41.3521V18.8173H40.8549V19.3145ZM40.8549 20.5028H23.7997V21.4972H40.8549V20.5028ZM24.2969 21V19.1716H23.3025V21H24.2969ZM24.0078 19.6232C28.6332 17.4913 31.7618 15.9379 33.3695 14.9695L32.8564 14.1177C31.3025 15.0538 28.2223 16.5858 23.5916 18.7201L24.0078 19.6232ZM33.3703 14.969C36.4871 13.0835 38.4067 11.0777 38.9109 8.91417L37.9424 8.68852C37.5324 10.4484 35.9096 12.2707 32.8556 14.1182L33.3703 14.969ZM38.9103 8.91651C39.0143 8.47988 39.0667 8.04129 39.0667 7.60148H38.0723C38.0723 7.96158 38.0295 8.3229 37.943 8.68619L38.9103 8.91651ZM39.0667 7.60148C39.0667 7.28845 39.0221 6.95433 38.9392 6.60199L37.9712 6.82974C38.0407 7.12495 38.0723 7.38124 38.0723 7.60148H39.0667ZM38.9456 6.63413C38.8757 6.21456 38.6859 5.74052 38.4073 5.22315L37.5318 5.69458C37.7865 6.16756 37.9204 6.53153 37.9648 6.7976L38.9456 6.63413ZM38.4175 5.24317C38.1424 4.67186 37.7708 4.17249 37.3041 3.74826L36.6352 4.48404C37.0066 4.82163 37.3015 5.21741 37.5216 5.67455L38.4175 5.24317ZM37.313 3.75651C36.8257 3.29139 36.146 2.91858 35.3085 2.61947L34.9741 3.55591C35.7364 3.82817 36.2756 4.141 36.6264 4.47579L37.313 3.75651ZM35.3121 2.62078C34.4644 2.31063 33.49 2.16198 32.3987 2.16198V3.15636C33.4025 3.15636 34.2565 3.29339 34.9705 3.55461L35.3121 2.62078ZM32.3987 2.16198C30.9972 2.16198 29.6953 2.44279 28.5003 3.00991L28.9266 3.90825C29.979 3.40883 31.1339 3.15636 32.3987 3.15636V2.16198ZM28.5003 3.00991C27.2756 3.5911 26.3788 4.48404 25.8328 5.68105L26.7375 6.09372C27.1818 5.11954 27.9039 4.39361 28.9266 3.90825L28.5003 3.00991ZM25.8337 5.67903C25.454 6.50167 25.2737 7.46178 25.2737 8.54423H26.2681C26.2681 7.56977 26.4306 6.75865 26.7366 6.09573L25.8337 5.67903ZM25.8492 8.05325L23.878 7.739L23.7214 8.72097L25.6926 9.03522L25.8492 8.05325ZM24.2945 8.27865C24.5127 6.06032 25.3404 4.40097 26.7444 3.24266L26.1116 2.47563C24.4683 3.83133 23.5438 5.75254 23.3049 8.18131L24.2945 8.27865ZM26.7449 3.24226C28.1782 2.05668 30.0759 1.44226 32.4844 1.44226V0.447889C29.9031 0.447889 27.7631 1.10952 26.1111 2.47604L26.7449 3.24226ZM32.4844 1.44226C34.6792 1.44226 36.4588 2.01652 37.8595 3.13359L38.4795 2.35616C36.8711 1.0735 34.8606 0.447889 32.4844 0.447889V1.44226ZM37.8618 3.13534C39.3681 4.32266 40.1006 5.80083 40.1006 7.60148H41.095C41.095 5.47876 40.2087 3.71919 38.4773 2.35441L37.8618 3.13534ZM40.1006 7.60148C40.1006 8.44124 39.9173 9.29854 39.5409 10.1768L40.4549 10.5685C40.8784 9.5802 41.095 8.59009 41.095 7.60148H40.1006ZM39.5414 10.1757C39.1544 11.0727 38.523 11.9422 37.6293 12.7812L38.3098 13.5062C39.2825 12.5931 40.0034 11.6151 40.4544 10.5695L39.5414 10.1757ZM37.6333 12.7775C36.7373 13.6004 35.4096 14.532 33.6332 15.5714L34.1354 16.4297C35.9395 15.3741 37.3354 14.4012 38.3059 13.5099L37.6333 12.7775ZM33.6329 15.5716C32.0055 16.5256 29.6877 17.62 26.6684 18.8543L27.0446 19.7747C30.0818 18.5331 32.4492 17.4181 34.1357 16.4295L33.6329 15.5716ZM26.8565 19.8117H40.8549V18.8173H26.8565V19.8117ZM40.3578 19.3145V21H41.3521V19.3145H40.3578Z" fill="url(#paint1_linear_284_26)"/>
<defs>
<radialGradient id="paint0_radial_284_26" cx="0" cy="0" r="1" gradientUnits="userSpaceOnUse" gradientTransform="translate(21 10.5) rotate(90) scale(18.5 22)">
<stop stop-color="white"/>
<stop offset="1" stop-color="white" stop-opacity="0.64"/>
</radialGradient>
<linearGradient id="paint1_linear_284_26" x1="22.2683" y1="-11.8858" x2="46.8743" y2="-0.312959" gradientUnits="userSpaceOnUse">
<stop stop-color="white"/>
<stop offset="1" stop-color="white" stop-opacity="0.94"/>
</linearGradient>
</defs>
</svg>
