<svg width="289" height="63" viewBox="0 0 289 63" fill="none" xmlns="http://www.w3.org/2000/svg">
<path d="M0.687927 0.420822V62.1497H22.7215V40.3784H39.4215C46.1539 40.3784 54.7225 40.291 60.6681 36.269C68.1875 31.2852 68.5372 23.0664 68.5372 20.0936C68.5372 14.935 67.3131 11.7873 66.3513 9.77632C61.8922 0.770561 52.799 0.420822 43.0063 0.420822H0.687927ZM22.7215 14.4104H38.8094C41.4325 14.4104 44.1429 14.6727 45.6293 17.2957C45.8916 17.8203 46.4162 18.8695 46.4162 20.4433C46.4162 23.3287 44.8424 25.4271 42.1319 26.1266C40.9078 26.4763 39.6838 26.4763 37.1482 26.4763H22.7215V14.4104ZM106.265 62.1497V0.420822H84.1436V62.1497H106.265ZM202.792 62.1497L175.513 28.7496L198.508 0.420822H170.966L161.436 17.2083L151.818 0.420822H124.189L147.446 28.6622L120.079 62.1497H147.446L161.348 40.7282L175.25 62.1497H202.792ZM288.432 0.420822H262.902L249.437 24.9899L235.972 0.420822H210.179L238.507 43.7884V62.1497H260.453V43.7884L288.432 0.420822Z" fill="url(#paint0_radial_267_490)"/>
<path d="M0.687927 0.420822V-1.10084H-0.833733V0.420822H0.687927ZM0.687927 62.1497H-0.833733V63.6713H0.687927V62.1497ZM22.7215 62.1497V63.6713H24.2431V62.1497H22.7215ZM22.7215 40.3784V38.8568H21.1998V40.3784H22.7215ZM60.6681 36.269L59.8274 35.0007L59.8214 35.0046L59.8155 35.0086L60.6681 36.269ZM66.3513 9.77633L67.7241 9.1198L67.7196 9.11043L67.715 9.10112L66.3513 9.77633ZM22.7215 14.4104V12.8887H21.1998V14.4104H22.7215ZM45.6293 17.2957L46.9903 16.6152L46.9727 16.5799L46.9532 16.5455L45.6293 17.2957ZM42.1319 26.1266L41.7517 24.6532L41.7327 24.6581L41.7139 24.6635L42.1319 26.1266ZM22.7215 26.4763H21.1998V27.998H22.7215V26.4763ZM-0.833733 0.420822V62.1497H2.20959V0.420822H-0.833733ZM0.687927 63.6713H22.7215V60.628H0.687927V63.6713ZM24.2431 62.1497V40.3784H21.1998V62.1497H24.2431ZM22.7215 41.9001H39.4215V38.8568H22.7215V41.9001ZM39.4215 41.9001C42.7805 41.9001 46.7057 41.8802 50.552 41.3388C54.3953 40.7978 58.2797 39.7218 61.5207 37.5294L59.8155 35.0086C57.1109 36.8382 53.7383 37.8169 50.1278 38.3252C46.5202 38.833 42.7949 38.8568 39.4215 38.8568V41.9001ZM61.5087 37.5374C69.7237 32.0926 70.0588 23.1319 70.0588 20.0936H67.0155C67.0155 23.0009 66.6512 30.4779 59.8274 35.0007L61.5087 37.5374ZM70.0588 20.0936C70.0588 14.6587 68.7602 11.2863 67.7241 9.1198L64.9786 10.4329C65.866 12.2883 67.0155 15.2113 67.0155 20.0936H70.0588ZM67.715 9.10112C65.2709 4.16504 61.5113 1.57893 57.115 0.263602C52.8142 -1.02318 47.8725 -1.10084 43.0063 -1.10084V1.94248C47.9327 1.94248 52.434 2.0397 56.2427 3.17922C59.956 4.29021 62.9726 6.38185 64.9877 10.4515L67.715 9.10112ZM43.0063 -1.10084H0.687927V1.94248H43.0063V-1.10084ZM22.7215 15.932H38.8094V12.8887H22.7215V15.932ZM38.8094 15.932C41.4582 15.932 43.2859 16.2468 44.3054 18.0459L46.9532 16.5455C44.9999 13.0986 41.4067 12.8887 38.8094 12.8887V15.932ZM44.2683 17.9762C44.5011 18.4418 44.8946 19.2315 44.8946 20.4433H47.9379C47.9379 18.5076 47.2821 17.1988 46.9903 16.6152L44.2683 17.9762ZM44.8946 20.4433C44.8946 21.6054 44.5806 22.5176 44.0748 23.1895C43.5716 23.8579 42.8102 24.3801 41.7517 24.6532L42.5122 27.6C44.1642 27.1737 45.5449 26.2968 46.5062 25.0199C47.4649 23.7463 47.9379 22.1666 47.9379 20.4433H44.8946ZM41.7139 24.6635C40.7406 24.9416 39.7622 24.9547 37.1482 24.9547V27.998C39.6054 27.998 41.0751 28.0111 42.55 27.5897L41.7139 24.6635ZM37.1482 24.9547H22.7215V27.998H37.1482V24.9547ZM24.2431 26.4763V14.4104H21.1998V26.4763H24.2431ZM106.265 62.1497V63.6713H107.786V62.1497H106.265ZM106.265 0.420822H107.786V-1.10084H106.265V0.420822ZM84.1436 0.420822V-1.10084H82.6219V0.420822H84.1436ZM84.1436 62.1497H82.6219V63.6713H84.1436V62.1497ZM107.786 62.1497V0.420822H104.743V62.1497H107.786ZM106.265 -1.10084H84.1436V1.94248H106.265V-1.10084ZM82.6219 0.420822V62.1497H85.6652V0.420822H82.6219ZM84.1436 63.6713H106.265V60.628H84.1436V63.6713ZM202.792 62.1497V63.6713H206L203.971 61.1871L202.792 62.1497ZM175.513 28.7496L174.331 27.7906L173.55 28.7526L174.334 29.7122L175.513 28.7496ZM198.508 0.420822L199.689 1.37982L201.703 -1.10084H198.508V0.420822ZM170.966 0.420822V-1.10084H170.08L169.643 -0.330419L170.966 0.420822ZM161.436 17.2083L160.115 17.9647L161.442 20.2798L162.759 17.9595L161.436 17.2083ZM151.818 0.420822L153.138 -0.335614L152.7 -1.10084H151.818V0.420822ZM124.189 0.420822V-1.10084H120.964L123.014 1.38815L124.189 0.420822ZM147.446 28.6622L148.624 29.6251L149.414 28.6585L148.621 27.6949L147.446 28.6622ZM120.079 62.1497L118.901 61.1868L116.87 63.6713H120.079V62.1497ZM147.446 62.1497V63.6713H148.273L148.723 62.978L147.446 62.1497ZM161.348 40.7282L162.625 39.8998L161.348 37.933L160.072 39.8998L161.348 40.7282ZM175.25 62.1497L173.974 62.978L174.424 63.6713H175.25V62.1497ZM203.971 61.1871L176.691 27.7871L174.334 29.7122L201.614 63.1122L203.971 61.1871ZM176.694 29.7086L199.689 1.37982L197.327 -0.538177L174.331 27.7906L176.694 29.7086ZM198.508 -1.10084H170.966V1.94248H198.508V-1.10084ZM169.643 -0.330419L160.112 16.457L162.759 17.9595L172.289 1.17206L169.643 -0.330419ZM162.756 16.4518L153.138 -0.335614L150.498 1.17726L160.115 17.9647L162.756 16.4518ZM151.818 -1.10084H124.189V1.94248H151.818V-1.10084ZM123.014 1.38815L146.272 29.6295L148.621 27.6949L125.363 -0.546508L123.014 1.38815ZM146.268 27.6993L118.901 61.1868L121.257 63.1126L148.624 29.6251L146.268 27.6993ZM120.079 63.6713H147.446V60.628H120.079V63.6713ZM148.723 62.978L162.625 41.5565L160.072 39.8998L146.17 61.3213L148.723 62.978ZM160.072 41.5565L173.974 62.978L176.527 61.3213L162.625 39.8998L160.072 41.5565ZM175.25 63.6713H202.792V60.628H175.25V63.6713ZM288.432 0.420822L289.711 1.24576L291.225 -1.10084H288.432V0.420822ZM262.902 0.420822V-1.10084H262L261.567 -0.310488L262.902 0.420822ZM249.437 24.9899L248.102 25.7213L249.437 28.1561L250.771 25.7213L249.437 24.9899ZM235.972 0.420822L237.306 -0.310489L236.873 -1.10084H235.972V0.420822ZM210.179 0.420822V-1.10084H207.367L208.905 1.253L210.179 0.420822ZM238.507 43.7884H240.029V43.3354L239.781 42.9562L238.507 43.7884ZM238.507 62.1497H236.986V63.6713H238.507V62.1497ZM260.453 62.1497V63.6713H261.975V62.1497H260.453ZM260.453 43.7884L259.175 42.9635L258.932 43.3401V43.7884H260.453ZM288.432 -1.10084H262.902V1.94248H288.432V-1.10084ZM261.567 -0.310488L248.102 24.2586L250.771 25.7213L264.236 1.15213L261.567 -0.310488ZM250.771 24.2586L237.306 -0.310489L234.637 1.15213L248.102 25.7213L250.771 24.2586ZM235.972 -1.10084H210.179V1.94248H235.972V-1.10084ZM208.905 1.253L237.233 44.6206L239.781 42.9562L211.452 -0.411352L208.905 1.253ZM236.986 43.7884V62.1497H240.029V43.7884H236.986ZM238.507 63.6713H260.453V60.628H238.507V63.6713ZM261.975 62.1497V43.7884H258.932V62.1497H261.975ZM261.732 44.6133L289.711 1.24576L287.154 -0.404111L259.175 42.9635L261.732 44.6133Z" fill="url(#paint1_linear_267_490)"/>
<defs>
<radialGradient id="paint0_radial_267_490" cx="0" cy="0" r="1" gradientUnits="userSpaceOnUse" gradientTransform="translate(141.5 31.1497) rotate(90) scale(38 146.5)">
<stop stop-color="white"/>
<stop offset="1" stop-color="white" stop-opacity="0.64"/>
</radialGradient>
<linearGradient id="paint1_linear_267_490" x1="149.946" y1="-14.8319" x2="210.128" y2="76.9316" gradientUnits="userSpaceOnUse">
<stop stop-color="white"/>
<stop offset="1" stop-color="white" stop-opacity="0"/>
</linearGradient>
</defs>
</svg>
