<svg width="317" height="844" viewBox="0 0 317 844" fill="none" xmlns="http://www.w3.org/2000/svg">
<path d="M25.83 572V564.147H24.6109V566.993C24.3007 567.652 23.5497 568.071 22.668 568.071C21.5687 568.071 20.8939 567.347 20.8939 566.166V564.147H19.6748V566.264C19.6748 568.011 20.8286 569.159 22.5538 569.159C23.3701 569.159 24.0667 568.893 24.5674 568.403H24.6109V572H25.83ZM29.3184 571.118C28.6381 571.118 28.1973 570.792 28.1973 570.286C28.1973 569.763 28.6164 569.464 29.4218 569.415L30.8586 569.317V569.78C30.8586 570.558 30.1946 571.118 29.3184 571.118ZM29.0028 572.06C29.8082 572.06 30.5429 571.657 30.8694 571.015H30.8967V572H32.0232V567.946C32.0232 566.775 31.0926 566.014 29.6504 566.014C28.3225 566.014 27.332 566.786 27.2994 567.831H28.4041C28.5075 567.32 28.9756 566.988 29.6177 566.988C30.4069 566.988 30.8586 567.358 30.8586 568.033V568.49L29.264 568.582C27.8055 568.675 27.0055 569.273 27.0055 570.307C27.0055 571.363 27.8218 572.06 29.0028 572.06ZM38.3416 567.973C38.1838 566.895 37.2586 566.014 35.8164 566.014C34.1456 566.014 33.0518 567.205 33.0518 569.045C33.0518 570.917 34.1511 572.071 35.8273 572.071C37.1987 572.071 38.1729 571.298 38.3525 570.133H37.2151C37.0409 570.743 36.5565 571.08 35.8327 571.08C34.8858 571.08 34.2436 570.318 34.2436 569.045C34.2436 567.804 34.8749 567.01 35.8273 567.01C36.5838 567.01 37.0572 567.418 37.2042 567.973H38.3416ZM43.7185 566.09H38.8205V567.026H40.6872V572H41.8518V567.026H43.7185V566.09ZM46.8097 568.849C47.5171 568.849 47.9797 569.284 47.9797 569.959C47.9797 570.629 47.5226 571.069 46.8097 571.069H45.7756V568.849H46.8097ZM44.6056 572H46.9022C48.2736 572 49.1498 571.211 49.1498 569.959C49.1498 568.713 48.2736 567.924 46.9022 567.924H45.7756V566.09H44.6056V572ZM23.5932 587.064H20.8721V587.02C21.1497 586.639 21.2912 586.024 21.3401 585.322L21.5089 583.02H23.5932V587.064ZM20.1918 589.551V588H24.5946V589.551H25.683V587.064H24.7579V582.09H20.4912L20.2735 585.273C20.2191 586.068 20.0231 586.792 19.5878 587.064H19.1088V589.551H20.1918ZM28.2681 585.322L28.4368 583.026H30.2926V588H31.4572V582.09H27.4028L27.1905 585.273C27.1252 586.313 26.9184 586.999 26.3361 586.999C26.1946 586.999 26.0803 586.971 26.0259 586.955V587.995C26.0966 588.022 26.2327 588.054 26.4286 588.054C27.7347 588.054 28.1538 586.993 28.2681 585.322ZM35.011 585.05C34.3089 585.05 33.8518 584.642 33.8518 584.065C33.8518 583.412 34.3035 583.02 35.011 583.02H36.094V585.05H35.011ZM36.094 588H37.2477V582.09H34.9565C33.5742 582.09 32.6871 582.846 32.6871 584.076C32.6871 584.903 33.1878 585.513 34.0096 585.758L32.3933 588H33.7266L35.1633 585.954H36.094V588ZM42.2926 588L45.0627 583.804H45.1062V588H46.2654V582.09H45.1062L42.3362 586.269H42.2926V582.09H41.1334V588H42.2926ZM49.6886 588.109C51.1416 588.109 52.0832 587.369 52.0832 586.248C52.0832 585.573 51.6859 585.083 50.924 584.903V584.86C51.5063 584.718 51.8818 584.201 51.8818 583.603C51.8818 582.623 51.109 581.975 49.694 581.975C48.3825 581.975 47.5008 582.629 47.3811 583.673H48.5131C48.5893 583.205 49.041 582.917 49.6995 582.917C50.4015 582.917 50.7335 583.249 50.7335 583.706C50.7335 584.239 50.3743 584.506 49.6723 584.506H48.8233V585.382H49.6886C50.5104 585.382 50.9185 585.66 50.9185 586.258C50.9185 586.792 50.4777 587.162 49.6886 587.162C48.9974 587.162 48.5403 586.873 48.4205 586.362H47.2559C47.3648 587.439 48.3171 588.109 49.6886 588.109ZM55.7893 588.114C57.5254 588.114 58.6029 586.966 58.6029 585.105C58.6029 583.352 57.5798 582.237 55.9798 582.237C55.0546 582.237 54.3362 582.618 53.9553 583.314H53.9117C54.1403 581.589 54.6355 580.86 56.2247 580.805L56.7308 580.789C57.4492 580.762 58.0532 580.609 58.2111 580.468V579.488C57.9281 579.635 57.2913 579.755 56.6655 579.782L56.1539 579.799C53.8954 579.886 52.9539 581.235 52.9539 584.555C52.9539 586.895 53.9444 588.114 55.7893 588.114ZM55.7784 587.118C54.7498 587.118 54.1621 586.395 54.1621 585.116C54.1621 583.902 54.7553 583.205 55.7784 583.205C56.8015 583.205 57.3947 583.902 57.3947 585.116C57.3947 586.395 56.8015 587.118 55.7784 587.118ZM62.7063 582.03C61.8846 582.03 61.1553 582.433 60.8233 583.069H60.7961V582.09H59.6587V589.959H60.8397V587.031H60.8614C61.2152 587.684 61.8846 588.06 62.7335 588.06C64.2193 588.06 65.2043 586.873 65.2043 585.045C65.2043 583.211 64.2138 582.03 62.7063 582.03ZM62.407 587.058C61.4655 587.058 60.8342 586.253 60.8288 585.045C60.8342 583.842 61.4709 583.031 62.407 583.031C63.3648 583.031 63.9961 583.826 63.9961 585.045C63.9961 586.269 63.3648 587.058 62.407 587.058ZM68.3172 587.118C67.637 587.118 67.1961 586.792 67.1961 586.286C67.1961 585.763 67.6152 585.464 68.4206 585.415L69.8574 585.317V585.78C69.8574 586.558 69.1934 587.118 68.3172 587.118ZM68.0016 588.06C68.807 588.06 69.5417 587.657 69.8683 587.015H69.8955V588H71.022V583.946C71.022 582.775 70.0914 582.014 68.6492 582.014C67.3213 582.014 66.3308 582.786 66.2982 583.831H67.4029C67.5064 583.32 67.9744 582.988 68.6166 582.988C69.4057 582.988 69.8574 583.358 69.8574 584.033V584.49L68.2628 584.582C66.8043 584.675 66.0043 585.273 66.0043 586.307C66.0043 587.363 66.8206 588.06 68.0016 588.06ZM76.203 588H77.3731V582.09H76.203V584.473H73.4873V582.09H72.3173V588H73.4873V585.41H76.203V588ZM82.5813 588H83.7513V582.09H82.5813V584.473H79.8656V582.09H78.6955V588H79.8656V585.41H82.5813V588ZM90.3037 588H91.4738V582.09H90.3037V588ZM87.2779 584.849C87.9854 584.849 88.4479 585.284 88.4479 585.959C88.4479 586.629 87.9908 587.069 87.2779 587.069H86.2439V584.849H87.2779ZM85.0738 588H87.3704C88.7418 588 89.618 587.211 89.618 585.959C89.618 584.713 88.7418 583.924 87.3704 583.924H86.2439V582.09H85.0738V588ZM94.9895 585.807L96.3119 588H97.6126L95.6861 585.007L97.6344 582.09H96.3391L95.0385 584.239H95.0112L93.6997 582.09H92.3772L94.3201 585.05L92.3554 588H93.6344L94.9623 585.807H94.9895Z" fill="#FFDB7D"/>
<circle cx="158" cy="26" r="26" fill="#D9D9D9"/>
<circle cx="158" cy="26" r="26" fill="url(#paint0_radial_602_2)"/>
<circle cx="158" cy="258" r="26" fill="#D9D9D9"/>
<circle cx="158" cy="258" r="26" fill="url(#paint1_radial_602_2)"/>
<circle cx="158" cy="515" r="26" fill="#D9D9D9"/>
<circle cx="158" cy="515" r="26" fill="url(#paint2_radial_602_2)"/>
<circle cx="158" cy="747" r="26" fill="#D9D9D9"/>
<circle cx="158" cy="747" r="26" fill="url(#paint3_radial_602_2)"/>
<circle cx="158" cy="157" r="26" fill="#D9D9D9"/>
<circle cx="158" cy="157" r="26" fill="url(#paint4_radial_602_2)"/>
<circle cx="158" cy="414" r="26" fill="#D9D9D9"/>
<circle cx="158" cy="414" r="26" fill="url(#paint5_radial_602_2)"/>
<circle cx="158" cy="680" r="26" fill="#D9D9D9"/>
<circle cx="158" cy="680" r="26" fill="url(#paint6_radial_602_2)"/>
<circle cx="158" cy="818" r="26" fill="#D9D9D9"/>
<circle cx="158" cy="818" r="26" fill="url(#paint7_radial_602_2)"/>
<path d="M122 27H11.5C9.33333 27.1667 5 28.7 5 33.5" stroke="url(#paint8_linear_602_2)" stroke-dasharray="2 2"/>
<path d="M122 265.5H11.5C9.33333 265.333 5 263.8 5 259" stroke="url(#paint9_linear_602_2)" stroke-dasharray="2 2"/>
<path d="M122 522.5H11.5C9.33333 522.333 5 520.8 5 516" stroke="url(#paint10_linear_602_2)" stroke-dasharray="2 2"/>
<path d="M122 754.5H11.5C9.33333 754.333 5 752.8 5 748" stroke="url(#paint11_linear_602_2)" stroke-dasharray="2 2"/>
<path d="M184 156.5H294.5C296.667 156.333 301 154.8 301 150" stroke="url(#paint12_linear_602_2)" stroke-dasharray="2 2"/>
<path d="M184 413.5H294.5C296.667 413.333 301 411.8 301 407" stroke="url(#paint13_linear_602_2)" stroke-dasharray="2 2"/>
<path d="M184 679.5H294.5C296.667 679.333 301 677.8 301 673" stroke="url(#paint14_linear_602_2)" stroke-dasharray="2 2"/>
<path d="M184 817.5H294.5C296.667 817.333 301 815.8 301 811" stroke="url(#paint15_linear_602_2)" stroke-dasharray="2 2"/>
<path d="M154.56 31.2188C157.041 31.2188 158.545 29.2295 158.545 26.0439C158.545 22.8584 157.027 20.9102 154.56 20.9102C152.092 20.9102 150.567 22.8652 150.567 26.0508C150.567 29.2432 152.078 31.2188 154.56 31.2188ZM154.56 29.5645C153.384 29.5645 152.666 28.293 152.666 26.0508C152.666 23.8291 153.397 22.5645 154.56 22.5645C155.729 22.5645 156.446 23.8223 156.446 26.0508C156.446 28.2998 155.735 29.5645 154.56 29.5645ZM162.216 31H164.26V21.1357H162.209L159.659 22.9062V24.7656L162.175 23.0293H162.216V31Z" fill="white"/>
<path d="M153.591 263.219C156.072 263.219 157.576 261.229 157.576 258.044C157.576 254.858 156.059 252.91 153.591 252.91C151.123 252.91 149.599 254.865 149.599 258.051C149.599 261.243 151.109 263.219 153.591 263.219ZM153.591 261.564C152.415 261.564 151.697 260.293 151.697 258.051C151.697 255.829 152.429 254.564 153.591 254.564C154.76 254.564 155.478 255.822 155.478 258.051C155.478 260.3 154.767 261.564 153.591 261.564ZM161.247 258.693H162.464C163.578 258.693 164.255 259.24 164.255 260.143C164.255 260.977 163.53 261.558 162.498 261.558C161.411 261.558 160.728 261.011 160.666 260.177H158.69C158.786 261.995 160.242 263.219 162.471 263.219C164.747 263.219 166.354 262.043 166.354 260.272C166.354 258.905 165.403 258.017 163.934 257.894V257.853C165.144 257.634 165.971 256.759 165.971 255.549C165.971 253.97 164.569 252.917 162.519 252.917C160.379 252.917 158.957 254.106 158.882 255.932H160.782C160.837 255.07 161.473 254.503 162.43 254.503C163.455 254.503 164.022 255.029 164.022 255.829C164.022 256.643 163.387 257.203 162.443 257.203H161.247V258.693Z" fill="white"/>
<path d="M153.659 520.219C156.141 520.219 157.645 518.229 157.645 515.044C157.645 511.858 156.127 509.91 153.659 509.91C151.191 509.91 149.667 511.865 149.667 515.051C149.667 518.243 151.178 520.219 153.659 520.219ZM153.659 518.564C152.483 518.564 151.766 517.293 151.766 515.051C151.766 512.829 152.497 511.564 153.659 511.564C154.828 511.564 155.546 512.822 155.546 515.051C155.546 517.3 154.835 518.564 153.659 518.564ZM162.642 520.219C164.904 520.219 166.449 518.797 166.449 516.705C166.449 514.784 165.096 513.396 163.209 513.396C162.204 513.396 161.418 513.813 161.015 514.477H160.974L161.199 511.776H165.854V510.136H159.579L159.094 515.81H160.939C161.281 515.242 161.924 514.9 162.669 514.9C163.735 514.9 164.48 515.666 164.48 516.76C164.48 517.833 163.735 518.585 162.655 518.585C161.698 518.585 160.96 518.011 160.844 517.177H158.937C158.998 518.961 160.522 520.219 162.642 520.219Z" fill="white"/>
<path d="M154.117 752.219C156.599 752.219 158.103 750.229 158.103 747.044C158.103 743.858 156.585 741.91 154.117 741.91C151.649 741.91 150.125 743.865 150.125 747.051C150.125 750.243 151.636 752.219 154.117 752.219ZM154.117 750.564C152.941 750.564 152.224 749.293 152.224 747.051C152.224 744.829 152.955 743.564 154.117 743.564C155.286 743.564 156.004 744.822 156.004 747.051C156.004 749.3 155.293 750.564 154.117 750.564ZM159.641 752H161.808L165.923 743.797V742.136H158.868V743.776H163.886V743.817L159.641 752Z" fill="white"/>
<path d="M153.81 162.219C156.291 162.219 157.795 160.229 157.795 157.044C157.795 153.858 156.277 151.91 153.81 151.91C151.342 151.91 149.817 153.865 149.817 157.051C149.817 160.243 151.328 162.219 153.81 162.219ZM153.81 160.564C152.634 160.564 151.916 159.293 151.916 157.051C151.916 154.829 152.647 153.564 153.81 153.564C154.979 153.564 155.696 154.822 155.696 157.051C155.696 159.3 154.985 160.564 153.81 160.564ZM158.882 155.103V155.137H160.796V155.103C160.796 154.193 161.5 153.523 162.457 153.523C163.373 153.523 164.022 154.111 164.022 154.85C164.022 155.533 163.715 156.032 162.717 157.03L158.998 160.612V162H166.169V160.359H161.719V160.318L164.125 158.001C165.212 156.921 166.032 155.998 166.032 154.768C166.032 153.12 164.604 151.917 162.525 151.917C160.372 151.917 158.882 153.236 158.882 155.103Z" fill="white"/>
<path d="M153.461 419.219C155.942 419.219 157.446 417.229 157.446 414.044C157.446 410.858 155.929 408.91 153.461 408.91C150.993 408.91 149.469 410.865 149.469 414.051C149.469 417.243 150.979 419.219 153.461 419.219ZM153.461 417.564C152.285 417.564 151.567 416.293 151.567 414.051C151.567 411.829 152.299 410.564 153.461 410.564C154.63 410.564 155.348 411.822 155.348 414.051C155.348 416.3 154.637 417.564 153.461 417.564ZM163.421 419H165.383V417.243H166.668V415.589H165.383V409.136H162.471C160.447 412.116 159.374 413.846 158.513 415.486V417.243H163.421V419ZM160.324 415.596C161.124 414.051 161.985 412.704 163.421 410.599H163.462V415.65H160.324V415.596Z" fill="white"/>
<path d="M153.495 685.219C155.977 685.219 157.48 683.229 157.48 680.044C157.48 676.858 155.963 674.91 153.495 674.91C151.027 674.91 149.503 676.865 149.503 680.051C149.503 683.243 151.014 685.219 153.495 685.219ZM153.495 683.564C152.319 683.564 151.602 682.293 151.602 680.051C151.602 677.829 152.333 676.564 153.495 676.564C154.664 676.564 155.382 677.822 155.382 680.051C155.382 682.3 154.671 683.564 153.495 683.564ZM162.73 685.226C164.938 685.226 166.518 683.77 166.518 681.739C166.518 679.866 165.13 678.485 163.257 678.485C161.999 678.485 161.028 679.128 160.632 680.092H160.591C160.543 677.863 161.377 676.544 162.751 676.544C163.523 676.544 164.159 676.981 164.357 677.638H166.388C166.114 676.024 164.645 674.91 162.765 674.91C160.215 674.91 158.629 676.879 158.629 680.146C158.629 681.459 158.909 682.573 159.456 683.407C160.146 684.583 161.315 685.226 162.73 685.226ZM162.71 683.578C161.698 683.578 160.912 682.785 160.912 681.78C160.912 680.782 161.691 680.037 162.717 680.037C163.749 680.037 164.508 680.782 164.508 681.801C164.508 682.792 163.715 683.578 162.71 683.578Z" fill="white"/>
<path d="M153.434 823.219C155.915 823.219 157.419 821.229 157.419 818.044C157.419 814.858 155.901 812.91 153.434 812.91C150.966 812.91 149.441 814.865 149.441 818.051C149.441 821.243 150.952 823.219 153.434 823.219ZM153.434 821.564C152.258 821.564 151.54 820.293 151.54 818.051C151.54 815.829 152.271 814.564 153.434 814.564C154.603 814.564 155.32 815.822 155.32 818.051C155.32 820.3 154.609 821.564 153.434 821.564ZM162.56 823.219C164.932 823.219 166.559 822.043 166.559 820.334C166.559 819.035 165.622 818.03 164.241 817.798V817.757C165.39 817.483 166.155 816.602 166.155 815.528C166.155 814.011 164.679 812.917 162.56 812.917C160.447 812.917 158.957 814.018 158.957 815.521C158.957 816.608 159.729 817.49 160.878 817.757V817.798C159.504 818.023 158.561 819.028 158.561 820.327C158.561 822.036 160.167 823.219 162.56 823.219ZM162.56 821.715C161.473 821.715 160.714 821.065 160.714 820.177C160.714 819.288 161.473 818.639 162.56 818.639C163.646 818.639 164.398 819.288 164.398 820.177C164.398 821.065 163.646 821.715 162.56 821.715ZM162.56 817.135C161.644 817.135 161.001 816.561 161.001 815.774C161.001 814.988 161.644 814.407 162.56 814.407C163.469 814.407 164.118 814.981 164.118 815.774C164.118 816.561 163.469 817.135 162.56 817.135Z" fill="white"/>
<rect x="157" y="51" width="2" height="80" fill="#E71744"/>
<rect x="157" y="183" width="2" height="49" fill="#E71744"/>
<rect x="157" y="440" width="2" height="49" fill="#E71744"/>
<rect x="157" y="284" width="2" height="106" fill="#E71744"/>
<rect x="157" y="541" width="2" height="38" fill="#E71744"/>
<rect x="157" y="706" width="2" height="15" fill="#D9D9D9"/>
<rect x="157" y="706" width="2" height="15" fill="url(#paint16_radial_602_2)"/>
<rect x="157" y="594" width="2" height="60" fill="#D9D9D9"/>
<rect x="157" y="594" width="2" height="60" fill="url(#paint17_radial_602_2)"/>
<path d="M317 586H106" stroke="#FFDB7D" stroke-dasharray="2 2"/>
<rect x="157" y="773" width="2" height="19" fill="#D9D9D9"/>
<rect x="157" y="773" width="2" height="19" fill="url(#paint18_radial_602_2)"/>
<path d="M6.54894 562.927C6.8483 562.006 8.1517 562.006 8.45106 562.927L8.95934 564.491C9.09322 564.903 9.47717 565.182 9.9104 565.182H11.5552C12.524 565.182 12.9267 566.422 12.143 566.991L10.8123 567.958C10.4618 568.213 10.3152 568.664 10.449 569.076L10.9573 570.641C11.2567 571.562 10.2022 572.328 9.41849 571.759L8.08779 570.792C7.7373 570.537 7.2627 570.537 6.91221 570.792L5.58151 571.759C4.7978 572.328 3.74332 571.562 4.04267 570.641L4.55095 569.076C4.68483 568.664 4.53817 568.213 4.18768 567.958L2.85698 566.991C2.07326 566.422 2.47604 565.182 3.44476 565.182H5.0896C5.52283 565.182 5.90678 564.903 6.04066 564.491L6.54894 562.927Z" fill="#FFDB7D"/>
<defs>
<radialGradient id="paint0_radial_602_2" cx="0" cy="0" r="1" gradientUnits="userSpaceOnUse" gradientTransform="translate(159.625 26) rotate(-90) scale(27.625 48.0633)">
<stop stop-color="#92030D"/>
<stop offset="1" stop-color="#F2194A"/>
</radialGradient>
<radialGradient id="paint1_radial_602_2" cx="0" cy="0" r="1" gradientUnits="userSpaceOnUse" gradientTransform="translate(159.625 258) rotate(-90) scale(27.625 48.0633)">
<stop stop-color="#92030D"/>
<stop offset="1" stop-color="#F2194A"/>
</radialGradient>
<radialGradient id="paint2_radial_602_2" cx="0" cy="0" r="1" gradientUnits="userSpaceOnUse" gradientTransform="translate(159.625 515) rotate(-90) scale(27.625 48.0633)">
<stop stop-color="#92030D"/>
<stop offset="1" stop-color="#F2194A"/>
</radialGradient>
<radialGradient id="paint3_radial_602_2" cx="0" cy="0" r="1" gradientUnits="userSpaceOnUse" gradientTransform="translate(159.625 747) rotate(-90) scale(27.625 48.0633)">
<stop stop-color="#6A6A6A"/>
<stop offset="0.0001" stop-color="#1B2566"/>
<stop offset="1" stop-color="#3F4885"/>
</radialGradient>
<radialGradient id="paint4_radial_602_2" cx="0" cy="0" r="1" gradientUnits="userSpaceOnUse" gradientTransform="translate(159.625 157) rotate(-90) scale(27.625 48.0633)">
<stop stop-color="#92030D"/>
<stop offset="1" stop-color="#F2194A"/>
</radialGradient>
<radialGradient id="paint5_radial_602_2" cx="0" cy="0" r="1" gradientUnits="userSpaceOnUse" gradientTransform="translate(159.625 414) rotate(-90) scale(27.625 48.0633)">
<stop stop-color="#92030D"/>
<stop offset="1" stop-color="#F2194A"/>
</radialGradient>
<radialGradient id="paint6_radial_602_2" cx="0" cy="0" r="1" gradientUnits="userSpaceOnUse" gradientTransform="translate(159.625 680) rotate(-90) scale(27.625 48.0633)">
<stop stop-color="#6A6A6A"/>
<stop offset="0.0001" stop-color="#1B2566"/>
<stop offset="1" stop-color="#3F4885"/>
</radialGradient>
<radialGradient id="paint7_radial_602_2" cx="0" cy="0" r="1" gradientUnits="userSpaceOnUse" gradientTransform="translate(159.625 818) rotate(-90) scale(27.625 48.0633)">
<stop stop-color="#6A6A6A"/>
<stop offset="0.0001" stop-color="#1B2566"/>
<stop offset="1" stop-color="#3F4885"/>
</radialGradient>
<linearGradient id="paint8_linear_602_2" x1="43.5" y1="28" x2="129.5" y2="21" gradientUnits="userSpaceOnUse">
<stop stop-color="white"/>
<stop offset="1" stop-color="white" stop-opacity="0"/>
</linearGradient>
<linearGradient id="paint9_linear_602_2" x1="43.5" y1="264.5" x2="129.5" y2="271.5" gradientUnits="userSpaceOnUse">
<stop stop-color="white"/>
<stop offset="1" stop-color="white" stop-opacity="0"/>
</linearGradient>
<linearGradient id="paint10_linear_602_2" x1="43.5" y1="521.5" x2="129.5" y2="528.5" gradientUnits="userSpaceOnUse">
<stop stop-color="white"/>
<stop offset="1" stop-color="white" stop-opacity="0"/>
</linearGradient>
<linearGradient id="paint11_linear_602_2" x1="43.5" y1="753.5" x2="129.5" y2="760.5" gradientUnits="userSpaceOnUse">
<stop stop-color="white"/>
<stop offset="1" stop-color="white" stop-opacity="0"/>
</linearGradient>
<linearGradient id="paint12_linear_602_2" x1="262.5" y1="155.5" x2="176.5" y2="162.5" gradientUnits="userSpaceOnUse">
<stop stop-color="white"/>
<stop offset="1" stop-color="white" stop-opacity="0"/>
</linearGradient>
<linearGradient id="paint13_linear_602_2" x1="262.5" y1="412.5" x2="176.5" y2="419.5" gradientUnits="userSpaceOnUse">
<stop stop-color="white"/>
<stop offset="1" stop-color="white" stop-opacity="0"/>
</linearGradient>
<linearGradient id="paint14_linear_602_2" x1="262.5" y1="678.5" x2="176.5" y2="685.5" gradientUnits="userSpaceOnUse">
<stop stop-color="white"/>
<stop offset="1" stop-color="white" stop-opacity="0"/>
</linearGradient>
<linearGradient id="paint15_linear_602_2" x1="262.5" y1="816.5" x2="176.5" y2="823.5" gradientUnits="userSpaceOnUse">
<stop stop-color="white"/>
<stop offset="1" stop-color="white" stop-opacity="0"/>
</linearGradient>
<radialGradient id="paint16_radial_602_2" cx="0" cy="0" r="1" gradientUnits="userSpaceOnUse" gradientTransform="translate(158.062 713.5) rotate(-90) scale(7.96875 1.84859)">
<stop stop-color="#6A6A6A"/>
<stop offset="0.0001" stop-color="#1B2566"/>
<stop offset="1" stop-color="#3F4885"/>
</radialGradient>
<radialGradient id="paint17_radial_602_2" cx="0" cy="0" r="1" gradientUnits="userSpaceOnUse" gradientTransform="translate(158.062 624) rotate(-90) scale(31.875 1.84859)">
<stop stop-color="#6A6A6A"/>
<stop offset="0.0001" stop-color="#1B2566"/>
<stop offset="1" stop-color="#3F4885"/>
</radialGradient>
<radialGradient id="paint18_radial_602_2" cx="0" cy="0" r="1" gradientUnits="userSpaceOnUse" gradientTransform="translate(158.062 782.5) rotate(-90) scale(10.0937 1.84859)">
<stop stop-color="#6A6A6A"/>
<stop offset="0.0001" stop-color="#1B2566"/>
<stop offset="1" stop-color="#3F4885"/>
</radialGradient>
</defs>
</svg>
