<svg width="202" height="184" viewBox="0 0 202 184" fill="none" xmlns="http://www.w3.org/2000/svg">
<circle cx="103.5" cy="28.5" r="27.6987" fill="url(#paint0_radial_402_2)" fill-opacity="0.1" stroke="url(#paint1_linear_402_2)" stroke-width="0.397314"/>
<path d="M106 27.0095V25C106 24.2044 105.684 23.4413 105.121 22.8787C104.559 22.3161 103.796 22 103 22C102.204 22 101.441 22.3161 100.879 22.8787C100.316 23.4413 100 24.2044 100 25V27.0095C99.1605 27.6391 98.5403 28.517 98.2274 29.5187C97.9145 30.5203 97.9247 31.5951 98.2566 32.5906C98.5884 33.5862 99.2251 34.4521 100.076 35.0657C100.928 35.6793 101.951 36.0095 103 36.0095C104.049 36.0095 105.072 35.6793 105.924 35.0657C106.775 34.4521 107.412 33.5862 107.743 32.5906C108.075 31.5951 108.085 30.5203 107.773 29.5187C107.46 28.517 106.84 27.6391 106 27.0095ZM103.5 31.3595V32C103.5 32.1326 103.447 32.2598 103.354 32.3536C103.26 32.4473 103.133 32.5 103 32.5C102.867 32.5 102.74 32.4473 102.646 32.3536C102.553 32.2598 102.5 32.1326 102.5 32V31.3615C102.309 31.2514 102.16 31.0815 102.076 30.8782C101.992 30.6748 101.977 30.4493 102.034 30.2367C102.091 30.024 102.217 29.8361 102.391 29.7021C102.566 29.5681 102.78 29.4955 103 29.4955C103.22 29.4955 103.434 29.5681 103.609 29.7021C103.783 29.8361 103.909 30.024 103.966 30.2367C104.023 30.4493 104.008 30.6748 103.924 30.8782C103.84 31.0815 103.691 31.2514 103.5 31.3615V31.3595ZM105 26.4185C104.37 26.1412 103.689 25.998 103 25.998C102.311 25.998 101.63 26.1412 101 26.4185V25C101 24.4696 101.211 23.9609 101.586 23.5858C101.961 23.2107 102.47 23 103 23C103.53 23 104.039 23.2107 104.414 23.5858C104.789 23.9609 105 24.4696 105 25V26.4185Z" fill="#D0D0D0"/>
<path d="M19.9083 100V83.8823H1.75874V100H7.55748V87.9916H14.1096V100H19.9083ZM23.8131 83.8823V100H29.5662V94.3154H33.9266C35.6845 94.3154 37.9218 94.2926 39.4742 93.2424C41.4376 91.9411 41.5289 89.7951 41.5289 89.0189C41.5289 87.672 41.2093 86.8501 40.9582 86.325C39.7939 83.9736 37.4196 83.8823 34.8626 83.8823H23.8131ZM29.5662 87.535H33.7668C34.4517 87.535 35.1594 87.6035 35.5475 88.2884C35.616 88.4254 35.753 88.6993 35.753 89.1102C35.753 89.8636 35.3421 90.4115 34.6343 90.5942C34.3147 90.6855 33.9951 90.6855 33.3331 90.6855H29.5662V87.535ZM64.7012 91.8726C64.7012 89.4299 63.7652 87.7633 63.2401 86.9871C61.916 85.0694 59.6102 83.2887 53.9028 83.2887C50.2957 83.2887 48.1269 84.1562 46.7571 85.0922C45.3645 86.0282 43.2641 88.1286 43.2641 92.1923C43.2641 93.699 43.6522 97.0321 47.0767 99.0183C48.4008 99.7717 50.4555 100.548 53.8799 100.548C56.7336 100.548 59.0394 100.183 61.1398 98.7672C64.4044 96.5527 64.7012 93.3109 64.7012 91.8726ZM58.7655 91.9183C58.7655 93.699 58.1034 96.9865 54.0626 96.9865C50.3413 96.9865 49.1999 94.1099 49.1999 91.9411C49.1999 89.3157 50.7066 86.8729 54.0397 86.8729C57.9436 86.8729 58.7655 90.1604 58.7655 91.9183ZM82.417 83.8823H67.9202V100H73.7189V87.9916H82.417V83.8823ZM85.1812 83.8823V100H90.9343V94.3154H95.2947C97.0526 94.3154 99.2899 94.2926 100.842 93.2424C102.806 91.9411 102.897 89.7951 102.897 89.0189C102.897 87.672 102.577 86.8501 102.326 86.325C101.162 83.9736 98.7877 83.8823 96.2307 83.8823H85.1812ZM90.9343 87.535H95.1349C95.8198 87.535 96.5275 87.6035 96.9156 88.2884C96.9841 88.4254 97.1211 88.6993 97.1211 89.1102C97.1211 89.8636 96.7102 90.4115 96.0024 90.5942C95.6828 90.6855 95.3632 90.6855 94.7012 90.6855H90.9343V87.535ZM124.448 100L117.463 83.8823H110.888L103.925 100H110.271L111.139 97.3746H117.303L118.17 100H124.448ZM116.093 93.8132H112.349L114.198 88.3569L116.093 93.8132ZM150.325 100V83.8823H142.7L138.637 94.4067L134.573 83.8823H126.925V100H132.587V89.7267L136.377 100H140.828L144.641 89.681V100H150.325ZM178.599 100V83.8823H170.974L166.911 94.4067L162.847 83.8823H155.199V100H160.861V89.7267L164.651 100H169.102L172.915 89.681V100H178.599ZM201.646 100L194.66 83.8823H188.085L181.122 100H187.468L188.336 97.3746H194.5L195.367 100H201.646ZM193.29 93.8132H189.546L191.395 88.3569L193.29 93.8132ZM60.5281 117.288C60.3911 116.855 60.0487 115.782 59.1583 114.823C57.8114 113.339 55.3229 112.197 50.9396 112.197C40.6206 112.197 40.0955 119.252 40.0955 120.941C40.0955 125.667 43.1775 127.653 44.7756 128.406C45.9856 128.977 47.7206 129.548 50.757 129.548C53.565 129.548 56.921 129.023 58.9985 126.923C60.2085 125.69 60.6422 124.366 60.8249 123.772L55.3229 123.201C54.8663 124.617 53.2683 125.895 50.894 125.895C50.1634 125.895 48.474 125.85 47.1956 124.206C46.7618 123.658 46.1454 122.631 46.1454 120.918C46.1454 119.64 46.5107 118.27 47.401 117.334C48.7252 115.941 50.5515 115.873 51.1451 115.873C52.8345 115.873 54.3413 116.535 55.1859 118.224L60.5281 117.288ZM80.5834 129V125.347H69.1458V122.768H79.5333V119.138H69.1458V116.489H80.3779V112.882H63.3698V129H80.5834ZM83.5286 112.882V129H89.3274V122.288H92.3409C94.875 122.288 95.1946 124.617 95.4914 126.443C95.6283 127.288 95.9708 128.315 96.7013 129H103.048C101.61 127.402 101.244 125.507 101.039 124.525C100.719 123.041 100.126 120.713 97.7972 120.165C99.3039 119.663 99.9888 117.768 100.308 116.581C100.491 115.919 100.948 114.366 102.363 112.882H96.0164C95.3087 113.613 94.9206 114.64 94.7152 115.188C94.1444 116.718 94.0988 118.635 91.7245 118.635H89.3274V112.882H83.5286ZM106.029 112.882V129H111.782V123.315H116.142C117.9 123.315 120.138 123.293 121.69 122.242C123.653 120.941 123.745 118.795 123.745 118.019C123.745 116.672 123.425 115.85 123.174 115.325C122.01 112.974 119.635 112.882 117.078 112.882H106.029ZM111.782 116.535H115.983C116.667 116.535 117.375 116.603 117.763 117.288C117.832 117.425 117.969 117.699 117.969 118.11C117.969 118.864 117.558 119.412 116.85 119.594C116.531 119.685 116.211 119.685 115.549 119.685H111.782V116.535ZM143.378 129V125.347H131.941V122.768H142.328V119.138H131.941V116.489H143.173V112.882H126.165V129H143.378ZM162.373 116.489V112.882H145.136V116.489H150.867V129H156.665V116.489H162.373ZM65.9454 141.882V158H71.6985V152.315H76.0589C77.8168 152.315 80.0541 152.293 81.6066 151.242C83.5699 149.941 83.6612 147.795 83.6612 147.019C83.6612 145.672 83.3416 144.85 83.0905 144.325C81.9262 141.974 79.5519 141.882 76.995 141.882H65.9454ZM71.6985 145.535H75.8991C76.584 145.535 77.2917 145.603 77.6799 146.288C77.7483 146.425 77.8853 146.699 77.8853 147.11C77.8853 147.864 77.4744 148.412 76.7667 148.594C76.4471 148.685 76.1274 148.685 75.4654 148.685H71.6985V145.535ZM92.3706 158V141.882H86.5947V158H92.3706ZM116.433 158L109.31 149.279L115.314 141.882H108.123L105.635 146.266L103.123 141.882H95.9092L101.982 149.256L94.8362 158H101.982L105.612 152.407L109.242 158H116.433ZM137.653 141.882H130.986L127.471 148.297L123.955 141.882H117.22L124.617 153.206V158H130.347V153.206L137.653 141.882Z" fill="url(#paint2_radial_402_2)"/>
<path d="M19.9083 100V100.397H20.3056V100H19.9083ZM19.9083 83.8823H20.3056V83.4849H19.9083V83.8823ZM1.75874 83.8823V83.4849H1.36143V83.8823H1.75874ZM1.75874 100H1.36143V100.397H1.75874V100ZM7.55748 100V100.397H7.95479V100H7.55748ZM7.55748 87.9916V87.5943H7.16016V87.9916H7.55748ZM14.1096 87.9916H14.5069V87.5943H14.1096V87.9916ZM14.1096 100H13.7123V100.397H14.1096V100ZM20.3056 100V83.8823H19.511V100H20.3056ZM19.9083 83.4849H1.75874V84.2796H19.9083V83.4849ZM1.36143 83.8823V100H2.15606V83.8823H1.36143ZM1.75874 100.397H7.55748V99.6027H1.75874V100.397ZM7.95479 100V87.9916H7.16016V100H7.95479ZM7.55748 88.3889H14.1096V87.5943H7.55748V88.3889ZM13.7123 87.9916V100H14.5069V87.9916H13.7123ZM14.1096 100.397H19.9083V99.6027H14.1096V100.397ZM23.8131 83.8823V83.4849H23.4158V83.8823H23.8131ZM23.8131 100H23.4158V100.397H23.8131V100ZM29.5662 100V100.397H29.9635V100H29.5662ZM29.5662 94.3154V93.9181H29.1688V94.3154H29.5662ZM39.4742 93.2424L39.2547 92.9112L39.2516 92.9133L39.4742 93.2424ZM40.9582 86.325L41.3166 86.1536L41.3142 86.1487L40.9582 86.325ZM29.5662 87.535V87.1377H29.1688V87.535H29.5662ZM35.5475 88.2884L35.9029 88.1107L35.8983 88.1015L35.8932 88.0925L35.5475 88.2884ZM34.6343 90.5942L34.535 90.2093L34.5252 90.2122L34.6343 90.5942ZM29.5662 90.6855H29.1688V91.0828H29.5662V90.6855ZM23.4158 83.8823V100H24.2104V83.8823H23.4158ZM23.8131 100.397H29.5662V99.6027H23.8131V100.397ZM29.9635 100V94.3154H29.1688V100H29.9635ZM29.5662 94.7127H33.9266V93.9181H29.5662V94.7127ZM33.9266 94.7127C34.8037 94.7127 35.8286 94.7075 36.8329 94.5662C37.8364 94.4249 38.8506 94.144 39.6969 93.5715L39.2516 92.9133C38.5454 93.391 37.6648 93.6466 36.7221 93.7793C35.7801 93.9119 34.8074 93.9181 33.9266 93.9181V94.7127ZM39.6937 93.5736C41.8387 92.1519 41.9262 89.8122 41.9262 89.0189H41.1316C41.1316 89.778 41.0365 91.7303 39.2547 92.9112L39.6937 93.5736ZM41.9262 89.0189C41.9262 87.5998 41.5871 86.7193 41.3166 86.1536L40.5997 86.4965C40.8314 86.9809 41.1316 87.7441 41.1316 89.0189H41.9262ZM41.3142 86.1487C40.6761 84.8599 39.6944 84.1846 38.5465 83.8412C37.4235 83.5052 36.1332 83.4849 34.8626 83.4849V84.2796C36.149 84.2796 37.3243 84.305 38.3187 84.6025C39.2883 84.8926 40.076 85.4387 40.6021 86.5013L41.3142 86.1487ZM34.8626 83.4849H23.8131V84.2796H34.8626V83.4849ZM29.5662 87.9323H33.7668V87.1377H29.5662V87.9323ZM33.7668 87.9323C34.4584 87.9323 34.9357 88.0145 35.2019 88.4843L35.8932 88.0925C35.3832 87.1925 34.445 87.1377 33.7668 87.1377V87.9323ZM35.1922 88.4661C35.253 88.5876 35.3557 88.7938 35.3557 89.1102H36.1503C36.1503 88.6048 35.9791 88.2631 35.9029 88.1107L35.1922 88.4661ZM35.3557 89.1102C35.3557 89.4137 35.2737 89.6519 35.1416 89.8273C35.0103 90.0018 34.8114 90.1381 34.5351 90.2095L34.7336 90.9789C35.165 90.8676 35.5255 90.6386 35.7765 90.3052C36.0268 89.9727 36.1503 89.5602 36.1503 89.1102H35.3557ZM34.5252 90.2122C34.2711 90.2848 34.0156 90.2882 33.3331 90.2882V91.0828C33.9747 91.0828 34.3584 91.0862 34.7435 90.9762L34.5252 90.2122ZM33.3331 90.2882H29.5662V91.0828H33.3331V90.2882ZM29.9635 90.6855V87.535H29.1688V90.6855H29.9635ZM63.2401 86.9871L63.5692 86.7645L63.567 86.7613L63.2401 86.9871ZM46.7571 85.0922L46.9787 85.422L46.9812 85.4203L46.7571 85.0922ZM47.0767 99.0183L46.8773 99.362L46.8802 99.3637L47.0767 99.0183ZM61.1398 98.7672L61.3618 99.0967L61.3628 99.096L61.1398 98.7672ZM65.0985 91.8726C65.0985 89.3235 64.1207 87.5798 63.5692 86.7645L62.911 87.2097C63.4096 87.9468 64.3039 89.5362 64.3039 91.8726H65.0985ZM63.567 86.7613C62.8726 85.7556 61.9142 84.7792 60.3843 84.0593C58.8611 83.3425 56.7959 82.8914 53.9028 82.8914V83.686C56.717 83.686 58.6584 84.1253 60.046 84.7783C61.4269 85.4281 62.2834 86.3008 62.9131 87.2128L63.567 86.7613ZM53.9028 82.8914C50.2274 82.8914 47.9778 83.7769 46.5329 84.7642L46.9812 85.4203C48.2759 84.5356 50.364 83.686 53.9028 83.686V82.8914ZM46.5354 84.7625C45.0628 85.7523 42.8668 87.964 42.8668 92.1923H43.6615C43.6615 88.2931 45.6662 86.3042 46.9787 85.422L46.5354 84.7625ZM42.8668 92.1923C42.8668 93.7521 43.2693 97.2694 46.8774 99.362L47.276 98.6746C44.0352 96.7949 43.6615 93.646 43.6615 92.1923H42.8668ZM46.8802 99.3637C48.2661 100.152 50.3888 100.945 53.8799 100.945V100.151C50.5222 100.151 48.5355 99.3912 47.2732 98.673L46.8802 99.3637ZM53.8799 100.945C56.7656 100.945 59.1654 100.577 61.3618 99.0967L60.9177 98.4377C58.9135 99.7884 56.7017 100.151 53.8799 100.151V100.945ZM61.3628 99.096C64.7905 96.7709 65.0985 93.36 65.0985 91.8726H64.3039C64.3039 93.2618 64.0183 96.3345 60.9167 98.4384L61.3628 99.096ZM58.3682 91.9183C58.3682 92.7723 58.2073 93.9519 57.595 94.9055C57.0008 95.831 55.954 96.5892 54.0626 96.5892V97.3838C56.212 97.3838 57.5167 96.4983 58.2637 95.3348C58.9926 94.1995 59.1628 92.845 59.1628 91.9183H58.3682ZM54.0626 96.5892C52.3189 96.5892 51.2235 95.9225 50.5524 95.0371C49.8682 94.1344 49.5972 92.9653 49.5972 91.9411H48.8025C48.8025 93.0857 49.1022 94.4393 49.9191 95.5171C50.7491 96.6122 52.085 97.3838 54.0626 97.3838V96.5892ZM49.5972 91.9411C49.5972 90.6996 49.9538 89.5305 50.6734 88.6789C51.3846 87.8372 52.4795 87.2703 54.0397 87.2703V86.4756C52.2668 86.4756 50.9418 87.13 50.0664 88.1661C49.1993 89.1922 48.8025 90.5572 48.8025 91.9411H49.5972ZM54.0397 87.2703C55.8585 87.2703 56.9159 88.0254 57.5358 88.9566C58.1718 89.9118 58.3682 91.0877 58.3682 91.9183H59.1628C59.1628 90.991 58.9482 89.6442 58.1973 88.5162C57.4303 87.3642 56.1249 86.4756 54.0397 86.4756V87.2703ZM82.417 83.8823H82.8143V83.4849H82.417V83.8823ZM67.9202 83.8823V83.4849H67.5229V83.8823H67.9202ZM67.9202 100H67.5229V100.397H67.9202V100ZM73.7189 100V100.397H74.1162V100H73.7189ZM73.7189 87.9916V87.5943H73.3216V87.9916H73.7189ZM82.417 87.9916V88.3889H82.8143V87.9916H82.417ZM82.417 83.4849H67.9202V84.2796H82.417V83.4849ZM67.5229 83.8823V100H68.3175V83.8823H67.5229ZM67.9202 100.397H73.7189V99.6027H67.9202V100.397ZM74.1162 100V87.9916H73.3216V100H74.1162ZM73.7189 88.3889H82.417V87.5943H73.7189V88.3889ZM82.8143 87.9916V83.8823H82.0197V87.9916H82.8143ZM85.1812 83.8823V83.4849H84.7839V83.8823H85.1812ZM85.1812 100H84.7839V100.397H85.1812V100ZM90.9343 100V100.397H91.3316V100H90.9343ZM90.9343 94.3154V93.9181H90.5369V94.3154H90.9343ZM100.842 93.2424L100.623 92.9112L100.62 92.9133L100.842 93.2424ZM102.326 86.325L102.685 86.1536L102.682 86.1487L102.326 86.325ZM90.9343 87.535V87.1377H90.5369V87.535H90.9343ZM96.9156 88.2884L97.271 88.1107L97.2664 88.1015L97.2613 88.0925L96.9156 88.2884ZM96.0024 90.5942L95.9031 90.2093L95.8933 90.2122L96.0024 90.5942ZM90.9343 90.6855H90.5369V91.0828H90.9343V90.6855ZM84.7839 83.8823V100H85.5785V83.8823H84.7839ZM85.1812 100.397H90.9343V99.6027H85.1812V100.397ZM91.3316 100V94.3154H90.5369V100H91.3316ZM90.9343 94.7127H95.2947V93.9181H90.9343V94.7127ZM95.2947 94.7127C96.1718 94.7127 97.1967 94.7075 98.201 94.5662C99.2045 94.4249 100.219 94.144 101.065 93.5715L100.62 92.9133C99.9135 93.391 99.0329 93.6466 98.0902 93.7793C97.1482 93.9119 96.1755 93.9181 95.2947 93.9181V94.7127ZM101.062 93.5736C103.207 92.1519 103.294 89.8122 103.294 89.0189H102.5C102.5 89.778 102.405 91.7303 100.623 92.9112L101.062 93.5736ZM103.294 89.0189C103.294 87.5998 102.955 86.7193 102.685 86.1536L101.968 86.4965C102.2 86.9809 102.5 87.7441 102.5 89.0189H103.294ZM102.682 86.1487C102.044 84.8599 101.063 84.1846 99.9146 83.8412C98.7916 83.5052 97.5013 83.4849 96.2307 83.4849V84.2796C97.5171 84.2796 98.6924 84.305 99.6868 84.6025C100.656 84.8926 101.444 85.4387 101.97 86.5013L102.682 86.1487ZM96.2307 83.4849H85.1812V84.2796H96.2307V83.4849ZM90.9343 87.9323H95.1349V87.1377H90.9343V87.9323ZM95.1349 87.9323C95.8265 87.9323 96.3038 88.0145 96.57 88.4843L97.2613 88.0925C96.7513 87.1925 95.8131 87.1377 95.1349 87.1377V87.9323ZM96.5603 88.4661C96.6211 88.5876 96.7238 88.7938 96.7238 89.1102H97.5184C97.5184 88.6048 97.3472 88.2631 97.271 88.1107L96.5603 88.4661ZM96.7238 89.1102C96.7238 89.4137 96.6418 89.6519 96.5097 89.8273C96.3784 90.0018 96.1795 90.1381 95.9032 90.2095L96.1017 90.9789C96.5331 90.8676 96.8936 90.6386 97.1446 90.3052C97.3949 89.9727 97.5184 89.5602 97.5184 89.1102H96.7238ZM95.8933 90.2122C95.6391 90.2848 95.3837 90.2882 94.7012 90.2882V91.0828C95.3427 91.0828 95.7265 91.0862 96.1116 90.9762L95.8933 90.2122ZM94.7012 90.2882H90.9343V91.0828H94.7012V90.2882ZM91.3316 90.6855V87.535H90.5369V90.6855H91.3316ZM124.448 100V100.397H125.054L124.813 99.842L124.448 100ZM117.463 83.8823L117.827 83.7243L117.723 83.4849H117.463V83.8823ZM110.888 83.8823V83.4849H110.626L110.523 83.7247L110.888 83.8823ZM103.925 100L103.56 99.8424L103.32 100.397H103.925V100ZM110.271 100V100.397H110.558L110.648 100.125L110.271 100ZM111.139 97.3746V96.9773H110.852L110.761 97.2499L111.139 97.3746ZM117.303 97.3746L117.68 97.2499L117.59 96.9773H117.303V97.3746ZM118.17 100L117.793 100.125L117.883 100.397H118.17V100ZM116.093 93.8132V94.2105H116.651L116.468 93.6828L116.093 93.8132ZM112.349 93.8132L111.972 93.6856L111.795 94.2105H112.349V93.8132ZM114.198 88.3569L114.573 88.2265L114.193 87.1326L113.822 88.2293L114.198 88.3569ZM124.813 99.842L117.827 83.7243L117.098 84.0403L124.084 100.158L124.813 99.842ZM117.463 83.4849H110.888V84.2796H117.463V83.4849ZM110.523 83.7247L103.56 99.8424L104.289 100.158L111.252 84.0398L110.523 83.7247ZM103.925 100.397H110.271V99.6027H103.925V100.397ZM110.648 100.125L111.516 97.4992L110.761 97.2499L109.894 99.8753L110.648 100.125ZM111.139 97.7719H117.303V96.9773H111.139V97.7719ZM116.925 97.4992L117.793 100.125L118.547 99.8753L117.68 97.2499L116.925 97.4992ZM118.17 100.397H124.448V99.6027H118.17V100.397ZM116.093 93.4158H112.349V94.2105H116.093V93.4158ZM112.725 93.9407L114.574 88.4844L113.822 88.2293L111.972 93.6856L112.725 93.9407ZM113.823 88.4872L115.717 93.9435L116.468 93.6828L114.573 88.2265L113.823 88.4872ZM150.325 100V100.397H150.723V100H150.325ZM150.325 83.8823H150.723V83.4849H150.325V83.8823ZM142.7 83.8823V83.4849H142.428L142.33 83.7391L142.7 83.8823ZM138.637 94.4067L138.266 94.5498L138.637 95.5098L139.007 94.5498L138.637 94.4067ZM134.573 83.8823L134.944 83.7391L134.845 83.4849H134.573V83.8823ZM126.925 83.8823V83.4849H126.528V83.8823H126.925ZM126.925 100H126.528V100.397H126.925V100ZM132.587 100V100.397H132.984V100H132.587ZM132.587 89.7267L132.96 89.5891L132.189 89.7267H132.587ZM136.377 100L136.004 100.138L136.1 100.397H136.377V100ZM140.828 100V100.397H141.105L141.201 100.138L140.828 100ZM144.641 89.681H145.038L144.268 89.5433L144.641 89.681ZM144.641 100H144.244V100.397H144.641V100ZM150.723 100V83.8823H149.928V100H150.723ZM150.325 83.4849H142.7V84.2796H150.325V83.4849ZM142.33 83.7391L138.266 94.2636L139.007 94.5498L143.071 84.0254L142.33 83.7391ZM139.007 94.2636L134.944 83.7391L134.202 84.0254L138.266 94.5498L139.007 94.2636ZM134.573 83.4849H126.925V84.2796H134.573V83.4849ZM126.528 83.8823V100H127.322V83.8823H126.528ZM126.925 100.397H132.587V99.6027H126.925V100.397ZM132.984 100V89.7267H132.189V100H132.984ZM132.214 89.8642L136.004 100.138L136.749 99.8625L132.96 89.5891L132.214 89.8642ZM136.377 100.397H140.828V99.6027H136.377V100.397ZM141.201 100.138L145.014 89.8187L144.268 89.5433L140.456 99.8623L141.201 100.138ZM144.244 89.681V100H145.038V89.681H144.244ZM144.641 100.397H150.325V99.6027H144.641V100.397ZM178.599 100V100.397H178.997V100H178.599ZM178.599 83.8823H178.997V83.4849H178.599V83.8823ZM170.974 83.8823V83.4849H170.702L170.604 83.7391L170.974 83.8823ZM166.911 94.4067L166.54 94.5498L166.911 95.5098L167.281 94.5498L166.911 94.4067ZM162.847 83.8823L163.218 83.7391L163.119 83.4849H162.847V83.8823ZM155.199 83.8823V83.4849H154.802V83.8823H155.199ZM155.199 100H154.802V100.397H155.199V100ZM160.861 100V100.397H161.258V100H160.861ZM160.861 89.7267L161.234 89.5891L160.463 89.7267H160.861ZM164.651 100L164.278 100.138L164.374 100.397H164.651V100ZM169.102 100V100.397H169.379L169.475 100.138L169.102 100ZM172.915 89.681H173.312L172.542 89.5433L172.915 89.681ZM172.915 100H172.518V100.397H172.915V100ZM178.997 100V83.8823H178.202V100H178.997ZM178.599 83.4849H170.974V84.2796H178.599V83.4849ZM170.604 83.7391L166.54 94.2636L167.281 94.5498L171.345 84.0254L170.604 83.7391ZM167.281 94.2636L163.218 83.7391L162.476 84.0254L166.54 94.5498L167.281 94.2636ZM162.847 83.4849H155.199V84.2796H162.847V83.4849ZM154.802 83.8823V100H155.596V83.8823H154.802ZM155.199 100.397H160.861V99.6027H155.199V100.397ZM161.258 100V89.7267H160.463V100H161.258ZM160.488 89.8642L164.278 100.138L165.023 99.8625L161.234 89.5891L160.488 89.8642ZM164.651 100.397H169.102V99.6027H164.651V100.397ZM169.475 100.138L173.288 89.8187L172.542 89.5433L168.73 99.8623L169.475 100.138ZM172.518 89.681V100H173.312V89.681H172.518ZM172.915 100.397H178.599V99.6027H172.915V100.397ZM201.646 100V100.397H202.251L202.01 99.842L201.646 100ZM194.66 83.8823L195.024 83.7243L194.921 83.4849H194.66V83.8823ZM188.085 83.8823V83.4849H187.824L187.72 83.7247L188.085 83.8823ZM181.122 100L180.757 99.8424L180.517 100.397H181.122V100ZM187.468 100V100.397H187.756L187.846 100.125L187.468 100ZM188.336 97.3746V96.9773H188.049L187.959 97.2499L188.336 97.3746ZM194.5 97.3746L194.877 97.2499L194.787 96.9773H194.5V97.3746ZM195.367 100L194.99 100.125L195.08 100.397H195.367V100ZM193.29 93.8132V94.2105H193.849L193.665 93.6828L193.29 93.8132ZM189.546 93.8132L189.17 93.6856L188.992 94.2105H189.546V93.8132ZM191.395 88.3569L191.77 88.2265L191.391 87.1326L191.019 88.2293L191.395 88.3569ZM202.01 99.842L195.024 83.7243L194.295 84.0403L201.281 100.158L202.01 99.842ZM194.66 83.4849H188.085V84.2796H194.66V83.4849ZM187.72 83.7247L180.757 99.8424L181.487 100.158L188.45 84.0398L187.72 83.7247ZM181.122 100.397H187.468V99.6027H181.122V100.397ZM187.846 100.125L188.713 97.4992L187.959 97.2499L187.091 99.8753L187.846 100.125ZM188.336 97.7719H194.5V96.9773H188.336V97.7719ZM194.123 97.4992L194.99 100.125L195.745 99.8753L194.877 97.2499L194.123 97.4992ZM195.367 100.397H201.646V99.6027H195.367V100.397ZM193.29 93.4158H189.546V94.2105H193.29V93.4158ZM189.922 93.9407L191.771 88.4844L191.019 88.2293L189.17 93.6856L189.922 93.9407ZM191.02 88.4872L192.915 93.9435L193.665 93.6828L191.77 88.2265L191.02 88.4872ZM60.5281 117.288L60.5967 117.68L61.0436 117.601L60.907 117.169L60.5281 117.288ZM59.1583 114.823L58.8641 115.09L58.8672 115.093L59.1583 114.823ZM44.7756 128.406L44.9451 128.047L44.945 128.047L44.7756 128.406ZM58.9985 126.923L59.281 127.202L59.2821 127.201L58.9985 126.923ZM60.8249 123.772L61.2046 123.889L61.3468 123.427L60.8659 123.377L60.8249 123.772ZM55.3229 123.201L55.3639 122.806L55.0437 122.773L54.9448 123.079L55.3229 123.201ZM47.1956 124.206L47.5092 123.962L47.5071 123.959L47.1956 124.206ZM47.401 117.334L47.6889 117.608L47.689 117.608L47.401 117.334ZM55.1859 118.224L54.8306 118.402L54.963 118.667L55.2545 118.616L55.1859 118.224ZM60.907 117.169C60.7669 116.725 60.4033 115.58 59.4495 114.552L58.8672 115.093C59.6941 115.984 60.0153 116.984 60.1492 117.408L60.907 117.169ZM59.4525 114.556C58.0024 112.958 55.3855 111.8 50.9396 111.8V112.595C55.2604 112.595 57.6203 113.72 58.8641 115.09L59.4525 114.556ZM50.9396 111.8C45.6794 111.8 42.8358 113.605 41.3255 115.704C39.8325 117.778 39.6982 120.064 39.6982 120.941H40.4929C40.4929 120.128 40.6212 118.043 41.9704 116.168C43.3024 114.317 45.8808 112.595 50.9396 112.595V111.8ZM39.6982 120.941C39.6982 125.89 42.945 127.983 44.6062 128.766L44.945 128.047C43.4101 127.323 40.4929 125.444 40.4929 120.941H39.6982ZM44.6061 128.766C45.8701 129.362 47.6631 129.945 50.757 129.945V129.151C47.7782 129.151 46.1011 128.592 44.9451 128.047L44.6061 128.766ZM50.757 129.945C53.585 129.945 57.0846 129.422 59.281 127.202L58.716 126.643C56.7574 128.623 53.5451 129.151 50.757 129.151V129.945ZM59.2821 127.201C60.5593 125.899 61.016 124.502 61.2046 123.889L60.4451 123.655C60.2684 124.229 59.8577 125.48 58.7149 126.644L59.2821 127.201ZM60.8659 123.377L55.3639 122.806L55.2819 123.596L60.7839 124.167L60.8659 123.377ZM54.9448 123.079C54.5502 124.302 53.1273 125.498 50.894 125.498V126.292C53.4092 126.292 55.1824 124.931 55.7011 123.323L54.9448 123.079ZM50.894 125.498C50.1894 125.498 48.6683 125.452 47.5092 123.962L46.8819 124.45C48.2798 126.247 50.1374 126.292 50.894 126.292V125.498ZM47.5071 123.959C47.1166 123.466 46.5427 122.523 46.5427 120.918H45.7481C45.7481 122.738 46.407 123.85 46.8841 124.452L47.5071 123.959ZM46.5427 120.918C46.5427 119.702 46.8919 118.446 47.6889 117.608L47.1132 117.06C46.1294 118.094 45.7481 119.577 45.7481 120.918H46.5427ZM47.689 117.608C48.8924 116.342 50.5688 116.27 51.1451 116.27V115.476C50.5342 115.476 48.5579 115.541 47.1131 117.06L47.689 117.608ZM51.1451 116.27C52.7204 116.27 54.0681 116.877 54.8306 118.402L55.5413 118.047C54.6144 116.193 52.9486 115.476 51.1451 115.476V116.27ZM55.2545 118.616L60.5967 117.68L60.4595 116.897L55.1174 117.833L55.2545 118.616ZM80.5834 129V129.397H80.9807V129H80.5834ZM80.5834 125.347H80.9807V124.95H80.5834V125.347ZM69.1458 125.347H68.7484V125.745H69.1458V125.347ZM69.1458 122.768V122.37H68.7484V122.768H69.1458ZM79.5332 122.768V123.165H79.9306V122.768H79.5332ZM79.5332 119.138H79.9306V118.74H79.5332V119.138ZM69.1458 119.138H68.7484V119.535H69.1458V119.138ZM69.1458 116.489V116.092H68.7484V116.489H69.1458ZM80.378 116.489V116.887H80.7753V116.489H80.378ZM80.378 112.882H80.7753V112.485H80.378V112.882ZM63.3699 112.882V112.485H62.9725V112.882H63.3699ZM63.3699 129H62.9725V129.397H63.3699V129ZM80.9807 129V125.347H80.1861V129H80.9807ZM80.5834 124.95H69.1458V125.745H80.5834V124.95ZM69.5431 125.347V122.768H68.7484V125.347H69.5431ZM69.1458 123.165H79.5332V122.37H69.1458V123.165ZM79.9306 122.768V119.138H79.1359V122.768H79.9306ZM79.5332 118.74H69.1458V119.535H79.5332V118.74ZM69.5431 119.138V116.489H68.7484V119.138H69.5431ZM69.1458 116.887H80.378V116.092H69.1458V116.887ZM80.7753 116.489V112.882H79.9806V116.489H80.7753ZM80.378 112.485H63.3699V113.28H80.378V112.485ZM62.9725 112.882V129H63.7672V112.882H62.9725ZM63.3699 129.397H80.5834V128.603H63.3699V129.397ZM83.5286 112.882V112.485H83.1313V112.882H83.5286ZM83.5286 129H83.1313V129.397H83.5286V129ZM89.3274 129V129.397H89.7247V129H89.3274ZM89.3274 122.288V121.891H88.93V122.288H89.3274ZM95.4914 126.443L95.8836 126.379L95.8835 126.379L95.4914 126.443ZM96.7013 129L96.4296 129.29L96.5442 129.397H96.7013V129ZM103.048 129V129.397H103.94L103.343 128.734L103.048 129ZM101.039 124.525L101.428 124.444L101.427 124.442L101.039 124.525ZM97.7972 120.165L97.6715 119.788L96.3428 120.231L97.7062 120.552L97.7972 120.165ZM100.308 116.581L99.9254 116.475L99.9248 116.477L100.308 116.581ZM102.363 112.882L102.651 113.156L103.291 112.485H102.363V112.882ZM96.0164 112.882V112.485H95.8482L95.7311 112.606L96.0164 112.882ZM94.7151 115.188L94.3431 115.049L94.3429 115.049L94.7151 115.188ZM89.3274 118.635H88.93V119.033H89.3274V118.635ZM89.3274 112.882H89.7247V112.485H89.3274V112.882ZM83.1313 112.882V129H83.9259V112.882H83.1313ZM83.5286 129.397H89.3274V128.603H83.5286V129.397ZM89.7247 129V122.288H88.93V129H89.7247ZM89.3274 122.685H92.3409V121.891H89.3274V122.685ZM92.3409 122.685C92.9111 122.685 93.3302 122.816 93.6484 123.016C93.9681 123.218 94.2122 123.508 94.4048 123.868C94.8006 124.608 94.9472 125.571 95.0992 126.507L95.8835 126.379C95.7388 125.488 95.5772 124.375 95.1054 123.493C94.8643 123.043 94.5348 122.636 94.0726 122.345C93.6088 122.052 93.0377 121.891 92.3409 121.891V122.685ZM95.0992 126.507C95.2421 127.388 95.6061 128.518 96.4296 129.29L96.9731 128.71C96.3355 128.112 96.0145 127.187 95.8836 126.379L95.0992 126.507ZM96.7013 129.397H103.048V128.603H96.7013V129.397ZM103.343 128.734C101.985 127.225 101.634 125.43 101.428 124.444L100.65 124.607C100.855 125.584 101.235 127.579 102.753 129.266L103.343 128.734ZM101.427 124.442C101.267 123.698 101.029 122.691 100.516 121.797C99.9961 120.89 99.1844 120.083 97.8882 119.778L97.7062 120.552C98.7386 120.795 99.388 121.426 99.8268 122.192C100.273 122.969 100.491 123.868 100.651 124.609L101.427 124.442ZM97.9228 120.542C98.8049 120.248 99.4172 119.557 99.8412 118.83C100.267 118.1 100.529 117.291 100.692 116.684L99.9248 116.477C99.7685 117.058 99.5283 117.789 99.1548 118.429C98.7797 119.072 98.2962 119.58 97.6715 119.788L97.9228 120.542ZM100.691 116.686C100.868 116.046 101.303 114.569 102.651 113.156L102.076 112.608C100.592 114.163 100.114 115.791 99.9254 116.475L100.691 116.686ZM102.363 112.485H96.0164V113.28H102.363V112.485ZM95.7311 112.606C94.9578 113.404 94.5456 114.509 94.3431 115.049L95.0872 115.328C95.2956 114.772 95.6596 113.822 96.3018 113.159L95.7311 112.606ZM94.3429 115.049C94.1949 115.446 94.0773 115.878 93.9613 116.255C93.841 116.645 93.7178 116.994 93.5504 117.29C93.386 117.58 93.1847 117.809 92.9121 117.969C92.6387 118.13 92.2638 118.238 91.7245 118.238V119.033C92.3723 119.033 92.8934 118.901 93.3142 118.654C93.7358 118.407 94.0268 118.061 94.2419 117.681C94.4541 117.306 94.5976 116.888 94.7207 116.489C94.8479 116.076 94.9501 115.695 95.0874 115.327L94.3429 115.049ZM91.7245 118.238H89.3274V119.033H91.7245V118.238ZM89.7247 118.635V112.882H88.93V118.635H89.7247ZM89.3274 112.485H83.5286V113.28H89.3274V112.485ZM106.029 112.882V112.485H105.632V112.882H106.029ZM106.029 129H105.632V129.397H106.029V129ZM111.782 129V129.397H112.179V129H111.782ZM111.782 123.315V122.918H111.385V123.315H111.782ZM121.69 122.242L121.47 121.911L121.467 121.913L121.69 122.242ZM123.174 115.325L123.532 115.154L123.53 115.149L123.174 115.325ZM111.782 116.535V116.138H111.385V116.535H111.782ZM117.763 117.288L118.119 117.111L118.114 117.101L118.109 117.093L117.763 117.288ZM116.85 119.594L116.751 119.209L116.741 119.212L116.85 119.594ZM111.782 119.685H111.385V120.083H111.782V119.685ZM105.632 112.882V129H106.426V112.882H105.632ZM106.029 129.397H111.782V128.603H106.029V129.397ZM112.179 129V123.315H111.385V129H112.179ZM111.782 123.713H116.142V122.918H111.782V123.713ZM116.142 123.713C117.019 123.713 118.044 123.708 119.049 123.566C120.052 123.425 121.066 123.144 121.913 122.572L121.467 121.913C120.761 122.391 119.881 122.647 118.938 122.779C117.996 122.912 117.023 122.918 116.142 122.918V123.713ZM121.91 122.574C124.054 121.152 124.142 118.812 124.142 118.019H123.347C123.347 118.778 123.252 120.73 121.471 121.911L121.91 122.574ZM124.142 118.019C124.142 116.6 123.803 115.719 123.532 115.154L122.816 115.496C123.047 115.981 123.347 116.744 123.347 118.019H124.142ZM123.53 115.149C122.892 113.86 121.91 113.185 120.762 112.841C119.639 112.505 118.349 112.485 117.078 112.485V113.28C118.365 113.28 119.54 113.305 120.535 113.602C121.504 113.893 122.292 114.439 122.818 115.501L123.53 115.149ZM117.078 112.485H106.029V113.28H117.078V112.485ZM111.782 116.932H115.983V116.138H111.782V116.932ZM115.983 116.932C116.674 116.932 117.151 117.014 117.418 117.484L118.109 117.093C117.599 116.192 116.661 116.138 115.983 116.138V116.932ZM117.408 117.466C117.469 117.588 117.571 117.794 117.571 118.11H118.366C118.366 117.605 118.195 117.263 118.119 117.111L117.408 117.466ZM117.571 118.11C117.571 118.414 117.489 118.652 117.357 118.827C117.226 119.002 117.027 119.138 116.751 119.209L116.949 119.979C117.381 119.868 117.741 119.639 117.992 119.305C118.243 118.973 118.366 118.56 118.366 118.11H117.571ZM116.741 119.212C116.487 119.285 116.231 119.288 115.549 119.288V120.083C116.19 120.083 116.574 120.086 116.959 119.976L116.741 119.212ZM115.549 119.288H111.782V120.083H115.549V119.288ZM112.179 119.685V116.535H111.385V119.685H112.179ZM143.378 129V129.397H143.776V129H143.378ZM143.378 125.347H143.776V124.95H143.378V125.347ZM131.941 125.347H131.543V125.745H131.941V125.347ZM131.941 122.768V122.37H131.543V122.768H131.941ZM142.328 122.768V123.165H142.726V122.768H142.328ZM142.328 119.138H142.726V118.74H142.328V119.138ZM131.941 119.138H131.543V119.535H131.941V119.138ZM131.941 116.489V116.092H131.543V116.489H131.941ZM143.173 116.489V116.887H143.57V116.489H143.173ZM143.173 112.882H143.57V112.485H143.173V112.882ZM126.165 112.882V112.485H125.767V112.882H126.165ZM126.165 129H125.767V129.397H126.165V129ZM143.776 129V125.347H142.981V129H143.776ZM143.378 124.95H131.941V125.745H143.378V124.95ZM132.338 125.347V122.768H131.543V125.347H132.338ZM131.941 123.165H142.328V122.37H131.941V123.165ZM142.726 122.768V119.138H141.931V122.768H142.726ZM142.328 118.74H131.941V119.535H142.328V118.74ZM132.338 119.138V116.489H131.543V119.138H132.338ZM131.941 116.887H143.173V116.092H131.941V116.887ZM143.57 116.489V112.882H142.776V116.489H143.57ZM143.173 112.485H126.165V113.28H143.173V112.485ZM125.767 112.882V129H126.562V112.882H125.767ZM126.165 129.397H143.378V128.603H126.165V129.397ZM162.373 116.489V116.887H162.77V116.489H162.373ZM162.373 112.882H162.77V112.485H162.373V112.882ZM145.136 112.882V112.485H144.739V112.882H145.136ZM145.136 116.489H144.739V116.887H145.136V116.489ZM150.867 116.489H151.264V116.092H150.867V116.489ZM150.867 129H150.469V129.397H150.867V129ZM156.665 129V129.397H157.063V129H156.665ZM156.665 116.489V116.092H156.268V116.489H156.665ZM162.77 116.489V112.882H161.976V116.489H162.77ZM162.373 112.485H145.136V113.28H162.373V112.485ZM144.739 112.882V116.489H145.534V112.882H144.739ZM145.136 116.887H150.867V116.092H145.136V116.887ZM150.469 116.489V129H151.264V116.489H150.469ZM150.867 129.397H156.665V128.603H150.867V129.397ZM157.063 129V116.489H156.268V129H157.063ZM156.665 116.887H162.373V116.092H156.665V116.887ZM65.9454 141.882V141.485H65.5481V141.882H65.9454ZM65.9454 158H65.5481V158.397H65.9454V158ZM71.6985 158V158.397H72.0958V158H71.6985ZM71.6985 152.315V151.918H71.3012V152.315H71.6985ZM81.6066 151.242L81.387 150.911L81.3839 150.913L81.6066 151.242ZM83.0905 144.325L83.4489 144.154L83.4465 144.149L83.0905 144.325ZM71.6985 145.535V145.138H71.3012V145.535H71.6985ZM77.6799 146.288L78.0352 146.111L78.0306 146.101L78.0255 146.092L77.6799 146.288ZM76.7667 148.594L76.6674 148.209L76.6575 148.212L76.7667 148.594ZM71.6985 148.685H71.3012V149.083H71.6985V148.685ZM65.5481 141.882V158H66.3427V141.882H65.5481ZM65.9454 158.397H71.6985V157.603H65.9454V158.397ZM72.0958 158V152.315H71.3012V158H72.0958ZM71.6985 152.713H76.0589V151.918H71.6985V152.713ZM76.0589 152.713C76.936 152.713 77.9609 152.708 78.9652 152.566C79.9687 152.425 80.9829 152.144 81.8292 151.572L81.3839 150.913C80.6778 151.391 79.7971 151.647 78.8544 151.779C77.9125 151.912 76.9398 151.918 76.0589 151.918V152.713ZM81.8261 151.574C83.971 150.152 84.0585 147.812 84.0585 147.019H83.2639C83.2639 147.778 83.1688 149.73 81.3871 150.911L81.8261 151.574ZM84.0585 147.019C84.0585 145.6 83.7195 144.719 83.4489 144.154L82.7321 144.496C82.9638 144.981 83.2639 145.744 83.2639 147.019H84.0585ZM83.4465 144.149C82.8084 142.86 81.8267 142.185 80.6788 141.841C79.5559 141.505 78.2656 141.485 76.995 141.485V142.28C78.2813 142.28 79.4566 142.305 80.4511 142.602C81.4206 142.893 82.2083 143.439 82.7344 144.501L83.4465 144.149ZM76.995 141.485H65.9454V142.28H76.995V141.485ZM71.6985 145.932H75.8991V145.138H71.6985V145.932ZM75.8991 145.932C76.5907 145.932 77.068 146.014 77.3342 146.484L78.0255 146.092C77.5155 145.192 76.5773 145.138 75.8991 145.138V145.932ZM77.3245 146.466C77.3853 146.588 77.488 146.794 77.488 147.11H78.2826C78.2826 146.605 78.1114 146.263 78.0352 146.111L77.3245 146.466ZM77.488 147.11C77.488 147.414 77.406 147.652 77.274 147.827C77.1426 148.002 76.9438 148.138 76.6674 148.209L76.8659 148.979C77.2973 148.868 77.6578 148.639 77.9088 148.305C78.1591 147.973 78.2826 147.56 78.2826 147.11H77.488ZM76.6575 148.212C76.4034 148.285 76.1479 148.288 75.4654 148.288V149.083C76.107 149.083 76.4907 149.086 76.8758 148.976L76.6575 148.212ZM75.4654 148.288H71.6985V149.083H75.4654V148.288ZM72.0958 148.685V145.535H71.3012V148.685H72.0958ZM92.3706 158V158.397H92.7679V158H92.3706ZM92.3706 141.882H92.7679V141.485H92.3706V141.882ZM86.5947 141.882V141.485H86.1973V141.882H86.5947ZM86.5947 158H86.1973V158.397H86.5947V158ZM92.7679 158V141.882H91.9733V158H92.7679ZM92.3706 141.485H86.5947V142.28H92.3706V141.485ZM86.1973 141.882V158H86.992V141.882H86.1973ZM86.5947 158.397H92.3706V157.603H86.5947V158.397ZM116.433 158V158.397H117.271L116.741 157.749L116.433 158ZM109.31 149.279L109.002 149.029L108.798 149.28L109.002 149.53L109.31 149.279ZM115.314 141.882L115.623 142.133L116.149 141.485H115.314V141.882ZM108.123 141.882V141.485H107.892L107.778 141.686L108.123 141.882ZM105.635 146.266L105.29 146.463L105.636 147.068L105.98 146.462L105.635 146.266ZM103.123 141.882L103.468 141.685L103.354 141.485H103.123V141.882ZM95.9092 141.882V141.485H95.0673L95.6025 142.135L95.9092 141.882ZM101.982 149.256L102.289 149.508L102.496 149.255L102.289 149.004L101.982 149.256ZM94.8362 158L94.5285 157.749L93.9984 158.397H94.8362V158ZM101.982 158V158.397H102.198L102.315 158.216L101.982 158ZM105.612 152.407L105.945 152.19L105.612 151.677L105.278 152.19L105.612 152.407ZM109.242 158L108.908 158.216L109.026 158.397H109.242V158ZM116.741 157.749L109.618 149.028L109.002 149.53L116.125 158.251L116.741 157.749ZM109.619 149.529L115.623 142.133L115.006 141.632L109.002 149.029L109.619 149.529ZM115.314 141.485H108.123V142.28H115.314V141.485ZM107.778 141.686L105.289 146.069L105.98 146.462L108.469 142.078L107.778 141.686ZM105.979 146.068L103.468 141.685L102.779 142.08L105.29 146.463L105.979 146.068ZM103.123 141.485H95.9092V142.28H103.123V141.485ZM95.6025 142.135L101.675 149.509L102.289 149.004L96.2159 141.63L95.6025 142.135ZM101.674 149.005L94.5285 157.749L95.1438 158.251L102.289 149.508L101.674 149.005ZM94.8362 158.397H101.982V157.603H94.8362V158.397ZM102.315 158.216L105.945 152.623L105.278 152.19L101.649 157.784L102.315 158.216ZM105.278 152.623L108.908 158.216L109.575 157.784L105.945 152.19L105.278 152.623ZM109.242 158.397H116.433V157.603H109.242V158.397ZM137.653 141.882L137.987 142.098L138.382 141.485H137.653V141.882ZM130.986 141.882V141.485H130.751L130.638 141.691L130.986 141.882ZM127.471 148.297L127.122 148.488L127.471 149.124L127.819 148.488L127.471 148.297ZM123.955 141.882L124.303 141.691L124.19 141.485H123.955V141.882ZM117.22 141.882V141.485H116.486L116.887 142.1L117.22 141.882ZM124.617 153.206H125.014V153.088L124.95 152.988L124.617 153.206ZM124.617 158H124.22V158.397H124.617V158ZM130.347 158V158.397H130.744V158H130.347ZM130.347 153.206L130.013 152.99L129.95 153.089V153.206H130.347ZM137.653 141.485H130.986V142.28H137.653V141.485ZM130.638 141.691L127.122 148.106L127.819 148.488L131.335 142.073L130.638 141.691ZM127.819 148.106L124.303 141.691L123.606 142.073L127.122 148.488L127.819 148.106ZM123.955 141.485H117.22V142.28H123.955V141.485ZM116.887 142.1L124.284 153.423L124.95 152.988L117.553 141.665L116.887 142.1ZM124.22 153.206V158H125.014V153.206H124.22ZM124.617 158.397H130.347V157.603H124.617V158.397ZM130.744 158V153.206H129.95V158H130.744ZM130.681 153.421L137.987 142.098L137.319 141.667L130.013 152.99L130.681 153.421Z" fill="url(#paint3_linear_402_2)"/>
<path d="M49.8096 177.909H50.7715C51.6553 177.909 52.1826 178.314 52.1826 178.998C52.1826 179.672 51.626 180.131 50.8008 180.131C49.9414 180.131 49.3555 179.716 49.3018 179.057H48.0908C48.1543 180.336 49.2285 181.176 50.7959 181.176C52.334 181.176 53.4766 180.277 53.4766 179.071C53.4766 178.124 52.8857 177.45 51.9385 177.338V177.299C52.7197 177.123 53.2568 176.469 53.2568 175.678C53.2568 174.56 52.2607 173.778 50.8203 173.778C49.3066 173.778 48.3252 174.584 48.2617 175.868H49.4385C49.4922 175.204 50.0049 174.794 50.7861 174.794C51.5576 174.794 52.0361 175.185 52.0361 175.819C52.0361 176.454 51.5137 176.894 50.7471 176.894H49.8096V177.909ZM59.0625 181H60.3906L57.8906 173.954H56.4697L53.9697 181H55.2686L55.8691 179.179H58.4619L59.0625 181ZM57.1484 175.199H57.1826L58.1641 178.207H56.1621L57.1484 175.199ZM63.7402 177.304L66.7578 173.954H65.3027L62.5439 177.035H62.5049V173.954H61.2451V181H62.5049V177.787H62.5439L65.415 181H67.0264L63.7402 177.304ZM67.8076 173.954V181H69.0674V178.671H70.5957C72.0215 178.671 73.0176 177.719 73.0176 176.312C73.0176 174.906 72.0459 173.954 70.6494 173.954H67.8076ZM69.0674 174.984H70.3174C71.2207 174.984 71.7383 175.468 71.7383 176.312C71.7383 177.167 71.2158 177.655 70.3125 177.655H69.0674V174.984ZM81.3379 181V173.954H80.0781V181H81.3379ZM74.0674 181H76.875C78.2764 181 79.248 180.072 79.248 178.705C79.248 177.343 78.252 176.41 76.8213 176.41H75.3271V173.954H74.0674V181ZM75.3271 179.965V177.436H76.5381C77.4365 177.436 77.959 177.89 77.959 178.705C77.959 179.516 77.4414 179.965 76.543 179.965H75.3271ZM85.6934 181V175.019H87.832V173.954H82.2949V175.019H84.4336V181H85.6934ZM96.1035 181V173.954H94.8438V181H96.1035ZM88.833 181H91.6406C93.042 181 94.0137 180.072 94.0137 178.705C94.0137 177.343 93.0176 176.41 91.5869 176.41H90.0928V173.954H88.833V181ZM90.0928 179.965V177.436H91.3037C92.2021 177.436 92.7246 177.89 92.7246 178.705C92.7246 179.516 92.207 179.965 91.3086 179.965H90.0928ZM102.007 179.936H98.7061V177.924H101.826V176.923H98.7061V175.019H102.007V173.954H97.4463V181H102.007V179.936ZM111.304 181V173.954H105.444V181H106.709V175.023H110.049V181H111.304ZM112.642 173.954V181H113.901V178.671H115.43C116.855 178.671 117.852 177.719 117.852 176.312C117.852 174.906 116.88 173.954 115.483 173.954H112.642ZM113.901 174.984H115.151C116.055 174.984 116.572 175.468 116.572 176.312C116.572 177.167 116.05 177.655 115.146 177.655H113.901V174.984ZM122.007 173.837C119.951 173.837 118.662 175.238 118.662 177.479C118.662 179.721 119.951 181.117 122.007 181.117C124.058 181.117 125.347 179.721 125.347 177.479C125.347 175.238 124.058 173.837 122.007 173.837ZM122.007 174.911C123.262 174.911 124.062 175.907 124.062 177.479C124.062 179.047 123.262 180.043 122.007 180.043C120.747 180.043 119.951 179.047 119.951 177.479C119.951 175.907 120.747 174.911 122.007 174.911ZM128.296 178.178L128.496 175.014H130.894V179.936H127.817V179.896C128.145 179.511 128.242 178.969 128.296 178.178ZM127.061 181H131.885V182.392H133.027V179.936H132.148V173.954H127.383L127.129 178.1C127.075 179.042 126.914 179.623 126.416 179.936H125.913V182.392H127.061V181ZM138.535 181H139.863L137.363 173.954H135.942L133.442 181H134.741L135.342 179.179H137.935L138.535 181ZM136.621 175.199H136.655L137.637 178.207H135.635L136.621 175.199ZM146.807 177.309L149.614 173.954H148.174L145.645 177.035H145.605V173.954H144.375V177.035H144.336L141.812 173.954H140.347L143.169 177.323L140.137 181H141.675L144.336 177.787H144.375V181H145.605V177.787H145.645L148.286 181H149.863L146.807 177.309ZM155.337 181H156.587V173.954H155.366L151.948 179.037H151.885V173.954H150.63V181H151.851L155.273 175.932H155.337V181Z" fill="white"/>
<defs>
<radialGradient id="paint0_radial_402_2" cx="0" cy="0" r="1" gradientUnits="userSpaceOnUse" gradientTransform="translate(103.5 28.5) rotate(90) scale(27.5)">
<stop stop-color="white"/>
<stop offset="1" stop-color="white" stop-opacity="0.64"/>
</radialGradient>
<linearGradient id="paint1_linear_402_2" x1="105.085" y1="-4.77614" x2="137.566" y2="8.06994" gradientUnits="userSpaceOnUse">
<stop stop-color="white"/>
<stop offset="1" stop-color="white" stop-opacity="0"/>
</linearGradient>
<radialGradient id="paint2_radial_402_2" cx="0" cy="0" r="1" gradientUnits="userSpaceOnUse" gradientTransform="translate(101 120.5) rotate(90) scale(43.5 101)">
<stop stop-color="white"/>
<stop offset="1" stop-color="white" stop-opacity="0.64"/>
</radialGradient>
<linearGradient id="paint3_linear_402_2" x1="106.823" y1="67.8632" x2="181.665" y2="136.59" gradientUnits="userSpaceOnUse">
<stop stop-color="white"/>
<stop offset="1" stop-color="white" stop-opacity="0"/>
</linearGradient>
</defs>
</svg>
