<svg width="222" height="70" viewBox="0 0 222 70" fill="none" xmlns="http://www.w3.org/2000/svg">
<mask id="path-1-outside-1_404_737" maskUnits="userSpaceOnUse" x="0.15625" y="-0.236816" width="222" height="70" fill="black">
<rect fill="white" x="0.15625" y="-0.236816" width="222" height="70"/>
<path d="M32.9637 1.62406V25.0001H50.9758C56.2073 25.0001 60.1474 23.2783 60.1474 17.484C60.1474 11.6897 56.6377 10.1335 50.2805 10.1335H41.3737V7.58395H58.2932V1.62406H32.9637ZM41.3737 15.4311H48.6249C50.8765 15.4311 51.7373 16.0933 51.7373 17.484C51.7042 19.2057 50.8433 19.7024 48.5918 19.7024H41.3737V15.4311Z"/>
<path d="M65.1437 1.62406V25.0001H73.4876V16.7556H79.8117C82.3612 16.7556 85.606 16.7224 87.8575 15.1994C90.705 13.3121 90.8375 10.1997 90.8375 9.07392C90.8375 7.1204 90.3739 5.92842 90.0097 5.16688C88.3211 1.7565 84.8776 1.62406 81.1692 1.62406H65.1437ZM73.4876 6.92174H79.5799C80.5732 6.92174 81.5996 7.02107 82.1625 8.01439C82.2619 8.21305 82.4605 8.61037 82.4605 9.20636C82.4605 10.299 81.8645 11.0937 80.8381 11.3585C80.3746 11.491 79.911 11.491 78.9508 11.491H73.4876V6.92174Z"/>
<path d="M124.445 13.2127C124.445 9.66991 123.087 7.25284 122.326 6.12709C120.405 3.3458 117.061 0.763184 108.784 0.763184C103.552 0.763184 100.407 2.02138 98.42 3.37891C96.4003 4.73644 93.3541 7.78261 93.3541 13.6763C93.3541 15.8616 93.917 20.6957 98.8836 23.5763C100.804 24.669 103.784 25.7947 108.751 25.7947C112.889 25.7947 116.233 25.265 119.28 23.2121C124.014 20.0004 124.445 15.2987 124.445 13.2127ZM115.836 13.279C115.836 15.8616 114.876 20.6295 109.015 20.6295C103.618 20.6295 101.963 16.4576 101.963 13.3121C101.963 9.50436 104.148 5.96153 108.982 5.96153C114.644 5.96153 115.836 10.7294 115.836 13.279Z"/>
<path d="M156.198 25.0001V1.62406H147.722V10.1335H137.524V1.62406H129.08V25.0001H137.49V16.0271H147.722V25.0001H156.198Z"/>
<path d="M161.842 1.62406V25.0001H179.855C185.086 25.0001 189.026 22.9472 189.026 17.1529C189.026 11.3585 185.516 9.47125 179.159 9.47125H170.253V1.62406H161.842ZM170.253 14.7689H177.504C179.59 14.7689 180.616 15.5967 180.616 17.0204C180.616 18.974 179.192 19.7024 177.471 19.7024H170.253V14.7689Z"/>
<path d="M1.15625 44.6241V68.0001H19.1684C24.3998 68.0001 28.34 66.2783 28.34 60.484C28.34 54.6897 24.8303 53.1335 18.473 53.1335H9.56632V50.584H26.4858V44.6241H1.15625ZM9.56632 58.4311H16.8175C19.069 58.4311 19.9299 59.0933 19.9299 60.484C19.8968 62.2057 19.0359 62.7024 16.7844 62.7024H9.56632V58.4311Z"/>
<path d="M33.3032 68.0001H41.7133V65.0201L53.1033 55.4843V68.0001H61.5133V44.6241H53.1033V47.6371L41.7133 57.1729V44.6241H33.3032V68.0001Z"/>
<path d="M95.9045 68.0001V44.6241H70.9392V50.4846C70.9392 61.0469 70.1115 62.0402 66.8666 62.0402H65.8071V68.0001H67.3302C76.9984 68.0001 78.8857 63.9606 78.8857 52.107V50.584H87.4945V68.0001H95.9045Z"/>
<path d="M126.507 68.0001V62.7024H109.919V58.9609H124.984V53.6963H109.919V49.8555H126.209V44.6241H101.542V68.0001H126.507Z"/>
<path d="M154.055 49.8555V44.6241H129.057V49.8555H137.368V68.0001H145.778V49.8555H154.055Z"/>
<path d="M188.076 56.2127C188.076 52.6699 186.718 50.2528 185.957 49.1271C184.036 46.3458 180.692 43.7632 172.415 43.7632C167.183 43.7632 164.038 45.0214 162.051 46.3789C160.031 47.7364 156.985 50.7826 156.985 56.6763C156.985 58.8616 157.548 63.6957 162.515 66.5763C164.435 67.669 167.415 68.7947 172.382 68.7947C176.52 68.7947 179.865 68.265 182.911 66.2121C187.645 63.0004 188.076 58.2987 188.076 56.2127ZM179.467 56.279C179.467 58.8616 178.507 63.6295 172.646 63.6295C167.249 63.6295 165.594 59.4576 165.594 56.3121C165.594 52.5044 167.779 48.9615 172.613 48.9615C178.275 48.9615 179.467 53.7294 179.467 56.279Z"/>
<path d="M192.778 44.6241V68.0001H210.757C213.737 68.0001 217.511 67.7683 219.663 65.1857C220.988 63.5633 221.021 61.8084 221.021 61.1131C221.021 59.3913 220.69 57.9676 219.299 56.8087C218.14 55.8154 216.816 55.5836 215.359 55.3519C218.604 54.491 219.829 52.6368 219.829 50.0873C219.829 45.518 216.121 44.6241 212.677 44.6241H192.778ZM201.221 53.5308V49.8886H209.664C210.955 49.8886 211.816 50.4184 211.816 51.6766C211.816 53.0672 210.79 53.5308 209.498 53.5308H201.221ZM201.155 58.5967H210.591C211.154 58.5967 212.71 58.6298 212.71 60.5171C212.71 62.1395 211.617 62.6693 209.995 62.6693H201.155V58.5967Z"/>
</mask>
<path d="M32.9637 1.62406V25.0001H50.9758C56.2073 25.0001 60.1474 23.2783 60.1474 17.484C60.1474 11.6897 56.6377 10.1335 50.2805 10.1335H41.3737V7.58395H58.2932V1.62406H32.9637ZM41.3737 15.4311H48.6249C50.8765 15.4311 51.7373 16.0933 51.7373 17.484C51.7042 19.2057 50.8433 19.7024 48.5918 19.7024H41.3737V15.4311Z" fill="url(#paint0_radial_404_737)"/>
<path d="M65.1437 1.62406V25.0001H73.4876V16.7556H79.8117C82.3612 16.7556 85.606 16.7224 87.8575 15.1994C90.705 13.3121 90.8375 10.1997 90.8375 9.07392C90.8375 7.1204 90.3739 5.92842 90.0097 5.16688C88.3211 1.7565 84.8776 1.62406 81.1692 1.62406H65.1437ZM73.4876 6.92174H79.5799C80.5732 6.92174 81.5996 7.02107 82.1625 8.01439C82.2619 8.21305 82.4605 8.61037 82.4605 9.20636C82.4605 10.299 81.8645 11.0937 80.8381 11.3585C80.3746 11.491 79.911 11.491 78.9508 11.491H73.4876V6.92174Z" fill="url(#paint1_radial_404_737)"/>
<path d="M124.445 13.2127C124.445 9.66991 123.087 7.25284 122.326 6.12709C120.405 3.3458 117.061 0.763184 108.784 0.763184C103.552 0.763184 100.407 2.02138 98.42 3.37891C96.4003 4.73644 93.3541 7.78261 93.3541 13.6763C93.3541 15.8616 93.917 20.6957 98.8836 23.5763C100.804 24.669 103.784 25.7947 108.751 25.7947C112.889 25.7947 116.233 25.265 119.28 23.2121C124.014 20.0004 124.445 15.2987 124.445 13.2127ZM115.836 13.279C115.836 15.8616 114.876 20.6295 109.015 20.6295C103.618 20.6295 101.963 16.4576 101.963 13.3121C101.963 9.50436 104.148 5.96153 108.982 5.96153C114.644 5.96153 115.836 10.7294 115.836 13.279Z" fill="url(#paint2_radial_404_737)"/>
<path d="M156.198 25.0001V1.62406H147.722V10.1335H137.524V1.62406H129.08V25.0001H137.49V16.0271H147.722V25.0001H156.198Z" fill="url(#paint3_radial_404_737)"/>
<path d="M161.842 1.62406V25.0001H179.855C185.086 25.0001 189.026 22.9472 189.026 17.1529C189.026 11.3585 185.516 9.47125 179.159 9.47125H170.253V1.62406H161.842ZM170.253 14.7689H177.504C179.59 14.7689 180.616 15.5967 180.616 17.0204C180.616 18.974 179.192 19.7024 177.471 19.7024H170.253V14.7689Z" fill="url(#paint4_radial_404_737)"/>
<path d="M1.15625 44.6241V68.0001H19.1684C24.3998 68.0001 28.34 66.2783 28.34 60.484C28.34 54.6897 24.8303 53.1335 18.473 53.1335H9.56632V50.584H26.4858V44.6241H1.15625ZM9.56632 58.4311H16.8175C19.069 58.4311 19.9299 59.0933 19.9299 60.484C19.8968 62.2057 19.0359 62.7024 16.7844 62.7024H9.56632V58.4311Z" fill="url(#paint5_radial_404_737)"/>
<path d="M33.3032 68.0001H41.7133V65.0201L53.1033 55.4843V68.0001H61.5133V44.6241H53.1033V47.6371L41.7133 57.1729V44.6241H33.3032V68.0001Z" fill="url(#paint6_radial_404_737)"/>
<path d="M95.9045 68.0001V44.6241H70.9392V50.4846C70.9392 61.0469 70.1115 62.0402 66.8666 62.0402H65.8071V68.0001H67.3302C76.9984 68.0001 78.8857 63.9606 78.8857 52.107V50.584H87.4945V68.0001H95.9045Z" fill="url(#paint7_radial_404_737)"/>
<path d="M126.507 68.0001V62.7024H109.919V58.9609H124.984V53.6963H109.919V49.8555H126.209V44.6241H101.542V68.0001H126.507Z" fill="url(#paint8_radial_404_737)"/>
<path d="M154.055 49.8555V44.6241H129.057V49.8555H137.368V68.0001H145.778V49.8555H154.055Z" fill="url(#paint9_radial_404_737)"/>
<path d="M188.076 56.2127C188.076 52.6699 186.718 50.2528 185.957 49.1271C184.036 46.3458 180.692 43.7632 172.415 43.7632C167.183 43.7632 164.038 45.0214 162.051 46.3789C160.031 47.7364 156.985 50.7826 156.985 56.6763C156.985 58.8616 157.548 63.6957 162.515 66.5763C164.435 67.669 167.415 68.7947 172.382 68.7947C176.52 68.7947 179.865 68.265 182.911 66.2121C187.645 63.0004 188.076 58.2987 188.076 56.2127ZM179.467 56.279C179.467 58.8616 178.507 63.6295 172.646 63.6295C167.249 63.6295 165.594 59.4576 165.594 56.3121C165.594 52.5044 167.779 48.9615 172.613 48.9615C178.275 48.9615 179.467 53.7294 179.467 56.279Z" fill="url(#paint10_radial_404_737)"/>
<path d="M192.778 44.6241V68.0001H210.757C213.737 68.0001 217.511 67.7683 219.663 65.1857C220.988 63.5633 221.021 61.8084 221.021 61.1131C221.021 59.3913 220.69 57.9676 219.299 56.8087C218.14 55.8154 216.816 55.5836 215.359 55.3519C218.604 54.491 219.829 52.6368 219.829 50.0873C219.829 45.518 216.121 44.6241 212.677 44.6241H192.778ZM201.221 53.5308V49.8886H209.664C210.955 49.8886 211.816 50.4184 211.816 51.6766C211.816 53.0672 210.79 53.5308 209.498 53.5308H201.221ZM201.155 58.5967H210.591C211.154 58.5967 212.71 58.6298 212.71 60.5171C212.71 62.1395 211.617 62.6693 209.995 62.6693H201.155V58.5967Z" fill="url(#paint11_radial_404_737)"/>
<path d="M32.9637 1.62406V25.0001H50.9758C56.2073 25.0001 60.1474 23.2783 60.1474 17.484C60.1474 11.6897 56.6377 10.1335 50.2805 10.1335H41.3737V7.58395H58.2932V1.62406H32.9637ZM41.3737 15.4311H48.6249C50.8765 15.4311 51.7373 16.0933 51.7373 17.484C51.7042 19.2057 50.8433 19.7024 48.5918 19.7024H41.3737V15.4311Z" stroke="url(#paint12_linear_404_737)" stroke-width="1.15247" mask="url(#path-1-outside-1_404_737)"/>
<path d="M65.1437 1.62406V25.0001H73.4876V16.7556H79.8117C82.3612 16.7556 85.606 16.7224 87.8575 15.1994C90.705 13.3121 90.8375 10.1997 90.8375 9.07392C90.8375 7.1204 90.3739 5.92842 90.0097 5.16688C88.3211 1.7565 84.8776 1.62406 81.1692 1.62406H65.1437ZM73.4876 6.92174H79.5799C80.5732 6.92174 81.5996 7.02107 82.1625 8.01439C82.2619 8.21305 82.4605 8.61037 82.4605 9.20636C82.4605 10.299 81.8645 11.0937 80.8381 11.3585C80.3746 11.491 79.911 11.491 78.9508 11.491H73.4876V6.92174Z" stroke="url(#paint13_linear_404_737)" stroke-width="1.15247" mask="url(#path-1-outside-1_404_737)"/>
<path d="M124.445 13.2127C124.445 9.66991 123.087 7.25284 122.326 6.12709C120.405 3.3458 117.061 0.763184 108.784 0.763184C103.552 0.763184 100.407 2.02138 98.42 3.37891C96.4003 4.73644 93.3541 7.78261 93.3541 13.6763C93.3541 15.8616 93.917 20.6957 98.8836 23.5763C100.804 24.669 103.784 25.7947 108.751 25.7947C112.889 25.7947 116.233 25.265 119.28 23.2121C124.014 20.0004 124.445 15.2987 124.445 13.2127ZM115.836 13.279C115.836 15.8616 114.876 20.6295 109.015 20.6295C103.618 20.6295 101.963 16.4576 101.963 13.3121C101.963 9.50436 104.148 5.96153 108.982 5.96153C114.644 5.96153 115.836 10.7294 115.836 13.279Z" stroke="url(#paint14_linear_404_737)" stroke-width="1.15247" mask="url(#path-1-outside-1_404_737)"/>
<path d="M156.198 25.0001V1.62406H147.722V10.1335H137.524V1.62406H129.08V25.0001H137.49V16.0271H147.722V25.0001H156.198Z" stroke="url(#paint15_linear_404_737)" stroke-width="1.15247" mask="url(#path-1-outside-1_404_737)"/>
<path d="M161.842 1.62406V25.0001H179.855C185.086 25.0001 189.026 22.9472 189.026 17.1529C189.026 11.3585 185.516 9.47125 179.159 9.47125H170.253V1.62406H161.842ZM170.253 14.7689H177.504C179.59 14.7689 180.616 15.5967 180.616 17.0204C180.616 18.974 179.192 19.7024 177.471 19.7024H170.253V14.7689Z" stroke="url(#paint16_linear_404_737)" stroke-width="1.15247" mask="url(#path-1-outside-1_404_737)"/>
<path d="M1.15625 44.6241V68.0001H19.1684C24.3998 68.0001 28.34 66.2783 28.34 60.484C28.34 54.6897 24.8303 53.1335 18.473 53.1335H9.56632V50.584H26.4858V44.6241H1.15625ZM9.56632 58.4311H16.8175C19.069 58.4311 19.9299 59.0933 19.9299 60.484C19.8968 62.2057 19.0359 62.7024 16.7844 62.7024H9.56632V58.4311Z" stroke="url(#paint17_linear_404_737)" stroke-width="1.15247" mask="url(#path-1-outside-1_404_737)"/>
<path d="M33.3032 68.0001H41.7133V65.0201L53.1033 55.4843V68.0001H61.5133V44.6241H53.1033V47.6371L41.7133 57.1729V44.6241H33.3032V68.0001Z" stroke="url(#paint18_linear_404_737)" stroke-width="1.15247" mask="url(#path-1-outside-1_404_737)"/>
<path d="M95.9045 68.0001V44.6241H70.9392V50.4846C70.9392 61.0469 70.1115 62.0402 66.8666 62.0402H65.8071V68.0001H67.3302C76.9984 68.0001 78.8857 63.9606 78.8857 52.107V50.584H87.4945V68.0001H95.9045Z" stroke="url(#paint19_linear_404_737)" stroke-width="1.15247" mask="url(#path-1-outside-1_404_737)"/>
<path d="M126.507 68.0001V62.7024H109.919V58.9609H124.984V53.6963H109.919V49.8555H126.209V44.6241H101.542V68.0001H126.507Z" stroke="url(#paint20_linear_404_737)" stroke-width="1.15247" mask="url(#path-1-outside-1_404_737)"/>
<path d="M154.055 49.8555V44.6241H129.057V49.8555H137.368V68.0001H145.778V49.8555H154.055Z" stroke="url(#paint21_linear_404_737)" stroke-width="1.15247" mask="url(#path-1-outside-1_404_737)"/>
<path d="M188.076 56.2127C188.076 52.6699 186.718 50.2528 185.957 49.1271C184.036 46.3458 180.692 43.7632 172.415 43.7632C167.183 43.7632 164.038 45.0214 162.051 46.3789C160.031 47.7364 156.985 50.7826 156.985 56.6763C156.985 58.8616 157.548 63.6957 162.515 66.5763C164.435 67.669 167.415 68.7947 172.382 68.7947C176.52 68.7947 179.865 68.265 182.911 66.2121C187.645 63.0004 188.076 58.2987 188.076 56.2127ZM179.467 56.279C179.467 58.8616 178.507 63.6295 172.646 63.6295C167.249 63.6295 165.594 59.4576 165.594 56.3121C165.594 52.5044 167.779 48.9615 172.613 48.9615C178.275 48.9615 179.467 53.7294 179.467 56.279Z" stroke="url(#paint22_linear_404_737)" stroke-width="1.15247" mask="url(#path-1-outside-1_404_737)"/>
<path d="M192.778 44.6241V68.0001H210.757C213.737 68.0001 217.511 67.7683 219.663 65.1857C220.988 63.5633 221.021 61.8084 221.021 61.1131C221.021 59.3913 220.69 57.9676 219.299 56.8087C218.14 55.8154 216.816 55.5836 215.359 55.3519C218.604 54.491 219.829 52.6368 219.829 50.0873C219.829 45.518 216.121 44.6241 212.677 44.6241H192.778ZM201.221 53.5308V49.8886H209.664C210.955 49.8886 211.816 50.4184 211.816 51.6766C211.816 53.0672 210.79 53.5308 209.498 53.5308H201.221ZM201.155 58.5967H210.591C211.154 58.5967 212.71 58.6298 212.71 60.5171C212.71 62.1395 211.617 62.6693 209.995 62.6693H201.155V58.5967Z" stroke="url(#paint23_linear_404_737)" stroke-width="1.15247" mask="url(#path-1-outside-1_404_737)"/>
<defs>
<radialGradient id="paint0_radial_404_737" cx="0" cy="0" r="1" gradientUnits="userSpaceOnUse" gradientTransform="translate(110.5 35) rotate(90) scale(43 111.5)">
<stop stop-color="white"/>
<stop offset="1" stop-color="white" stop-opacity="0.64"/>
</radialGradient>
<radialGradient id="paint1_radial_404_737" cx="0" cy="0" r="1" gradientUnits="userSpaceOnUse" gradientTransform="translate(110.5 35) rotate(90) scale(43 111.5)">
<stop stop-color="white"/>
<stop offset="1" stop-color="white" stop-opacity="0.64"/>
</radialGradient>
<radialGradient id="paint2_radial_404_737" cx="0" cy="0" r="1" gradientUnits="userSpaceOnUse" gradientTransform="translate(110.5 35) rotate(90) scale(43 111.5)">
<stop stop-color="white"/>
<stop offset="1" stop-color="white" stop-opacity="0.64"/>
</radialGradient>
<radialGradient id="paint3_radial_404_737" cx="0" cy="0" r="1" gradientUnits="userSpaceOnUse" gradientTransform="translate(110.5 35) rotate(90) scale(43 111.5)">
<stop stop-color="white"/>
<stop offset="1" stop-color="white" stop-opacity="0.64"/>
</radialGradient>
<radialGradient id="paint4_radial_404_737" cx="0" cy="0" r="1" gradientUnits="userSpaceOnUse" gradientTransform="translate(110.5 35) rotate(90) scale(43 111.5)">
<stop stop-color="white"/>
<stop offset="1" stop-color="white" stop-opacity="0.64"/>
</radialGradient>
<radialGradient id="paint5_radial_404_737" cx="0" cy="0" r="1" gradientUnits="userSpaceOnUse" gradientTransform="translate(110.5 35) rotate(90) scale(43 111.5)">
<stop stop-color="white"/>
<stop offset="1" stop-color="white" stop-opacity="0.64"/>
</radialGradient>
<radialGradient id="paint6_radial_404_737" cx="0" cy="0" r="1" gradientUnits="userSpaceOnUse" gradientTransform="translate(110.5 35) rotate(90) scale(43 111.5)">
<stop stop-color="white"/>
<stop offset="1" stop-color="white" stop-opacity="0.64"/>
</radialGradient>
<radialGradient id="paint7_radial_404_737" cx="0" cy="0" r="1" gradientUnits="userSpaceOnUse" gradientTransform="translate(110.5 35) rotate(90) scale(43 111.5)">
<stop stop-color="white"/>
<stop offset="1" stop-color="white" stop-opacity="0.64"/>
</radialGradient>
<radialGradient id="paint8_radial_404_737" cx="0" cy="0" r="1" gradientUnits="userSpaceOnUse" gradientTransform="translate(110.5 35) rotate(90) scale(43 111.5)">
<stop stop-color="white"/>
<stop offset="1" stop-color="white" stop-opacity="0.64"/>
</radialGradient>
<radialGradient id="paint9_radial_404_737" cx="0" cy="0" r="1" gradientUnits="userSpaceOnUse" gradientTransform="translate(110.5 35) rotate(90) scale(43 111.5)">
<stop stop-color="white"/>
<stop offset="1" stop-color="white" stop-opacity="0.64"/>
</radialGradient>
<radialGradient id="paint10_radial_404_737" cx="0" cy="0" r="1" gradientUnits="userSpaceOnUse" gradientTransform="translate(110.5 35) rotate(90) scale(43 111.5)">
<stop stop-color="white"/>
<stop offset="1" stop-color="white" stop-opacity="0.64"/>
</radialGradient>
<radialGradient id="paint11_radial_404_737" cx="0" cy="0" r="1" gradientUnits="userSpaceOnUse" gradientTransform="translate(110.5 35) rotate(90) scale(43 111.5)">
<stop stop-color="white"/>
<stop offset="1" stop-color="white" stop-opacity="0.64"/>
</radialGradient>
<linearGradient id="paint12_linear_404_737" x1="116.928" y1="-17.0318" x2="191.155" y2="59.091" gradientUnits="userSpaceOnUse">
<stop stop-color="white"/>
<stop offset="1" stop-color="white" stop-opacity="0"/>
</linearGradient>
<linearGradient id="paint13_linear_404_737" x1="116.928" y1="-17.0318" x2="191.155" y2="59.091" gradientUnits="userSpaceOnUse">
<stop stop-color="white"/>
<stop offset="1" stop-color="white" stop-opacity="0"/>
</linearGradient>
<linearGradient id="paint14_linear_404_737" x1="116.928" y1="-17.0318" x2="191.155" y2="59.091" gradientUnits="userSpaceOnUse">
<stop stop-color="white"/>
<stop offset="1" stop-color="white" stop-opacity="0"/>
</linearGradient>
<linearGradient id="paint15_linear_404_737" x1="116.928" y1="-17.0318" x2="191.155" y2="59.091" gradientUnits="userSpaceOnUse">
<stop stop-color="white"/>
<stop offset="1" stop-color="white" stop-opacity="0"/>
</linearGradient>
<linearGradient id="paint16_linear_404_737" x1="116.928" y1="-17.0318" x2="191.155" y2="59.091" gradientUnits="userSpaceOnUse">
<stop stop-color="white"/>
<stop offset="1" stop-color="white" stop-opacity="0"/>
</linearGradient>
<linearGradient id="paint17_linear_404_737" x1="116.928" y1="-17.0318" x2="191.155" y2="59.091" gradientUnits="userSpaceOnUse">
<stop stop-color="white"/>
<stop offset="1" stop-color="white" stop-opacity="0"/>
</linearGradient>
<linearGradient id="paint18_linear_404_737" x1="116.928" y1="-17.0318" x2="191.155" y2="59.091" gradientUnits="userSpaceOnUse">
<stop stop-color="white"/>
<stop offset="1" stop-color="white" stop-opacity="0"/>
</linearGradient>
<linearGradient id="paint19_linear_404_737" x1="116.928" y1="-17.0318" x2="191.155" y2="59.091" gradientUnits="userSpaceOnUse">
<stop stop-color="white"/>
<stop offset="1" stop-color="white" stop-opacity="0"/>
</linearGradient>
<linearGradient id="paint20_linear_404_737" x1="116.928" y1="-17.0318" x2="191.155" y2="59.091" gradientUnits="userSpaceOnUse">
<stop stop-color="white"/>
<stop offset="1" stop-color="white" stop-opacity="0"/>
</linearGradient>
<linearGradient id="paint21_linear_404_737" x1="116.928" y1="-17.0318" x2="191.155" y2="59.091" gradientUnits="userSpaceOnUse">
<stop stop-color="white"/>
<stop offset="1" stop-color="white" stop-opacity="0"/>
</linearGradient>
<linearGradient id="paint22_linear_404_737" x1="116.928" y1="-17.0318" x2="191.155" y2="59.091" gradientUnits="userSpaceOnUse">
<stop stop-color="white"/>
<stop offset="1" stop-color="white" stop-opacity="0"/>
</linearGradient>
<linearGradient id="paint23_linear_404_737" x1="116.928" y1="-17.0318" x2="191.155" y2="59.091" gradientUnits="userSpaceOnUse">
<stop stop-color="white"/>
<stop offset="1" stop-color="white" stop-opacity="0"/>
</linearGradient>
</defs>
</svg>
